nimbus-sans-l_regular-condensed-italic.sfdir

StartChar: exclam
Encoding: 33 33 1
Width: 228
Flags: MW
HStem: 0 102<92 153 74 171> 698 20<199 278 278 278>
LayerCount: 2
Fore
SplineSet
171 102 m 1
 153 0 l 1
 74 0 l 1
 92 102 l 1
 171 102 l 1
163 171 m 1
 123 171 l 1
 158 481 l 1
 199 718 l 1
 278 718 l 1
 237 481 l 1
 163 171 l 1
EndSplineSet
EndChar

StartChar: quotedbl
Encoding: 34 34 2
Width: 291
Flags: MW
HStem: 463 255<138 242 182 198 299 315 182 255>
LayerCount: 2
Fore
SplineSet
138 463 m 1
 182 718 l 1
 242 718 l 1
 198 463 l 1
 138 463 l 1
255 463 m 1
 299 718 l 1
 359 718 l 1
 315 463 l 1
 255 463 l 1
EndSplineSet
EndChar

StartChar: numbersign
Encoding: 35 35 3
Width: 456
Flags: MW
HStem: 0 20 210 63<78 144 60 163 217 301 78 198 373 439> 415 63<137 203 119 221 137 258 276 359 433 499>
LayerCount: 2
Fore
SplineSet
355 210 m 1
 295 0 l 1
 240 0 l 1
 301 210 l 1
 198 210 l 1
 138 0 l 1
 84 0 l 1
 144 210 l 1
 60 210 l 1
 78 273 l 1
 163 273 l 1
 203 415 l 1
 119 415 l 1
 137 478 l 1
 221 478 l 1
 282 688 l 1
 337 688 l 1
 276 478 l 1
 378 478 l 1
 438 688 l 1
 493 688 l 1
 433 478 l 1
 517 478 l 1
 499 415 l 1
 414 415 l 1
 373 273 l 1
 458 273 l 1
 439 210 l 1
 355 210 l 1
359 415 m 1
 258 415 l 1
 217 273 l 1
 319 273 l 1
 359 415 l 1
EndSplineSet
EndChar

StartChar: dollar
Encoding: 36 36 4
Width: 456
Flags: W
VStem: 57 75<121 143.5> 124 75<474.5 504> 388 78<210 226> 435 71<563 570.5>
LayerCount: 2
Fore
SplineSet
504 521 m 1x50
 434 521 l 1
 435 530 435 539 435 544 c 0x50
 435 597 414 622 358 638 c 1
 316 399 l 1
 374 377 396 367 419 351 c 0
 450 329 466 295 466 248 c 0
 466 172 435 91 389 44 c 0
 348 3 307 -14 243 -19 c 1
 227 -115 l 1
 188 -115 l 1
 205 -19 l 1
 145 -12 117 -1 92 27 c 0
 71 50 57 93 57 133 c 0
 57 154 60 181 64 213 c 1
 136 213 l 1
 134 189 132 165 132 149 c 0xa0
 132 93 154 69 218 54 c 1
 264 319 l 1
 218 333 196 343 176 358 c 0
 142 382 124 422 124 471 c 0
 124 537 152 605 197 651 c 0
 237 691 273 707 332 711 c 1
 343 775 l 1
 382 775 l 1
 371 711 l 1
 411 705 428 700 449 686 c 0
 487 662 506 622 506 570 c 0
 506 556 505 539 504 521 c 1x50
280 409 m 1
 319 638 l 1
 285 636 265 627 242 605 c 1
 216 578 199 536 199 498 c 0
 199 451 224 423 280 409 c 1
300 308 m 1x20
 256 54 l 1
 295 56 317 66 341 90 c 0
 370 118 388 164 388 206 c 0
 388 246 370 279 342 291 c 2
 300 308 l 1x20
EndSplineSet
EndChar

StartChar: percent
Encoding: 37 37 5
Width: 729
Flags: W
HStem: -19 20 -7 53<560 588 560 591> 314 53<610.5 638.5> 321 53<210.5 238.5 210.5 241.5> 642 53<262 289.5>
VStem: 120 57<422 472.5 422 474.5> 323 57<543.5 593.5> 469 57<94 144 94 146.5> 672 57<215.5 266>
LayerCount: 2
Fore
SplineSet
282 695 m 0x9f80
 346 695 380 652 380 572 c 0
 380 511 363 443 336 396 c 0
 307 347 266 321 217 321 c 0
 154 321 120 364 120 444 c 0
 120 505 137 572 164 620 c 0
 192 668 234 695 282 695 c 0x9f80
274 642 m 0
 250 642 229 628 213 601 c 0
 192 565 177 500 177 445 c 0
 177 399 195 374 226 374 c 0
 251 374 272 388 287 415 c 0
 308 453 323 516 323 571 c 0
 323 616 305 642 274 642 c 0
671 703 m 1
 221 -19 l 1
 176 -19 l 1
 626 703 l 1
 671 703 l 1
631 367 m 0x6780
 695 367 729 324 729 244 c 0
 729 184 712 115 685 68 c 0
 656 19 615 -7 567 -7 c 0
 503 -7 469 36 469 116 c 0
 469 177 486 244 513 292 c 0
 541 340 583 367 631 367 c 0x6780
623 314 m 0
 598 314 578 300 562 273 c 0
 541 237 526 171 526 117 c 0
 526 71 544 46 576 46 c 0
 600 46 621 60 636 87 c 0
 657 125 672 188 672 243 c 0
 672 289 654 314 623 314 c 0
EndSplineSet
EndChar

StartChar: ampersand
Encoding: 38 38 6
Width: 547
Flags: MW
HStem: -15 76<201 243> 642 76<332 371.5>
VStem: 63 74<128 162> 200 73<530 573 530 574.5> 408 72<579.5 603>
LayerCount: 2
Fore
SplineSet
451 155 m 1
 528 0 l 1
 435 0 l 1
 394 82 l 1
 328 10 279 -15 207 -15 c 0
 115 -15 63 38 63 133 c 0
 63 191 80 249 110 291 c 0
 136 328 165 352 238 399 c 1
 207 462 200 485 200 521 c 0
 200 628 278 718 372 718 c 0
 439 718 480 674 480 603 c 0
 480 556 462 506 431 465 c 0
 410 437 389 419 338 382 c 1
 419 226 l 1
 440 270 445 283 462 338 c 1
 530 338 l 1
 515 277 489 217 451 155 c 1
366 141 m 1
 268 339 l 1
 202 293 179 273 162 243 c 1
 146 217 137 184 137 155 c 0
 137 101 175 61 227 61 c 0
 277 61 320 86 366 141 c 1
311 439 m 1
 338 459 343 464 356 476 c 0
 390 508 408 546 408 585 c 0
 408 621 388 642 355 642 c 0
 309 642 273 600 273 546 c 0
 273 514 285 481 311 439 c 1
EndSplineSet
EndChar

StartChar: quotesingle
Encoding: 169 39 103
Width: 157
Flags: MW
HStem: 463 255<129 233 173 189>
LayerCount: 2
Fore
SplineSet
129 463 m 1
 173 718 l 1
 233 718 l 1
 189 463 l 1
 129 463 l 1
EndSplineSet
EndChar

StartChar: parenleft
Encoding: 40 40 8
Width: 273
Flags: MW
HStem: -207 20 713 20<322 372 372 372>
VStem: 89 73<72 142 55 171.5>
LayerCount: 2
Fore
SplineSet
322 733 m 1
 372 733 l 1
 279 581 247 516 217 418 c 0
 182 307 162 188 162 96 c 0
 162 14 173 -56 209 -207 c 1
 161 -207 l 1
 105 -54 89 21 89 123 c 0
 89 220 110 330 148 429 c 0
 186 530 227 602 322 733 c 1
EndSplineSet
EndChar

StartChar: parenright
Encoding: 41 41 9
Width: 273
Flags: MW
HStem: -207 20 713 20<156 204 204 204>
VStem: 203 73<384 454 354.5 471.5>
LayerCount: 2
Fore
SplineSet
43 -207 m 1
 -7 -207 l 1
 86 -55 118 10 148 108 c 0
 183 220 203 338 203 430 c 0
 203 513 192 581 156 733 c 1
 204 733 l 1
 260 580 276 505 276 403 c 0
 276 306 255 196 217 97 c 0
 179 -4 138 -76 43 -207 c 1
EndSplineSet
EndChar

StartChar: asterisk
Encoding: 42 42 10
Width: 319
Flags: MW
HStem: 505 20<251 251> 698 20<260 309 309 309>
LayerCount: 2
Fore
SplineSet
135 591 m 1
 161 646 l 1
 240 608 l 1
 260 718 l 1
 309 718 l 1
 290 608 l 1
 382 646 l 1
 389 591 l 1
 295 557 l 1
 333 465 l 1
 287 431 l 1
 251 525 l 1
 181 431 l 1
 147 465 l 1
 218 557 l 1
 135 591 l 1
EndSplineSet
EndChar

StartChar: plus
Encoding: 43 43 11
Width: 479
Flags: MW
HStem: 0 20 216 73<83 248 70 260 320 484 83 307>
LayerCount: 2
Fore
SplineSet
260 289 m 1
 298 505 l 1
 358 505 l 1
 320 289 l 1
 497 289 l 1
 484 216 l 1
 307 216 l 1
 270 0 l 1
 210 0 l 1
 248 216 l 1
 70 216 l 1
 83 289 l 1
 260 289 l 1
EndSplineSet
EndChar

StartChar: comma
Encoding: 44 44 12
Width: 228
Flags: MW
HStem: 0 106<72 175 90 115>
LayerCount: 2
Fore
SplineSet
72 0 m 1
 90 106 l 1
 175 106 l 1
 158 8 l 2
 142 -82 103 -136 46 -147 c 1
 54 -101 l 1
 83 -97 103 -64 115 0 c 1
 72 0 l 1
EndSplineSet
EndChar

StartChar: hyphen
Encoding: 45 45 13
Width: 273
Flags: MW
HStem: 232 90<93 277 77 293>
LayerCount: 2
Fore
SplineSet
293 322 m 1
 277 232 l 1
 77 232 l 1
 93 322 l 1
 293 322 l 1
EndSplineSet
EndChar

StartChar: period
Encoding: 46 46 14
Width: 228
Flags: MW
HStem: 0 106<90 156 71 175>
LayerCount: 2
Fore
SplineSet
175 106 m 1
 156 0 l 1
 71 0 l 1
 90 106 l 1
 175 106 l 1
EndSplineSet
EndChar

StartChar: slash
Encoding: 47 47 15
Width: 228
Flags: MW
HStem: -19 20 717 20<316 370 370 370>
LayerCount: 2
Fore
SplineSet
370 737 m 1
 38 -19 l 1
 -17 -19 l 1
 316 737 l 1
 370 737 l 1
EndSplineSet
EndChar

StartChar: zero
Encoding: 48 48 16
Width: 456
Flags: MW
HStem: -19 79<212 261 212 264> 624 79<315 364>
VStem: 77 77<154.5 253.5 154.5 258.5> 422 77<429.5 529>
LayerCount: 2
Fore
SplineSet
351 703 m 0
 448 703 499 628 499 483 c 0
 499 365 466 220 417 124 c 0
 370 30 303 -19 225 -19 c 0
 129 -19 77 57 77 198 c 0
 77 319 109 462 159 560 c 0
 206 653 273 703 351 703 c 0
337 624 m 0
 293 624 255 593 225 535 c 0
 185 455 154 308 154 199 c 0
 154 110 185 60 239 60 c 0
 283 60 323 92 351 149 c 0
 392 233 422 375 422 484 c 0
 422 574 391 624 337 624 c 0
EndSplineSet
EndChar

StartChar: one
Encoding: 49 49 17
Width: 456
Flags: MW
HStem: 0 20
LayerCount: 2
Fore
SplineSet
417 703 m 1
 295 0 l 1
 217 0 l 1
 304 499 l 1
 170 499 l 1
 182 569 l 1
 291 577 320 599 360 703 c 1
 417 703 l 1
EndSplineSet
EndChar

StartChar: two
Encoding: 50 50 18
Width: 456
Flags: MW
HStem: 0 83<117 416> 624 79<319.5 362.5>
VStem: 427 79<513 556>
LayerCount: 2
Fore
SplineSet
187 451 m 1
 114 451 l 1
 131 533 147 572 179 615 c 0
 221 670 285 703 354 703 c 0
 447 703 506 641 506 543 c 0
 506 483 487 422 455 377 c 0
 425 336 391 308 306 258 c 1
 240 218 l 1
 175 180 131 131 117 83 c 1
 430 83 l 1
 416 0 l 1
 21 0 l 1
 48 131 103 214 205 279 c 2
 291 333 l 2
 359 376 380 394 399 424 c 0
 417 453 427 491 427 525 c 0
 427 587 392 624 333 624 c 0
 258 624 214 572 187 451 c 1
EndSplineSet
EndChar

StartChar: three
Encoding: 51 51 19
Width: 456
Flags: W
HStem: -19 79<203.5 258> 325 73<272 330 272 330> 624 79<314.5 361.5>
VStem: 61 75<128 154> 389 80<222.5 248.5> 423 77<515 564.5>
LayerCount: 2
Fore
SplineSet
240 324 m 1xf8
 253 400 l 1
 275 398 283 398 291 398 c 0
 369 398 423 455 423 537 c 0
 423 592 390 624 333 624 c 0
 261 624 221 580 195 473 c 1
 124 473 l 1
 139 545 154 582 184 622 c 0
 223 674 281 703 348 703 c 0
 443 703 500 649 500 558 c 0xe4
 500 472 460 400 395 372 c 1
 417 361 429 353 438 344 c 0
 457 323 469 288 469 253 c 0
 469 192 445 122 408 73 c 0
 363 14 296 -19 220 -19 c 0
 120 -19 61 41 61 145 c 0
 61 163 62 187 65 215 c 1
 140 215 l 1
 137 193 136 175 136 160 c 0
 136 96 172 60 235 60 c 0
 322 60 389 134 389 229 c 0
 389 268 375 296 347 310 c 0
 329 319 304 325 283 325 c 2
 272 325 l 1
 258 324 254 324 240 324 c 1xf8
EndSplineSet
EndChar

StartChar: four
Encoding: 52 52 20
Width: 456
Flags: MW
HStem: 0 20 171 76<130 302 387 459 130 374>
LayerCount: 2
Fore
SplineSet
459 171 m 1
 374 171 l 1
 344 0 l 1
 272 0 l 1
 302 171 l 1
 50 171 l 1
 65 257 l 1
 407 703 l 1
 467 703 l 1
 387 247 l 1
 472 247 l 1
 459 171 l 1
371 569 m 1
 130 247 l 1
 315 247 l 1
 371 569 l 1
EndSplineSet
EndChar

StartChar: five
Encoding: 53 53 21
Width: 456
Flags: MW
HStem: -19 76<198 248.5> 374 79<288.5 313.5> 602 86<249 249 249 494>
VStem: 55 75<125 143.5> 385 80<244.5 293.5>
LayerCount: 2
Fore
SplineSet
249 602 m 1
 191 409 l 1
 232 440 267 453 310 453 c 0
 401 453 465 382 465 280 c 0
 465 209 438 130 396 74 c 0
 350 13 286 -19 211 -19 c 0
 112 -19 55 39 55 139 c 0
 55 148 55 161 56 175 c 1
 131 175 l 1
 130 168 130 160 130 155 c 0
 130 95 168 57 228 57 c 0
 314 57 385 148 385 258 c 0
 385 329 345 374 282 374 c 0
 239 374 204 354 163 307 c 1
 101 311 l 1
 210 688 l 1
 509 688 l 1
 494 602 l 1
 249 602 l 1
EndSplineSet
EndChar

StartChar: six
Encoding: 54 54 22
Width: 456
Flags: MW
HStem: -19 79<215.5 261> 369 79<288.5 327> 624 79<319 380>
VStem: 74 75<140.5 229.5 140.5 238.5> 391 77<241 294>
LayerCount: 2
Fore
SplineSet
502 516 m 1
 431 516 l 1
 431 591 407 624 353 624 c 0
 269 624 204 531 168 358 c 1
 210 420 258 448 319 448 c 0
 408 448 468 381 468 282 c 0
 468 200 441 125 391 65 c 0
 342 6 294 -19 228 -19 c 0
 130 -19 74 57 74 190 c 0
 74 287 101 418 140 509 c 0
 195 635 273 703 365 703 c 0
 447 703 504 644 504 559 c 0
 504 547 503 533 502 516 c 1
297 369 m 0
 215 369 149 283 149 176 c 0
 149 105 186 60 245 60 c 0
 324 60 391 151 391 259 c 0
 391 329 357 369 297 369 c 0
EndSplineSet
EndChar

StartChar: seven
Encoding: 55 55 23
Width: 456
Flags: MW
HStem: 0 20 602 86<135 549 150 453>
LayerCount: 2
Fore
SplineSet
135 602 m 1
 150 688 l 1
 549 688 l 1
 536 611 l 1
 385 446 271 243 192 0 c 1
 112 0 l 1
 172 200 294 415 453 602 c 1
 135 602 l 1
EndSplineSet
EndChar

StartChar: eight
Encoding: 56 56 24
Width: 456
Flags: W
HStem: -19 79<209 262.5> 330 76<271.5 316.5> 624 79<315 359.5>
VStem: 60 80<131 172.5> 136 76<466 499.5> 384 79<216.5 260.5> 421 76<535.5 567>
LayerCount: 2
Fore
SplineSet
193 373 m 1xf4
 177 383 168 390 161 398 c 0
 146 417 136 446 136 475 c 0
 136 524 156 582 189 624 c 0
 228 675 283 703 347 703 c 0
 440 703 497 648 497 558 c 0xea
 497 513 482 463 458 428 c 0
 442 406 426 392 394 374 c 1
 443 342 463 305 463 246 c 0
 463 187 439 118 403 69 c 1
 360 13 297 -19 228 -19 c 0
 127 -19 60 45 60 141 c 0
 60 204 80 270 111 309 c 0
 133 337 152 352 193 373 c 1xf4
286 330 m 0
 203 330 140 259 140 165 c 0
 140 97 176 60 242 60 c 0
 327 60 384 128 384 229 c 0
 384 292 347 330 286 330 c 0
332 624 m 0xea
 263 624 212 567 212 491 c 0
 212 441 247 406 296 406 c 0
 364 406 421 468 421 541 c 0
 421 593 387 624 332 624 c 0xea
EndSplineSet
EndChar

StartChar: nine
Encoding: 57 57 25
Width: 456
Flags: W
HStem: -19 73<195.5 239 195.5 248> 235 79<247.5 286.5> 624 79<311.5 360>
VStem: 67 74<113.5 131> 110 76<382 440> 423 76<493 551.5>
LayerCount: 2
Fore
SplineSet
70 169 m 1xf4
 142 169 l 1
 141 157 141 148 141 140 c 0xf4
 141 87 171 54 220 54 c 0
 258 54 289 72 319 112 c 0
 351 154 373 208 406 325 c 1
 370 266 318 235 255 235 c 0
 166 235 110 300 110 402 c 0xe8
 110 478 136 558 179 615 c 0
 223 673 279 703 344 703 c 0
 444 703 499 633 499 504 c 0
 499 392 463 241 411 138 c 0
 359 35 289 -19 207 -19 c 0
 122 -19 67 38 67 126 c 0
 67 136 68 151 70 169 c 1xf4
331 624 m 0
 250 624 186 532 186 415 c 0xe8
 186 349 218 314 277 314 c 0
 321 314 357 334 383 374 c 0
 407 410 423 468 423 518 c 0
 423 585 389 624 331 624 c 0
EndSplineSet
EndChar

StartChar: colon
Encoding: 58 58 26
Width: 228
Flags: MW
HStem: 0 106<90 157 71 175> 410 106<161 228 143 247>
LayerCount: 2
Fore
SplineSet
175 106 m 1
 157 0 l 1
 71 0 l 1
 90 106 l 1
 175 106 l 1
247 516 m 1
 228 410 l 1
 143 410 l 1
 161 516 l 1
 247 516 l 1
EndSplineSet
EndChar

StartChar: semicolon
Encoding: 59 59 27
Width: 228
Flags: MW
HStem: 0 106<72 176 90 115> 410 106<162 229 143 247>
LayerCount: 2
Fore
SplineSet
72 0 m 1
 90 106 l 1
 176 106 l 1
 158 8 l 2
 142 -82 103 -136 46 -147 c 1
 54 -101 l 1
 84 -97 103 -64 115 0 c 1
 72 0 l 1
229 410 m 1
 143 410 l 1
 162 516 l 1
 247 516 l 1
 229 410 l 1
EndSplineSet
EndChar

StartChar: less
Encoding: 60 60 28
Width: 479
Flags: W
LayerCount: 2
Fore
SplineSet
441 10 m 1
 77 217 l 1
 89 289 l 1
 526 496 l 1
 512 414 l 1
 165 253 l 1
 455 92 l 1
 441 10 l 1
EndSplineSet
EndChar

StartChar: equal
Encoding: 61 61 29
Width: 479
Flags: MW
HStem: 115 73<65 467 52 480> 317 73<100 502 87 515>
LayerCount: 2
Fore
SplineSet
515 390 m 1
 502 317 l 1
 87 317 l 1
 100 390 l 1
 515 390 l 1
480 188 m 1
 467 115 l 1
 52 115 l 1
 65 188 l 1
 480 188 l 1
EndSplineSet
EndChar

StartChar: greater
Encoding: 62 62 30
Width: 479
Flags: W
LayerCount: 2
Fore
SplineSet
41 10 m 1
 55 92 l 1
 402 253 l 1
 111 414 l 1
 126 496 l 1
 490 289 l 1
 478 217 l 1
 41 10 l 1
EndSplineSet
EndChar

StartChar: question
Encoding: 63 63 31
Width: 456
Flags: MW
HStem: 0 102<199 261 181 279> 651 76<328.5 366>
VStem: 422 78<553.5 591>
LayerCount: 2
Fore
SplineSet
204 493 m 1
 132 493 l 1
 151 582 167 618 204 658 c 1
 247 702 301 727 356 727 c 0
 444 727 500 668 500 576 c 0
 500 531 488 486 467 452 c 0
 452 429 431 406 390 366 c 0
 315 294 302 271 287 183 c 1
 215 183 l 1
 234 287 249 316 330 398 c 0
 377 446 391 463 401 480 c 0
 414 502 422 534 422 563 c 0
 422 619 392 651 340 651 c 0
 268 651 225 601 204 493 c 1
279 102 m 1
 261 0 l 1
 181 0 l 1
 199 102 l 1
 279 102 l 1
EndSplineSet
EndChar

StartChar: at
Encoding: 64 64 32
Width: 832
Flags: W
HStem: -19 62<381 464> 136 65<526 611.5> 136 72<397 402> 675 62<466.5 604.5>
VStem: 176 60<214.5 388 214.5 398.5> 291 69<257 290.5> 736 55<445.5 533.5>
LayerCount: 2
Fore
SplineSet
612 494 m 1x2e
 639 556 l 1
 695 556 l 1
 628 392 l 1
 571 257 563 234 563 217 c 0
 563 206 567 201 576 201 c 0
 647 201 736 352 736 474 c 0
 736 593 660 675 549 675 c 0
 384 675 236 490 236 286 c 0
 236 143 320 43 442 43 c 0
 520 43 590 80 662 157 c 1
 717 157 l 1
 682 109 665 89 635 64 c 0
 571 10 499 -19 429 -19 c 0
 281 -19 176 105 176 280 c 0
 176 517 361 737 560 737 c 0
 694 737 791 632 791 487 c 0
 791 404 760 315 707 246 c 0
 657 181 588 136 538 136 c 0xde
 514 136 497 155 497 183 c 0
 497 188 497 193 498 200 c 1
 454 155 420 136 384 136 c 0
 330 136 291 187 291 257 c 0
 291 324 323 411 372 475 c 0
 419 538 476 572 532 572 c 0
 575 572 598 550 612 494 c 1x2e
520 500 m 0x2e
 453 504 360 375 360 278 c 0
 360 236 381 208 413 208 c 0
 456 208 505 252 541 322 c 0
 562 363 573 400 573 429 c 0
 573 470 552 498 520 500 c 0x2e
EndSplineSet
EndChar

StartChar: A
Encoding: 65 65 33
Width: 547
Flags: MW
HStem: 0 20 209 86<231 414 231 427 191 414> 698 20<358 448 448 448>
LayerCount: 2
Fore
SplineSet
427 209 m 1
 191 209 l 1
 93 0 l 1
 11 0 l 1
 358 718 l 1
 448 718 l 1
 536 0 l 1
 449 0 l 1
 427 209 l 1
231 295 m 1
 414 295 l 1
 381 614 l 1
 231 295 l 1
EndSplineSet
EndChar

StartChar: B
Encoding: 66 66 34
Width: 547
Flags: W
HStem: 0 83<155 314> 335 79<199 356 212 355> 635 83<251 251 251 395>
VStem: 474 81<196.5 274.5> 501 82<559.5 584>
LayerCount: 2
Fore
SplineSet
61 0 m 1xf0
 186 718 l 1
 445 718 l 2
 531 718 583 665 583 577 c 0xe8
 583 542 574 503 558 472 c 0
 539 434 517 412 475 387 c 1
 534 355 555 321 555 258 c 0
 555 114 449 0 314 0 c 2
 61 0 l 1xf0
251 635 m 1
 212 414 l 1
 356 414 l 2
 413 414 451 431 475 465 c 1
 490 488 501 526 501 558 c 0
 501 610 466 635 395 635 c 2
 251 635 l 1
199 335 m 1xf0
 155 83 l 1
 324 83 l 2
 413 83 474 149 474 244 c 0
 474 305 434 335 355 335 c 2
 199 335 l 1xf0
EndSplineSet
EndChar

StartChar: D
Encoding: 68 68 36
Width: 592
Flags: MW
HStem: 0 83<160 302> 635 83<256 256 256 405>
VStem: 543 83<411 517>
LayerCount: 2
Fore
SplineSet
66 0 m 1
 191 718 l 1
 430 718 l 2
 553 718 626 626 626 472 c 0
 626 345 583 206 515 116 c 0
 457 38 386 0 302 0 c 2
 66 0 l 1
256 635 m 1
 160 83 l 1
 314 83 l 2
 374 83 427 116 468 178 c 0
 512 245 543 361 543 461 c 0
 543 573 494 635 405 635 c 2
 256 635 l 1
EndSplineSet
EndChar

StartChar: F
Encoding: 70 70 38
Width: 501
Flags: MW
HStem: 0 20 326 86<207 510 222 495> 632 86<260 588 260 260>
LayerCount: 2
Fore
SplineSet
207 326 m 1
 150 0 l 1
 71 0 l 1
 196 718 l 1
 603 718 l 1
 588 632 l 1
 260 632 l 1
 222 412 l 1
 510 412 l 1
 495 326 l 1
 207 326 l 1
EndSplineSet
EndChar

StartChar: H
Encoding: 72 72 40
Width: 592
Flags: MW
HStem: 0 20 335 86<216 509 201 524> 698 20<188 268 268 268 575 655 655 655>
LayerCount: 2
Fore
SplineSet
524 421 m 1
 575 718 l 1
 655 718 l 1
 530 0 l 1
 450 0 l 1
 509 335 l 1
 201 335 l 1
 143 0 l 1
 63 0 l 1
 188 718 l 1
 268 718 l 1
 216 421 l 1
 524 421 l 1
EndSplineSet
EndChar

StartChar: I
Encoding: 73 73 41
Width: 228
Flags: MW
HStem: 0 20 698 20<200 279 279 279>
LayerCount: 2
Fore
SplineSet
279 718 m 1
 154 0 l 1
 75 0 l 1
 200 718 l 1
 279 718 l 1
EndSplineSet
EndChar

StartChar: K
Encoding: 75 75 43
Width: 547
Flags: MW
HStem: 0 20 698 20<187 267 267 267 552 662 662 662>
LayerCount: 2
Fore
SplineSet
185 252 m 1
 142 0 l 1
 62 0 l 1
 187 718 l 1
 267 718 l 1
 206 370 l 1
 552 718 l 1
 662 718 l 1
 366 428 l 1
 543 0 l 1
 440 0 l 1
 297 360 l 1
 185 252 l 1
EndSplineSet
EndChar

StartChar: L
Encoding: 76 76 44
Width: 456
Flags: MW
HStem: 0 86<157 440> 698 20<187 267 267 267>
LayerCount: 2
Fore
SplineSet
267 718 m 1
 157 86 l 1
 455 86 l 1
 440 0 l 1
 62 0 l 1
 187 718 l 1
 267 718 l 1
EndSplineSet
EndChar

StartChar: M
Encoding: 77 77 45
Width: 683
Flags: MW
HStem: 0 20 698 20<185 299 299 299 636 749 749 749>
LayerCount: 2
Fore
SplineSet
624 0 m 1
 547 0 l 1
 621 424 l 1
 621 424 625 448 629 469 c 0
 633 487 643 547 655 609 c 1
 381 0 l 1
 303 0 l 1
 241 608 l 1
 230 544 222 490 218 470 c 1
 215 448 212 432 211 424 c 2
 137 0 l 1
 60 0 l 1
 185 718 l 1
 299 718 l 1
 362 108 l 1
 636 718 l 1
 749 718 l 1
 624 0 l 1
EndSplineSet
EndChar

StartChar: N
Encoding: 78 78 46
Width: 592
Flags: MW
HStem: 0 20 698 20<187 282 282 282 578 655 655 655>
LayerCount: 2
Fore
SplineSet
476 135 m 1
 578 718 l 1
 655 718 l 1
 530 0 l 1
 440 0 l 1
 241 583 l 1
 139 0 l 1
 62 0 l 1
 187 718 l 1
 282 718 l 1
 476 135 l 1
EndSplineSet
EndChar

StartChar: O
Encoding: 79 79 47
Width: 638
Flags: MW
HStem: -19 86<283.5 365.5> 651 86<398 482.5>
VStem: 86 83<217 322> 594 83<405.5 509>
LayerCount: 2
Fore
SplineSet
447 737 m 0
 593 737 677 634 677 456 c 0
 677 335 635 207 566 115 c 0
 499 26 415 -19 316 -19 c 0
 251 -19 193 3 156 42 c 0
 114 86 86 173 86 261 c 0
 86 383 128 512 196 603 c 0
 263 691 349 737 447 737 c 0
432 651 m 0
 287 651 169 482 169 274 c 0
 169 145 230 67 330 67 c 0
 415 67 491 121 540 216 c 0
 574 283 594 366 594 445 c 0
 594 573 533 651 432 651 c 0
EndSplineSet
EndChar

StartChar: P
Encoding: 80 80 48
Width: 547
Flags: MW
HStem: 0 20 303 83<203 376 218 376 376 388> 635 83<261 261 261 422>
VStem: 521 83<533 577.5>
LayerCount: 2
Fore
SplineSet
203 303 m 1
 150 0 l 1
 71 0 l 1
 196 718 l 1
 461 718 l 2
 549 718 604 659 604 565 c 0
 604 501 581 432 544 383 c 0
 504 330 451 303 388 303 c 2
 203 303 l 1
261 635 m 1
 218 386 l 1
 376 386 l 2
 429 386 466 404 491 440 c 0
 509 467 521 512 521 549 c 0
 521 606 487 635 422 635 c 2
 261 635 l 1
EndSplineSet
EndChar

StartChar: Q
Encoding: 81 81 49
Width: 638
Flags: MW
HStem: -19 86<283.5 345.5> 651 86<397.5 479.5 397.5 483>
VStem: 86 83<217 322.5> 594 83<416.5 500.5 416.5 508>
LayerCount: 2
Fore
SplineSet
601 2 m 1
 551 -56 l 1
 476 29 l 1
 422 -5 375 -19 316 -19 c 0
 251 -19 193 3 156 42 c 0
 113 87 86 173 86 261 c 0
 86 384 127 511 197 603 c 0
 264 692 348 737 447 737 c 0
 512 737 570 715 607 676 c 0
 650 631 677 545 677 456 c 0
 677 377 660 296 627 220 c 0
 602 162 582 132 534 78 c 1
 601 2 l 1
370 148 m 1
 421 208 l 1
 483 137 l 1
 521 179 538 206 558 255 c 0
 581 314 594 381 594 443 c 0
 594 573 533 651 433 651 c 0
 287 651 169 482 169 274 c 0
 169 145 230 67 331 67 c 0
 363 67 390 74 422 90 c 1
 370 148 l 1
EndSplineSet
EndChar

StartChar: T
Encoding: 84 84 52
Width: 501
Flags: MW
HStem: 0 20 632 86<122 615 137 321 401 401 401 600>
LayerCount: 2
Fore
SplineSet
122 632 m 1
 137 718 l 1
 615 718 l 1
 600 632 l 1
 401 632 l 1
 291 0 l 1
 211 0 l 1
 321 632 l 1
 122 632 l 1
EndSplineSet
EndChar

StartChar: V
Encoding: 86 86 54
Width: 547
Flags: MW
HStem: 0 20 698 20<142 231 231 231 567 656 656 656>
LayerCount: 2
Fore
SplineSet
292 103 m 1
 567 718 l 1
 656 718 l 1
 316 0 l 1
 232 0 l 1
 142 718 l 1
 231 718 l 1
 292 103 l 1
EndSplineSet
EndChar

StartChar: W
Encoding: 87 87 55
Width: 774
Flags: MW
HStem: 0 20 698 20<138 224 224 224 468 555 555 555 798 886 886 886>
LayerCount: 2
Fore
SplineSet
491 599 m 1
 250 0 l 1
 166 0 l 1
 138 718 l 1
 224 718 l 1
 232 130 l 1
 468 718 l 1
 555 718 l 1
 585 130 l 1
 798 718 l 1
 886 718 l 1
 606 0 l 1
 522 0 l 1
 491 599 l 1
EndSplineSet
EndChar

StartChar: X
Encoding: 88 88 56
Width: 547
Flags: MW
HStem: 0 20 698 20<154 254 254 254 552 647 647 647>
LayerCount: 2
Fore
SplineSet
389 368 m 1
 531 0 l 1
 433 0 l 1
 326 295 l 1
 112 0 l 1
 16 0 l 1
 290 368 l 1
 154 718 l 1
 254 718 l 1
 355 443 l 1
 552 718 l 1
 647 718 l 1
 389 368 l 1
EndSplineSet
EndChar

StartChar: Y
Encoding: 89 89 57
Width: 547
Flags: MW
HStem: 0 20 698 20<137 230 230 230 568 661 661 661>
LayerCount: 2
Fore
SplineSet
364 289 m 1
 314 0 l 1
 234 0 l 1
 284 289 l 1
 137 718 l 1
 230 718 l 1
 338 373 l 1
 568 718 l 1
 661 718 l 1
 364 289 l 1
EndSplineSet
EndChar

StartChar: Z
Encoding: 90 90 58
Width: 501
Flags: MW
HStem: 0 86<135 482> 632 86<171 490 156 607>
LayerCount: 2
Fore
SplineSet
497 86 m 1
 482 0 l 1
 19 0 l 1
 33 81 l 1
 490 632 l 1
 156 632 l 1
 171 718 l 1
 607 718 l 1
 592 634 l 1
 135 86 l 1
 497 86 l 1
EndSplineSet
EndChar

StartChar: bracketleft
Encoding: 91 91 59
Width: 228
Flags: MW
HStem: -196 71<94 171> 651 71<230 230 230 319>
LayerCount: 2
Fore
SplineSet
230 651 m 1
 94 -125 l 1
 183 -125 l 1
 171 -196 l 1
 17 -196 l 1
 177 722 l 1
 331 722 l 1
 319 651 l 1
 230 651 l 1
EndSplineSet
EndChar

StartChar: backslash
Encoding: 92 92 60
Width: 228
Flags: MW
HStem: -19 20 717 20<115 169 169 169>
LayerCount: 2
Fore
SplineSet
184 -19 m 1
 115 737 l 1
 169 737 l 1
 239 -19 l 1
 184 -19 l 1
EndSplineSet
EndChar

StartChar: bracketright
Encoding: 93 93 61
Width: 228
Flags: MW
HStem: -196 71<1 90 1 142 -11 90> 651 71<149 225 136 302>
LayerCount: 2
Fore
SplineSet
90 -125 m 1
 225 651 l 1
 136 651 l 1
 149 722 l 1
 302 722 l 1
 142 -196 l 1
 -11 -196 l 1
 1 -125 l 1
 90 -125 l 1
EndSplineSet
EndChar

StartChar: asciicircum
Encoding: 94 94 62
Width: 385
Flags: W
LayerCount: 2
Fore
SplineSet
442 264 m 1
 379 264 l 1
 299 608 l 1
 99 264 l 1
 35 264 l 1
 283 688 l 1
 342 688 l 1
 442 264 l 1
EndSplineSet
EndChar

StartChar: grave
Encoding: 193 96 123
Width: 273
Flags: MW
HStem: 714 20<139 228 228 228>
LayerCount: 2
Fore
SplineSet
221 593 m 1
 139 734 l 1
 228 734 l 1
 276 593 l 1
 221 593 l 1
EndSplineSet
EndChar

StartChar: a
Encoding: 97 97 65
Width: 456
Flags: W
HStem: -15 73<169.5 194.5> -10 20 465 73<283 326>
VStem: 50 77<100.5 153.5> 329 72<28 80.5> 384 74<418 421>
LayerCount: 2
Fore
SplineSet
180 364 m 1xb4
 114 364 l 1
 126 416 137 441 159 469 c 0
 193 513 250 538 316 538 c 0
 405 538 458 495 458 423 c 0x74
 458 413 457 402 455 392 c 2
 403 91 l 2
 402 85 401 81 401 80 c 0
 400 69 408 60 420 60 c 0
 426 60 433 61 446 64 c 1
 434 0 l 1
 425 -3 l 2
 409 -9 402 -10 391 -10 c 0
 351 -10 329 10 329 46 c 0x68
 329 51 330 61 331 70 c 1
 274 10 225 -15 164 -15 c 0
 93 -15 50 29 50 101 c 0
 50 206 115 286 212 300 c 2
 334 318 l 2
 366 323 384 353 384 400 c 0
 384 442 354 465 298 465 c 0
 235 465 203 438 180 364 c 1xb4
346 181 m 2x94
 361 267 l 1
 344 253 322 248 236 234 c 0
 160 221 127 187 127 121 c 0
 127 80 149 58 190 58 c 0
 263 58 335 114 346 181 c 2x94
EndSplineSet
EndChar

StartChar: b
Encoding: 98 98 66
Width: 456
Flags: MW
HStem: -15 76<217 264.5> 459 79<314.5 342> 698 20<173 245 245 245>
VStem: 404 75<314.5 383.5>
LayerCount: 2
Fore
SplineSet
116 0 m 1
 48 0 l 1
 173 718 l 1
 245 718 l 1
 199 455 l 1
 247 514 288 538 341 538 c 0
 426 538 479 468 479 355 c 0
 479 256 445 145 391 73 c 0
 348 15 295 -15 234 -15 c 0
 179 -15 149 8 128 68 c 1
 116 0 l 1
313 459 m 0
 266 459 227 431 200 378 c 0
 173 323 153 240 153 179 c 0
 153 107 189 61 245 61 c 0
 290 61 331 92 359 147 c 0
 386 199 404 281 404 348 c 0
 404 419 371 459 313 459 c 0
EndSplineSet
EndChar

StartChar: c
Encoding: 99 99 67
Width: 410
Flags: MW
HStem: -15 76<198.5 254.5 198.5 263.5> 459 79<288 320>
VStem: 61 78<141.5 212.5 141.5 220.5>
LayerCount: 2
Fore
SplineSet
452 347 m 1
 382 347 l 1
 381 384 381 387 377 403 c 0
 366 440 340 459 300 459 c 0
 252 459 211 429 182 372 c 0
 156 321 139 245 139 180 c 0
 139 103 170 61 227 61 c 0
 282 61 324 102 354 185 c 1
 424 185 l 1
 383 52 313 -15 214 -15 c 0
 119 -15 61 55 61 172 c 0
 61 269 94 375 145 443 c 0
 192 505 253 538 323 538 c 0
 404 538 454 482 454 390 c 0
 454 379 453 364 452 347 c 1
EndSplineSet
EndChar

StartChar: d
Encoding: 100 100 68
Width: 456
Flags: MW
HStem: -15 76<201 243> 459 79<275 328.5> 698 20<462 534 534 534>
VStem: 69 74<146.5 219.5 146.5 283>
LayerCount: 2
Fore
SplineSet
534 718 m 1
 409 0 l 1
 341 0 l 1
 354 75 l 1
 311 10 272 -15 214 -15 c 0
 121 -15 69 57 69 185 c 0
 69 381 171 538 300 538 c 0
 358 538 392 511 414 444 c 1
 462 718 l 1
 534 718 l 1
299 459 m 0
 251 459 209 430 185 380 c 0
 159 328 143 253 143 186 c 0
 143 107 174 61 228 61 c 0
 269 61 309 85 337 128 c 1
 366 170 387 257 387 334 c 0
 387 417 358 459 299 459 c 0
EndSplineSet
EndChar

StartChar: f
Encoding: 102 102 70
Width: 228
Flags: MW
HStem: 0 20 450 73<103 149 90 162 234 293 103 221> 649 79<283 301>
LayerCount: 2
Fore
SplineSet
293 450 m 1
 221 450 l 1
 143 0 l 1
 71 0 l 1
 149 450 l 1
 90 450 l 1
 103 523 l 1
 162 523 l 1
 177 613 l 2
 190 688 235 728 307 728 c 0
 315 728 319 728 341 726 c 1
 327 647 l 1
 314 648 304 649 298 649 c 0
 268 649 253 631 245 588 c 2
 234 523 l 1
 306 523 l 1
 293 450 l 1
EndSplineSet
EndChar

StartChar: g
Encoding: 103 103 71
Width: 456
Flags: MW
HStem: -220 73<160.5 210> -15 76<205 243> 459 79<278 331.5>
VStem: 72 74<146 219 146 282.5>
LayerCount: 2
Fore
SplineSet
500 523 m 1
 416 43 l 2
 402 -41 382 -93 350 -136 c 0
 309 -191 247 -220 173 -220 c 0
 130 -220 96 -209 72 -188 c 0
 44 -162 34 -133 34 -74 c 2
 34 -64 l 1
 106 -64 l 1
 109 -122 133 -147 188 -147 c 0
 238 -147 276 -128 302 -88 c 0
 321 -60 332 -27 343 37 c 1
 347 58 l 1
 309 7 270 -15 216 -15 c 0
 125 -15 72 58 72 184 c 0
 72 381 175 538 303 538 c 0
 361 538 391 514 418 446 c 1
 432 523 l 1
 500 523 l 1
302 459 m 0
 254 459 212 430 188 380 c 1
 162 329 146 253 146 185 c 0
 146 107 178 61 232 61 c 0
 272 61 313 85 341 128 c 1
 370 170 391 257 391 334 c 0
 391 417 361 459 302 459 c 0
EndSplineSet
EndChar

StartChar: h
Encoding: 104 104 72
Width: 456
Flags: MW
HStem: 0 20 459 79<322.5 350> 698 20<178 251 251 251>
VStem: 395 75<401.5 413.5>
LayerCount: 2
Fore
SplineSet
251 718 m 1
 204 451 l 1
 257 516 294 538 351 538 c 0
 426 538 470 491 470 410 c 0
 470 393 468 375 465 356 c 2
 403 0 l 1
 331 0 l 1
 390 342 l 2
 393 358 395 378 395 390 c 0
 395 437 373 459 327 459 c 0
 250 459 194 396 175 285 c 2
 125 0 l 1
 53 0 l 1
 178 718 l 1
 251 718 l 1
EndSplineSet
EndChar

StartChar: i
Encoding: 105 105 73
Width: 182
Flags: MW
HStem: 0 20 618 100<180 235 163 252>
LayerCount: 2
Fore
SplineSet
218 523 m 1
 127 0 l 1
 55 0 l 1
 146 523 l 1
 218 523 l 1
235 618 m 1
 163 618 l 1
 180 718 l 1
 252 718 l 1
 235 618 l 1
EndSplineSet
EndChar

StartChar: j
Encoding: 106 106 74
Width: 182
Flags: MW
HStem: -210 20 618 100<180 235 163 252>
LayerCount: 2
Fore
SplineSet
218 523 m 1
 114 -77 l 2
 98 -168 57 -210 -17 -210 c 0
 -28 -210 -38 -209 -49 -207 c 1
 -36 -131 l 1
 -21 -131 l 2
 25 -131 34 -122 43 -67 c 2
 146 523 l 1
 218 523 l 1
252 718 m 1
 235 618 l 1
 163 618 l 1
 180 718 l 1
 252 718 l 1
EndSplineSet
EndChar

StartChar: k
Encoding: 107 107 75
Width: 410
Flags: MW
HStem: 0 20 698 20<180 250 250 250>
LayerCount: 2
Fore
SplineSet
294 328 m 1
 411 0 l 1
 318 0 l 1
 231 264 l 1
 159 198 l 1
 125 0 l 1
 55 0 l 1
 180 718 l 1
 250 718 l 1
 177 302 l 1
 400 523 l 1
 492 523 l 1
 294 328 l 1
EndSplineSet
EndChar

StartChar: l
Encoding: 108 108 76
Width: 182
Flags: MW
HStem: 0 20 698 20<180 252 252 252>
LayerCount: 2
Fore
SplineSet
252 718 m 1
 127 0 l 1
 55 0 l 1
 180 718 l 1
 252 718 l 1
EndSplineSet
EndChar

StartChar: m
Encoding: 109 109 77
Width: 683
Flags: W
HStem: 0 20 459 79<319.5 336.5 564 581> 503 20<144 213 213 213>
VStem: 622 77<405.5 410.5>
LayerCount: 2
Fore
SplineSet
53 0 m 1xd0
 144 523 l 1
 213 523 l 1xb0
 199 446 l 1
 248 511 291 538 348 538 c 0
 401 538 430 513 446 453 c 1
 508 520 538 538 590 538 c 0
 658 538 699 491 699 414 c 0
 699 397 697 379 694 362 c 2
 631 0 l 1
 559 0 l 1
 618 338 l 2
 621 354 622 369 622 387 c 0
 622 434 601 459 561 459 c 0
 503 459 448 398 434 319 c 2
 378 0 l 1
 306 0 l 1
 369 362 l 2
 371 372 372 384 372 393 c 0
 372 436 353 459 320 459 c 0
 250 459 193 391 175 285 c 2
 125 0 l 1
 53 0 l 1xd0
EndSplineSet
EndChar

StartChar: n
Encoding: 110 110 78
Width: 456
Flags: W
HStem: 0 20 459 79<322.5 346> 503 20<144 212 212 212>
VStem: 392 78<401.5 407.5>
LayerCount: 2
Fore
SplineSet
212 523 m 1xb0
 199 446 l 1
 249 511 293 538 352 538 c 0
 426 538 470 490 470 410 c 0
 470 393 468 375 465 356 c 2
 403 0 l 1
 331 0 l 1
 387 322 l 2
 390 342 392 362 392 382 c 0
 392 433 369 459 323 459 c 0xd0
 250 459 194 393 175 285 c 2
 125 0 l 1
 53 0 l 1
 144 523 l 1
 212 523 l 1xb0
EndSplineSet
EndChar

StartChar: q
Encoding: 113 113 81
Width: 456
Flags: MW
HStem: -207 20 -15 76<201 239.5> 459 79<275 328>
VStem: 69 74<146.5 220 146.5 283>
LayerCount: 2
Fore
SplineSet
496 523 m 1
 369 -207 l 1
 297 -207 l 1
 343 58 l 1
 305 7 266 -15 213 -15 c 0
 121 -15 69 58 69 185 c 0
 69 381 171 538 300 538 c 0
 357 538 387 514 415 446 c 1
 428 523 l 1
 496 523 l 1
299 459 m 0
 251 459 210 431 184 380 c 0
 159 331 143 254 143 186 c 0
 143 107 174 61 228 61 c 0
 321 61 387 174 387 335 c 0
 387 417 357 459 299 459 c 0
EndSplineSet
EndChar

StartChar: r
Encoding: 114 114 82
Width: 273
Flags: W
HStem: 0 20 444 94<321.5 322 322 349> 503 20<154 222 222 222>
LayerCount: 2
Fore
SplineSet
349 444 m 1x40
 322 444 l 2x40
 259 444 202 385 188 304 c 2
 135 0 l 1
 63 0 l 1
 154 523 l 1
 222 523 l 1xa0
 206 433 l 1
 258 509 296 538 347 538 c 0
 354 538 359 537 365 535 c 1
 349 444 l 1x40
EndSplineSet
EndChar

StartChar: s
Encoding: 115 115 83
Width: 410
Flags: W
HStem: -15 76<188 237.5> 462 76<250 307>
VStem: 52 72<114 122> 103 74<359 397> 335 76<168 172> 364 70<404 417>
LayerCount: 2
Fore
SplineSet
432 374 m 1xd4
 362 374 l 1
 363 383 364 391 364 396 c 0
 364 438 333 462 281 462 c 0
 219 462 177 425 177 372 c 0xd4
 177 346 191 335 243 318 c 2
 312 296 l 2
 382 273 411 242 411 189 c 0
 411 147 394 97 367 62 c 0
 328 12 271 -15 204 -15 c 0
 107 -15 52 33 52 116 c 0
 52 128 53 147 56 168 c 1
 126 168 l 1
 125 157 124 147 124 139 c 0
 124 89 158 61 218 61 c 0
 286 61 335 101 335 158 c 0xe8
 335 186 316 202 261 219 c 2
 182 244 l 2
 129 261 103 293 103 342 c 0
 103 452 189 538 298 538 c 0
 382 538 434 489 434 408 c 0
 434 400 433 388 432 374 c 1xd4
EndSplineSet
EndChar

StartChar: t
Encoding: 116 116 84
Width: 228
Flags: MW
HStem: -7 20 450 73<103 148 90 161 233 289 103 220>
VStem: 84 76<40.5 100.5>
LayerCount: 2
Fore
SplineSet
289 450 m 1
 220 450 l 1
 161 110 l 2
 160 106 160 103 160 98 c 0
 160 77 171 69 197 69 c 2
 223 69 l 1
 211 0 l 1
 194 -2 189 -3 177 -4 c 0
 163 -6 157 -7 151 -7 c 0
 108 -7 84 18 84 63 c 0
 84 76 85 91 88 105 c 2
 148 450 l 1
 90 450 l 1
 103 523 l 1
 161 523 l 1
 186 669 l 1
 259 669 l 1
 233 523 l 1
 302 523 l 1
 289 450 l 1
EndSplineSet
EndChar

StartChar: v
Encoding: 118 118 86
Width: 410
Flags: MW
HStem: 0 20 503 20<98 182 182 182 416 495 495 495>
LayerCount: 2
Fore
SplineSet
219 94 m 1
 416 523 l 1
 495 523 l 1
 241 0 l 1
 163 0 l 1
 98 523 l 1
 182 523 l 1
 219 94 l 1
EndSplineSet
EndChar

StartChar: w
Encoding: 119 119 87
Width: 592
Flags: MW
HStem: 0 20 503 20<103 182 182 182 348 429 429 429 601 673 673 673>
LayerCount: 2
Fore
SplineSet
366 409 m 1
 210 0 l 1
 136 0 l 1
 103 523 l 1
 182 523 l 1
 192 108 l 1
 348 523 l 1
 429 523 l 1
 441 108 l 1
 601 523 l 1
 673 523 l 1
 457 0 l 1
 383 0 l 1
 366 409 l 1
EndSplineSet
EndChar

StartChar: x
Encoding: 120 120 88
Width: 410
Flags: MW
HStem: 0 20 503 20<107 200 200 200 399 487 487 487>
LayerCount: 2
Fore
SplineSet
298 269 m 1
 402 0 l 1
 310 0 l 1
 238 197 l 1
 100 0 l 1
 9 0 l 1
 207 269 l 1
 107 523 l 1
 200 523 l 1
 267 339 l 1
 399 523 l 1
 487 523 l 1
 298 269 l 1
EndSplineSet
EndChar

StartChar: y
Encoding: 121 121 89
Width: 410
Flags: MW
HStem: -214 79<60.5 83 60.5 89> 503 20<100 182 182 182 412 492 492 492>
LayerCount: 2
Fore
SplineSet
222 94 m 1
 412 523 l 1
 492 523 l 1
 248 10 l 1
 148 -195 131 -214 47 -214 c 0
 35 -214 31 -213 18 -208 c 2
 15 -207 l 1
 12 -206 l 1
 26 -126 l 1
 40 -132 53 -135 68 -135 c 0
 98 -135 113 -121 138 -68 c 1
 165 -14 l 1
 100 523 l 1
 182 523 l 1
 222 94 l 1
EndSplineSet
EndChar

StartChar: z
Encoding: 122 122 90
Width: 410
Flags: MW
HStem: 0 73<134 384> 450 73<136 362 123 468>
LayerCount: 2
Fore
SplineSet
455 451 m 1
 134 73 l 1
 397 73 l 1
 384 0 l 1
 25 0 l 1
 37 69 l 1
 362 450 l 1
 123 450 l 1
 136 523 l 1
 468 523 l 1
 455 451 l 1
EndSplineSet
EndChar

StartChar: braceleft
Encoding: 123 123 91
Width: 274
Flags: W
HStem: -196 65<131 216 180 205> 657 65<310 318 318 354>
VStem: 86 67<-102 -96> 122 67<148 164.5>
LayerCount: 2
Fore
SplineSet
75 234 m 1xd0
 85 294 l 1
 124 295 161 347 174 421 c 2
 204 593 l 2
 217 667 262 722 310 722 c 2
 365 722 l 1
 354 657 l 1
 318 657 l 2
 293 657 275 629 266 575 c 2
 236 405 l 2
 226 344 179 277 137 264 c 1
 171 246 189 209 189 155 c 0xd0
 189 141 188 131 186 120 c 2
 157 -49 l 2
 154 -64 153 -77 153 -88 c 0
 153 -116 163 -131 180 -131 c 2
 216 -131 l 1
 205 -196 l 1
 150 -196 l 2
 112 -196 86 -158 86 -103 c 0xe0
 86 -89 87 -79 89 -67 c 2
 119 104 l 2
 121 118 122 129 122 149 c 0
 122 180 112 214 99 225 c 0
 94 230 87 232 75 234 c 1xd0
EndSplineSet
EndChar

StartChar: bar
Encoding: 124 124 92
Width: 213
Flags: MW
HStem: -19 20 717 20<205 265 265 265>
LayerCount: 2
Fore
SplineSet
74 -19 m 1
 205 737 l 1
 265 737 l 1
 134 -19 l 1
 74 -19 l 1
EndSplineSet
EndChar

StartChar: braceright
Encoding: 125 125 93
Width: 274
Flags: W
HStem: -196 65<11 48 48 55 0 48> 657 65<160 185 149 215>
VStem: 176 67<362.5 378> 213 67<623.5 628.5>
LayerCount: 2
Fore
SplineSet
291 294 m 1xe0
 281 234 l 1
 242 233 206 180 191 104 c 1
 161 -67 l 2
 149 -140 103 -196 55 -196 c 2
 0 -196 l 1
 11 -131 l 1
 48 -131 l 2
 72 -131 90 -102 100 -49 c 2
 129 120 l 2
 140 185 184 248 229 264 c 1
 196 279 176 320 176 373 c 0xe0
 176 383 177 394 179 405 c 2
 209 575 l 2
 211 591 213 606 213 615 c 0
 213 642 203 657 185 657 c 2
 149 657 l 1
 160 722 l 1
 215 722 l 2
 254 722 280 684 280 629 c 0xd0
 280 618 279 605 277 593 c 2
 247 421 l 2
 244 407 243 393 243 378 c 0
 243 347 253 315 266 303 c 0
 272 298 278 296 291 294 c 1xe0
EndSplineSet
EndChar

StartChar: asciitilde
Encoding: 126 126 94
Width: 479
Flags: W
HStem: 181 73<367 377.5> 249 73<186 208>
LayerCount: 2
Fore
SplineSet
441 305 m 1x80
 476 267 l 1
 431 205 398 181 357 181 c 0x80
 333 181 313 190 280 214 c 0
 246 239 222 249 194 249 c 0
 168 249 149 236 124 200 c 1
 91 236 l 1
 129 296 164 322 208 322 c 0x40
 235 322 254 314 315 277 c 0
 340 263 361 254 373 254 c 0
 394 254 412 268 441 305 c 1x80
EndSplineSet
EndChar

StartChar: exclamdown
Encoding: 161 161 95
Width: 273
Flags: MW
HStem: 421 102<170 267 188 249>
LayerCount: 2
Fore
SplineSet
170 421 m 1
 188 523 l 1
 267 523 l 1
 249 421 l 1
 170 421 l 1
178 352 m 1
 218 352 l 1
 183 42 l 1
 142 -195 l 1
 63 -195 l 1
 104 42 l 1
 178 352 l 1
EndSplineSet
EndChar

StartChar: cent
Encoding: 162 162 96
Width: 456
Flags: W
HStem: -19 76<235.5 275.5 235.5 284> -12 20 462 76<302.5 328> 512 20<372 372>
VStem: 78 74<164.5 218>
LayerCount: 2
Fore
SplineSet
478 345 m 1x18
 411 345 l 1
 409 405 399 432 373 447 c 1
 215 61 l 1
 224 58 229 57 242 57 c 0
 309 57 346 90 383 183 c 1
 453 183 l 1
 411 52 334 -19 234 -19 c 0xa8
 222 -19 214 -18 184 -12 c 1
 141 -115 l 1
 107 -115 l 1
 155 -1 l 1
 134 15 123 25 114 37 c 0
 92 69 78 120 78 169 c 0
 78 267 113 381 163 447 c 1
 210 507 268 538 337 538 c 0x68
 353 538 363 536 372 532 c 1
 409 623 l 1
 441 623 l 1
 403 523 l 1
 453 499 479 450 479 379 c 0
 479 370 479 359 478 345 c 1x18
187 78 m 1
 343 459 l 1
 337 461 332 462 324 462 c 0
 277 462 240 440 209 393 c 0
 178 345 152 254 152 190 c 0
 152 139 163 103 187 78 c 1
EndSplineSet
EndChar

StartChar: sterling
Encoding: 163 163 97
Width: 456
Flags: W
HStem: -16 83<352 354.5> -11 20 317 63<93 150 93 170 82 150 246 360 246 246> 642 76<315.5 381.5>
VStem: 135 79<476 531 476 543.5> 445 75<546.5 568>
LayerCount: 2
Fore
SplineSet
233 380 m 1x7c
 371 380 l 1
 360 317 l 1
 246 317 l 1
 247 310 247 303 247 300 c 0
 247 276 243 250 237 229 c 0
 219 168 180 119 105 61 c 1
 154 90 188 102 225 102 c 0
 246 102 269 96 304 82 c 0
 330 72 347 67 357 67 c 0
 378 67 403 78 426 98 c 1
 448 32 l 1
 403 -3 372 -16 337 -16 c 0xac
 318 -16 298 -10 262 5 c 0
 221 22 194 29 172 29 c 0
 143 29 112 17 68 -11 c 1
 40 58 l 1
 93 98 117 124 142 167 c 0
 165 205 175 237 175 269 c 0
 175 282 174 294 170 317 c 1
 82 317 l 1
 93 380 l 1
 150 380 l 1
 138 431 135 452 135 477 c 0
 135 610 241 718 371 718 c 0
 467 718 520 660 520 555 c 0
 520 538 519 521 516 505 c 2
 513 490 l 1
 441 490 l 1
 442 499 l 2
 444 511 445 519 445 535 c 0
 445 601 410 642 353 642 c 0
 278 642 214 572 214 490 c 0
 214 462 219 436 233 380 c 1x7c
EndSplineSet
EndChar

StartChar: currency
Encoding: 168 164 102
Width: 456
Flags: MW
HStem: 102 70<225 270> 528 70<309.5 352.5>
VStem: 83 62<277 333> 433 62<369.5 426.5 369.5 427.5>
LayerCount: 2
Fore
SplineSet
499 603 m 1
 530 555 l 1
 475 501 l 1
 490 467 495 445 495 408 c 0
 495 331 471 263 423 200 c 1
 458 144 l 1
 413 99 l 1
 378 157 l 1
 333 119 294 102 246 102 c 0
 198 102 164 118 133 157 c 1
 78 99 l 1
 49 144 l 1
 103 200 l 1
 88 235 83 259 83 295 c 0
 83 371 108 443 156 501 c 1
 120 555 l 1
 168 603 l 1
 205 547 l 1
 247 582 287 598 332 598 c 0
 377 598 411 582 443 547 c 1
 499 603 l 1
320 528 m 0
 231 528 145 423 145 313 c 0
 145 231 192 172 258 172 c 0
 346 172 433 278 433 387 c 0
 433 468 385 528 320 528 c 0
EndSplineSet
EndChar

StartChar: yen
Encoding: 165 165 99
Width: 456
Flags: MW
HStem: 0 20 185 57<77 224 67 234 306 454> 327 57<92 228 102 228 102 249 362 479>
LayerCount: 2
Fore
SplineSet
92 327 m 1
 102 384 l 1
 228 384 l 1
 123 688 l 1
 204 688 l 1
 296 393 l 1
 491 688 l 1
 573 688 l 1
 362 384 l 1
 489 384 l 1
 479 327 l 1
 321 327 l 1
 306 242 l 1
 464 242 l 1
 454 185 l 1
 296 185 l 1
 264 0 l 1
 192 0 l 1
 224 185 l 1
 67 185 l 1
 77 242 l 1
 234 242 l 1
 249 327 l 1
 92 327 l 1
EndSplineSet
EndChar

StartChar: brokenbar
Encoding: 420 166 313
Width: 213
Flags: MW
HStem: -19 20 717 20<205 265 265 265>
LayerCount: 2
Fore
SplineSet
74 -19 m 1
 125 275 l 1
 185 275 l 1
 134 -19 l 1
 74 -19 l 1
157 460 m 1
 205 737 l 1
 265 737 l 1
 217 460 l 1
 157 460 l 1
EndSplineSet
EndChar

StartChar: section
Encoding: 167 167 101
Width: 456
Flags: W
HStem: -191 76<180.5 230 180.5 240.5> 661 76<328.5 363.5>
VStem: 63 73<-66 -54> 87 72<294 298.5> 175 76<552.5 560> 302 74<-45 -5.5> 393 73<221 305.5> 407 72<605 613.5>
LayerCount: 2
Fore
SplineSet
474 554 m 1xdd
 404 554 l 1
 406 569 407 582 407 592 c 0xd1
 407 635 383 661 344 661 c 0
 293 661 251 618 251 566 c 0
 251 539 265 516 296 490 c 2
 401 404 l 2
 447 366 466 330 466 281 c 0
 466 239 452 193 429 159 c 0
 410 131 392 113 350 84 c 1
 370 50 376 30 376 1 c 0
 376 -102 290 -191 191 -191 c 0
 113 -191 63 -140 63 -61 c 0
 63 -47 65 -26 68 -3 c 1
 140 -3 l 1
 137 -19 136 -33 136 -43 c 0xee
 136 -89 160 -115 201 -115 c 0
 259 -115 302 -73 302 -17 c 0
 302 6 292 25 269 47 c 2
 122 187 l 2
 100 208 87 241 87 279 c 0
 87 318 102 366 124 399 c 0
 142 425 159 440 199 467 c 1
 181 499 175 516 175 540 c 0
 175 580 194 632 222 668 c 1
 255 713 302 737 355 737 c 0
 431 737 479 689 479 612 c 0
 479 598 477 577 474 554 c 1xdd
184 246 m 2
 317 124 l 1
 372 163 393 197 393 245 c 0xc2
 393 274 381 301 357 321 c 2
 233 428 l 1
 182 397 159 359 159 307 c 0
 159 281 167 261 184 246 c 2
EndSplineSet
EndChar

StartChar: dieresis
Encoding: 200 168 130
Width: 273
Flags: MW
HStem: 604 102<156 213 138 230 156 271 288 345>
LayerCount: 2
Fore
SplineSet
230 706 m 1
 213 604 l 1
 138 604 l 1
 156 706 l 1
 230 706 l 1
363 706 m 1
 345 604 l 1
 271 604 l 1
 288 706 l 1
 363 706 l 1
EndSplineSet
EndChar

StartChar: copyright
Encoding: 409 169 302
Width: 604
Flags: MW
HStem: -19 63<250 393 250 399.5> 128 66<319 374 319 374.5> 526 66<361.5 429.5> 674 63<337 480.5>
VStem: 44 63<214.5 389 214.5 399> 189 64<280.5 375.5 280.5 382.5> 624 63<328.5 502.5>
LayerCount: 2
Fore
SplineSet
462 289 m 1
 517 289 l 1
 478 184 415 128 334 128 c 0
 246 128 189 197 189 303 c 0
 189 462 290 592 413 592 c 0
 476 592 520 559 536 501 c 0
 541 481 542 477 542 435 c 1
 487 435 l 1
 484 496 456 526 403 526 c 0
 320 526 253 433 253 318 c 0
 253 243 290 194 348 194 c 0
 400 194 441 228 462 289 c 1
433 737 m 0
 581 737 687 613 687 439 c 0
 687 199 502 -19 297 -19 c 0
 150 -19 44 106 44 279 c 0
 44 519 229 737 433 737 c 0
420 674 m 0
 254 674 107 492 107 286 c 0
 107 143 190 44 310 44 c 0
 476 44 624 227 624 430 c 0
 624 575 541 674 420 674 c 0
EndSplineSet
EndChar

StartChar: ordfeminine
Encoding: 227 170 138
Width: 303
Flags: MW
HStem: 304 48<90 324 82 333> 405 52<186 199.5> 685 52<241.5 279>
VStem: 105 54<480.5 509.5 480.5 509.5> 316 52<640.5 688.5>
LayerCount: 2
Fore
SplineSet
363 454 m 1
 355 410 l 1
 349 408 l 1
 339 406 334 405 327 405 c 0
 301 405 287 417 287 439 c 0
 287 445 287 450 288 456 c 1
 251 420 219 405 180 405 c 0
 134 405 105 433 105 477 c 0
 105 542 148 589 216 598 c 2
 290 608 l 2
 305 610 316 629 316 652 c 0
 316 673 296 685 262 685 c 0
 221 685 199 670 188 632 c 1
 144 632 l 1
 161 704 202 737 274 737 c 0
 333 737 368 711 368 666 c 0
 368 661 367 655 366 649 c 2
 335 471 l 1
 335 464 l 2
 335 456 339 452 347 452 c 0
 350 452 355 453 363 454 c 1
296 531 m 2
 303 570 l 1
 295 563 279 558 224 550 c 0
 176 543 159 527 159 492 c 0
 159 469 173 457 199 457 c 0
 247 457 289 489 296 531 c 2
90 352 m 1
 333 352 l 1
 324 304 l 1
 82 304 l 1
 90 352 l 1
EndSplineSet
EndChar

StartChar: guillemotleft
Encoding: 171 171 105
Width: 456
Flags: W
LayerCount: 2
Fore
SplineSet
243 196 m 1
 227 108 l 1
 120 231 l 1
 136 323 l 1
 286 446 l 1
 271 358 l 1
 171 277 l 1
 243 196 l 1
410 196 m 1
 395 108 l 1
 288 231 l 1
 304 323 l 1
 454 446 l 1
 439 358 l 1
 339 277 l 1
 410 196 l 1
EndSplineSet
EndChar

StartChar: logicalnot
Encoding: 417 172 310
Width: 479
Flags: MW
HStem: 317 73<100 442 87 515>
LayerCount: 2
Fore
SplineSet
406 108 m 1
 442 317 l 1
 87 317 l 1
 100 390 l 1
 515 390 l 1
 466 108 l 1
 406 108 l 1
EndSplineSet
EndChar

StartChar: registered
Encoding: 410 174 303
Width: 604
Flags: MW
HStem: -19 63<250 393 250 399.5> 330 56<296 370 305 358> 521 56<329 403 329 329> 674 63<337 480.5>
VStem: 44 63<214.5 389 214.5 399> 471 58<466 489> 624 63<328.5 502.5>
LayerCount: 2
Fore
SplineSet
296 330 m 1
 263 141 l 1
 208 141 l 1
 284 577 l 1
 421 577 l 2
 494 577 529 548 529 488 c 0
 529 444 514 399 490 373 c 0
 470 351 450 340 412 333 c 1
 480 141 l 1
 419 141 l 1
 358 330 l 1
 296 330 l 1
305 386 m 1
 370 386 l 2
 411 386 432 392 447 407 c 0
 461 421 471 448 471 473 c 0
 471 505 449 521 403 521 c 2
 329 521 l 1
 305 386 l 1
433 737 m 0
 581 737 687 613 687 439 c 0
 687 199 502 -19 297 -19 c 0
 150 -19 44 106 44 279 c 0
 44 519 229 737 433 737 c 0
420 674 m 0
 254 674 107 492 107 286 c 0
 107 143 190 44 310 44 c 0
 476 44 624 227 624 430 c 0
 624 575 541 674 420 674 c 0
EndSplineSet
EndChar

StartChar: macron
Encoding: 197 175 127
Width: 273
Flags: MW
HStem: 627 57<127 374 117 384>
LayerCount: 2
Fore
SplineSet
384 684 m 1
 374 627 l 1
 117 627 l 1
 127 684 l 1
 384 684 l 1
EndSplineSet
EndChar

StartChar: degree
Encoding: 399 176 292
Width: 328
Flags: MW
HStem: 411 43<225 267.5 225 275> 660 43<254.5 297>
VStem: 138 41<513.5 567 513.5 572> 343 41<547 600>
LayerCount: 2
Fore
SplineSet
287 703 m 0
 344 703 384 657 384 589 c 0
 384 495 314 411 236 411 c 0
 178 411 138 457 138 525 c 0
 138 619 208 703 287 703 c 0
279 660 m 0
 230 660 179 597 179 537 c 0
 179 490 207 454 243 454 c 0
 292 454 343 517 343 577 c 0
 343 623 315 660 279 660 c 0
EndSplineSet
EndChar

StartChar: plusminus
Encoding: 404 177 297
Width: 479
Flags: MW
HStem: 0 73<32 460 45 447> 272 73<92 257 79 270 330 494 92 317>
LayerCount: 2
Fore
SplineSet
270 345 m 1
 308 561 l 1
 368 561 l 1
 330 345 l 1
 507 345 l 1
 494 272 l 1
 317 272 l 1
 289 111 l 1
 229 111 l 1
 257 272 l 1
 79 272 l 1
 92 345 l 1
 270 345 l 1
32 0 m 1
 45 73 l 1
 460 73 l 1
 447 0 l 1
 32 0 l 1
EndSplineSet
EndChar

StartChar: twosuperior
Encoding: 397 178 290
Width: 273
Flags: MW
HStem: 281 61<124 314> 656 58<248 270>
VStem: 311 57<590 617>
LayerCount: 2
Fore
SplineSet
161 552 m 1
 112 552 l 1
 123 610 136 641 163 669 c 0
 190 698 228 714 268 714 c 0
 329 714 368 671 368 605 c 0
 368 569 357 535 337 508 c 0
 318 482 295 464 243 435 c 2
 202 412 l 2
 166 391 143 371 124 342 c 1
 325 342 l 1
 314 281 l 1
 52 281 l 1
 69 359 104 410 167 448 c 2
 222 481 l 2
 272 511 283 519 294 537 c 0
 304 552 311 580 311 600 c 0
 311 634 288 656 252 656 c 0
 205 656 177 624 161 552 c 1
EndSplineSet
EndChar

StartChar: threesuperior
Encoding: 398 179 291
Width: 273
Flags: W
HStem: 270 58<169.5 217 169.5 223.5> 482 51<197 207 188 219> 656 58<221.5 261>
VStem: 74 56<371.5 387.5> 281 59<398.5 448> 299 59<599 626>
LayerCount: 2
Fore
SplineSet
76 421 m 1xf8
 132 421 l 1
 131 410 130 400 130 393 c 0
 130 350 150 328 189 328 c 0
 245 328 281 368 281 429 c 0xf8
 281 467 260 482 207 482 c 2
 188 482 l 1
 197 533 l 1
 219 533 l 2
 268 533 299 564 299 612 c 0
 299 640 279 656 243 656 c 0
 200 656 176 633 162 576 c 1
 112 576 l 1
 132 668 181 714 258 714 c 0
 320 714 358 680 358 625 c 0xe4
 358 573 332 532 290 515 c 1
 327 500 340 481 340 442 c 0
 340 346 269 270 178 270 c 0
 112 270 74 312 74 383 c 0
 74 392 75 406 76 421 c 1xf8
EndSplineSet
EndChar

StartChar: acute
Encoding: 194 180 124
Width: 273
Flags: MW
HStem: 714 20<301 390 390 390>
LayerCount: 2
Fore
SplineSet
390 734 m 1
 258 593 l 1
 203 593 l 1
 301 734 l 1
 390 734 l 1
EndSplineSet
EndChar

StartChar: paragraph
Encoding: 182 182 114
Width: 440
Flags: MW
HStem: 658 60<365 462 365 365>
LayerCount: 2
Fore
SplineSet
160 -173 m 1
 250 344 l 1
 211 346 193 350 171 363 c 0
 127 388 103 433 103 490 c 0
 103 543 122 601 152 640 c 0
 191 691 252 718 329 718 c 2
 533 718 l 1
 377 -173 l 1
 317 -173 l 1
 462 658 l 1
 365 658 l 1
 219 -173 l 1
 160 -173 l 1
EndSplineSet
EndChar

StartChar: periodcentered
Encoding: 180 183 113
Width: 228
Flags: W
LayerCount: 2
Fore
SplineSet
170 315 m 0
 193 315 211 293 211 264 c 0
 211 227 179 190 147 190 c 0
 124 190 106 211 106 239 c 0
 106 278 137 315 170 315 c 0
EndSplineSet
EndChar

StartChar: cedilla
Encoding: 203 184 132
Width: 273
Flags: MW
HStem: -225 47<64.5 88.5 64 109>
VStem: 127 64<-143 -119>
LayerCount: 2
Fore
SplineSet
50 -86 m 1
 118 0 l 1
 156 0 l 1
 108 -62 l 1
 121 -59 127 -58 135 -58 c 0
 170 -58 191 -80 191 -116 c 0
 191 -177 141 -225 77 -225 c 0
 52 -225 31 -219 2 -203 c 1
 23 -163 l 1
 44 -174 56 -178 72 -178 c 0
 105 -178 127 -158 127 -128 c 0
 127 -110 113 -97 94 -97 c 0
 87 -97 78 -99 61 -105 c 1
 50 -86 l 1
EndSplineSet
EndChar

StartChar: onesuperior
Encoding: 396 185 289
Width: 273
Flags: W
LayerCount: 2
Fore
SplineSet
225 577 m 1
 136 577 l 1
 144 623 l 1
 215 628 234 641 259 703 c 1
 305 703 l 1
 231 281 l 1
 173 281 l 1
 225 577 l 1
EndSplineSet
EndChar

StartChar: ordmasculine
Encoding: 235 186 142
Width: 299
Flags: MW
HStem: 304 48<90 325 82 333> 405 52<211 244> 685 52<254 289>
VStem: 116 56<508 549 508 583.5> 328 56<593 634>
LayerCount: 2
Fore
SplineSet
279 737 m 0
 346 737 384 695 384 621 c 0
 384 565 364 499 337 463 c 0
 308 426 267 405 221 405 c 0
 154 405 116 447 116 520 c 0
 116 647 184 737 279 737 c 0
270 685 m 0
 238 685 213 667 196 633 c 1
 181 606 172 565 172 533 c 0
 172 483 192 457 230 457 c 0
 262 457 287 475 304 509 c 0
 319 537 328 577 328 609 c 0
 328 659 308 685 270 685 c 0
90 352 m 1
 333 352 l 1
 325 304 l 1
 82 304 l 1
 90 352 l 1
EndSplineSet
EndChar

StartChar: guillemotright
Encoding: 187 187 119
Width: 456
Flags: W
LayerCount: 2
Fore
SplineSet
248 231 m 1
 98 108 l 1
 113 196 l 1
 214 277 l 1
 142 358 l 1
 157 446 l 1
 265 323 l 1
 248 231 l 1
417 231 m 1
 266 108 l 1
 282 196 l 1
 382 277 l 1
 310 358 l 1
 325 446 l 1
 433 323 l 1
 417 231 l 1
EndSplineSet
EndChar

StartChar: onequarter
Encoding: 406 188 299
Width: 684
Flags: MW
HStem: -19 20 94 58<421 529 421 581 591 636>
LayerCount: 2
Fore
SplineSet
360 94 m 1
 370 154 l 1
 586 422 l 1
 639 422 l 1
 591 152 l 1
 646 152 l 1
 636 94 l 1
 581 94 l 1
 565 0 l 1
 513 0 l 1
 529 94 l 1
 360 94 l 1
539 152 m 1
 572 342 l 1
 421 152 l 1
 539 152 l 1
658 703 m 1
 170 -19 l 1
 123 -19 l 1
 611 703 l 1
 658 703 l 1
250 580 m 1
 161 580 l 1
 168 623 l 1
 239 628 258 641 283 703 c 1
 327 703 l 1
 253 281 l 1
 197 281 l 1
 250 580 l 1
EndSplineSet
EndChar

StartChar: onehalf
Encoding: 405 189 298
Width: 684
Flags: W
HStem: -19 20 0 61<444 634> 375 58<568 590>
VStem: 631 57<309 336>
LayerCount: 2
Fore
SplineSet
629 703 m 1xb0
 140 -19 l 1
 93 -19 l 1
 582 703 l 1
 629 703 l 1xb0
224 577 m 1
 135 577 l 1
 143 623 l 1
 215 628 233 641 258 703 c 1
 304 703 l 1
 231 281 l 1
 172 281 l 1
 224 577 l 1
481 271 m 1
 432 271 l 1
 444 330 457 360 483 388 c 0
 510 417 548 433 588 433 c 0
 649 433 688 390 688 324 c 0
 688 289 677 254 657 227 c 0
 638 201 615 183 563 154 c 2
 522 131 l 1
 487 110 463 90 444 61 c 1
 645 61 l 1
 634 0 l 1
 372 0 l 1x70
 389 78 424 129 487 167 c 2
 542 200 l 2
 592 230 603 239 614 256 c 0
 624 271 631 299 631 319 c 0
 631 353 608 375 572 375 c 0
 525 375 497 343 481 271 c 1
EndSplineSet
EndChar

StartChar: threequarters
Encoding: 407 190 300
Width: 684
Flags: W
HStem: -19 20 94 58<465 573 465 625 635 680> 270 58<201.5 249 201.5 255.5> 482 51<229 239 220 251> 656 58<253.5 293>
VStem: 106 56<371.5 387.5> 313 59<398.5 448> 331 59<599 626>
LayerCount: 2
Fore
SplineSet
404 94 m 1xfe
 414 154 l 1
 630 422 l 1
 682 422 l 1
 635 152 l 1
 690 152 l 1
 680 94 l 1
 625 94 l 1
 609 0 l 1
 556 0 l 1
 573 94 l 1
 404 94 l 1xfe
616 342 m 1
 465 152 l 1
 583 152 l 1
 616 342 l 1
706 703 m 1
 218 -19 l 1
 171 -19 l 1
 659 703 l 1
 706 703 l 1
108 421 m 1
 164 421 l 1
 163 410 162 400 162 393 c 0
 162 350 182 328 221 328 c 0
 277 328 313 368 313 429 c 0xfe
 313 467 292 482 239 482 c 2
 220 482 l 1
 229 533 l 1
 251 533 l 2
 300 533 331 564 331 612 c 0
 331 640 311 656 275 656 c 0
 232 656 208 633 194 576 c 1
 144 576 l 1
 164 668 213 714 290 714 c 0
 352 714 390 681 390 625 c 0xf9
 390 573 365 532 322 515 c 1
 359 500 372 480 372 443 c 0
 372 346 301 270 210 270 c 0
 144 270 106 312 106 383 c 0
 106 392 107 406 108 421 c 1
EndSplineSet
EndChar

StartChar: questiondown
Encoding: 191 191 122
Width: 501
Flags: MW
HStem: -201 76<204 241> 423 102<291 388 309 371>
VStem: 70 78<-65.5 -27.5>
LayerCount: 2
Fore
SplineSet
366 33 m 1
 438 33 l 1
 419 -56 403 -92 366 -132 c 1
 323 -176 269 -201 213 -201 c 0
 127 -201 70 -142 70 -50 c 0
 70 -5 82 40 103 74 c 1
 118 96 138 120 180 160 c 0
 255 232 268 255 283 343 c 1
 355 343 l 1
 336 238 320 210 240 128 c 0
 194 81 178 63 169 46 c 0
 156 24 148 -8 148 -38 c 0
 148 -93 178 -125 230 -125 c 0
 302 -125 345 -75 366 33 c 1
291 423 m 1
 309 525 l 1
 388 525 l 1
 371 423 l 1
 291 423 l 1
EndSplineSet
EndChar

StartChar: Aacute
Encoding: 257 193 150
Width: 547
Flags: MW
HStem: 0 20 209 86<231 414 231 427 191 414> 698 20<358 448 448 448>
LayerCount: 2
Fore
SplineSet
427 209 m 1
 191 209 l 1
 93 0 l 1
 11 0 l 1
 358 718 l 1
 448 718 l 1
 536 0 l 1
 449 0 l 1
 427 209 l 1
231 295 m 1
 414 295 l 1
 381 614 l 1
 231 295 l 1
561 929 m 1
 429 788 l 1
 374 788 l 1
 472 929 l 1
 561 929 l 1
EndSplineSet
EndChar

StartChar: Acircumflex
Encoding: 259 194 152
Width: 547
Flags: MW
HStem: 0 20 209 86<231 414 231 427 191 414> 698 20<358 448 448 448>
LayerCount: 2
Fore
SplineSet
427 209 m 1
 191 209 l 1
 93 0 l 1
 11 0 l 1
 358 718 l 1
 448 718 l 1
 536 0 l 1
 449 0 l 1
 427 209 l 1
231 295 m 1
 414 295 l 1
 381 614 l 1
 231 295 l 1
427 881 m 1
 357 788 l 1
 292 788 l 1
 398 929 l 1
 474 929 l 1
 530 788 l 1
 465 788 l 1
 427 881 l 1
EndSplineSet
EndChar

StartChar: Atilde
Encoding: 261 195 154
Width: 547
Flags: W
HStem: 0 20 209 86<231 414 231 427 191 414> 698 20<358 448 448 448> 808 63<480.5 493.5> 845 63<352.5 364>
LayerCount: 2
Fore
SplineSet
427 209 m 1xe0
 191 209 l 1
 93 0 l 1
 11 0 l 1
 358 718 l 1
 448 718 l 1
 536 0 l 1
 449 0 l 1
 427 209 l 1xe0
231 295 m 1
 414 295 l 1
 381 614 l 1
 231 295 l 1
532 917 m 1x10
 573 917 l 1
 551 846 516 808 471 808 c 0x10
 459 808 446 812 426 821 c 2
 406 830 l 2
 383 841 369 845 359 845 c 0
 339 845 326 833 312 801 c 1
 273 801 l 1
 296 875 328 908 377 908 c 0x08
 393 908 412 903 430 893 c 2
 447 884 l 2
 462 876 476 871 485 871 c 0
 507 871 520 884 532 917 c 1x10
EndSplineSet
EndChar

StartChar: Adieresis
Encoding: 256 196 149
Width: 547
Flags: MW
HStem: 0 20 209 86<231 414 231 427 191 414> 698 20<358 448 448 448> 799 102<327 384 309 401 327 442 459 516>
LayerCount: 2
Fore
SplineSet
427 209 m 1
 191 209 l 1
 93 0 l 1
 11 0 l 1
 358 718 l 1
 448 718 l 1
 536 0 l 1
 449 0 l 1
 427 209 l 1
231 295 m 1
 414 295 l 1
 381 614 l 1
 231 295 l 1
401 901 m 1
 384 799 l 1
 309 799 l 1
 327 901 l 1
 401 901 l 1
534 901 m 1
 516 799 l 1
 442 799 l 1
 459 901 l 1
 534 901 l 1
EndSplineSet
EndChar

StartChar: Aring
Encoding: 262 197 155
Width: 547
Flags: MW
HStem: 0 20 209 86<231 414 231 427 191 414> 698 20<358 448 448 448> 767 40 911 40
VStem: 11 34 132 34
LayerCount: 2
Fore
SplineSet
427 209 m 1
 191 209 l 1
 93 0 l 1
 11 0 l 1
 358 718 l 1
 448 718 l 1
 536 0 l 1
 449 0 l 1
 427 209 l 1
231 295 m 1
 414 295 l 1
 381 614 l 1
 231 295 l 1
439 944 m 0
 475 944 500 915 500 873 c 0
 500 812 456 760 406 760 c 0
 370 760 345 788 345 831 c 0
 345 892 388 944 439 944 c 0
432 904 m 0
 404 904 379 874 379 841 c 0
 379 817 393 800 413 800 c 0
 440 800 466 831 466 863 c 0
 466 887 451 904 432 904 c 0
EndSplineSet
EndChar

StartChar: AE
Encoding: 225 198 137
Width: 820
Flags: MW
HStem: 0 86<469 780> 209 86<194 426 238 411> 326 86<526 803 511 818> 632 86<406 485 406 406 564 884 564 564>
LayerCount: 2
Fore
SplineSet
194 209 m 1
 93 0 l 1
 7 0 l 1
 371 718 l 1
 899 718 l 1
 884 632 l 1
 564 632 l 1
 526 412 l 1
 818 412 l 1
 803 326 l 1
 511 326 l 1
 469 86 l 1
 795 86 l 1
 780 0 l 1
 375 0 l 1
 411 209 l 1
 194 209 l 1
426 295 m 1
 485 632 l 1
 406 632 l 1
 238 295 l 1
 426 295 l 1
EndSplineSet
EndChar

StartChar: Ccedilla
Encoding: 264 199 157
Width: 592
Flags: MW
HStem: -225 47<223.5 247.5 223 268> 651 86<392.5 446>
VStem: 88 83<194 307.5 194 310> 286 64<-143 -119>
LayerCount: 2
Fore
SplineSet
300 -19 m 1
 267 -62 l 1
 280 -59 286 -58 294 -58 c 0
 329 -58 350 -80 350 -116 c 0
 350 -177 300 -225 236 -225 c 0
 211 -225 190 -219 161 -203 c 1
 182 -163 l 1
 204 -175 215 -178 231 -178 c 0
 264 -178 286 -158 286 -128 c 0
 286 -110 272 -97 253 -97 c 0
 246 -97 237 -99 220 -105 c 1
 209 -86 l 1
 264 -17 l 1
 151 0 88 93 88 243 c 0
 88 377 130 518 198 607 c 0
 262 692 346 737 439 737 c 0
 562 737 640 656 640 527 c 0
 640 521 640 513 639 502 c 1
 562 502 l 1
 560 559 551 586 526 612 c 0
 503 637 467 651 425 651 c 0
 356 651 293 613 247 543 c 1
 201 475 171 360 171 255 c 0
 171 133 223 67 319 67 c 0
 374 67 421 91 462 140 c 0
 488 172 503 201 527 264 c 1
 604 264 l 1
 552 122 518 73 434 19 c 1
 393 -5 347 -18 300 -19 c 1
EndSplineSet
EndChar

StartChar: Eacute
Encoding: 269 201 162
Width: 547
Flags: MW
HStem: 0 86<166 506> 326 86<222 530 207 545> 632 86<261 610 261 261>
LayerCount: 2
Fore
SplineSet
521 86 m 1
 506 0 l 1
 71 0 l 1
 196 718 l 1
 625 718 l 1
 610 632 l 1
 261 632 l 1
 222 412 l 1
 545 412 l 1
 530 326 l 1
 207 326 l 1
 166 86 l 1
 521 86 l 1
562 929 m 1
 430 788 l 1
 375 788 l 1
 473 929 l 1
 562 929 l 1
EndSplineSet
EndChar

StartChar: Ecircumflex
Encoding: 271 202 164
Width: 547
Flags: MW
HStem: 0 86<166 506> 326 86<222 530 207 545> 632 86<261 610 261 261>
LayerCount: 2
Fore
SplineSet
521 86 m 1
 506 0 l 1
 71 0 l 1
 196 718 l 1
 625 718 l 1
 610 632 l 1
 261 632 l 1
 222 412 l 1
 545 412 l 1
 530 326 l 1
 207 326 l 1
 166 86 l 1
 521 86 l 1
427 881 m 1
 357 788 l 1
 292 788 l 1
 398 929 l 1
 474 929 l 1
 530 788 l 1
 465 788 l 1
 427 881 l 1
EndSplineSet
EndChar

StartChar: Igrave
Encoding: 278 204 171
Width: 228
Flags: MW
HStem: 0 20 698 20<200 279 279 279>
LayerCount: 2
Fore
SplineSet
279 718 m 1
 154 0 l 1
 75 0 l 1
 200 718 l 1
 279 718 l 1
233 788 m 1
 151 929 l 1
 240 929 l 1
 288 788 l 1
 233 788 l 1
EndSplineSet
EndChar

StartChar: Iacute
Encoding: 277 205 170
Width: 228
Flags: MW
HStem: 0 20 698 20<200 279 279 279>
LayerCount: 2
Fore
SplineSet
279 718 m 1
 154 0 l 1
 75 0 l 1
 200 718 l 1
 279 718 l 1
401 929 m 1
 269 788 l 1
 214 788 l 1
 312 929 l 1
 401 929 l 1
EndSplineSet
EndChar

StartChar: Icircumflex
Encoding: 279 206 172
Width: 228
Flags: MW
HStem: 0 20 698 20<200 279 279 279>
LayerCount: 2
Fore
SplineSet
279 718 m 1
 154 0 l 1
 75 0 l 1
 200 718 l 1
 279 718 l 1
267 881 m 1
 197 788 l 1
 132 788 l 1
 238 929 l 1
 314 929 l 1
 370 788 l 1
 305 788 l 1
 267 881 l 1
EndSplineSet
EndChar

StartChar: Idieresis
Encoding: 276 207 169
Width: 228
Flags: MW
HStem: 0 20 698 20<200 279 279 279> 799 102<168 225 150 242 168 283 301 357>
LayerCount: 2
Fore
SplineSet
279 718 m 1
 154 0 l 1
 75 0 l 1
 200 718 l 1
 279 718 l 1
242 901 m 1
 225 799 l 1
 150 799 l 1
 168 901 l 1
 242 901 l 1
375 901 m 1
 357 799 l 1
 283 799 l 1
 301 901 l 1
 375 901 l 1
EndSplineSet
EndChar

StartChar: Eth
Encoding: 389 208 282
Width: 592
Flags: MW
HStem: 0 83<161 302> 326 86<57 138 72 123 72 203 218 360> 635 83<257 405 257 257>
VStem: 542 84<422.5 517>
LayerCount: 2
Fore
SplineSet
57 326 m 1
 72 412 l 1
 138 412 l 1
 192 718 l 1
 430 718 l 2
 553 718 626 625 626 470 c 0
 626 375 599 267 553 178 c 0
 494 61 407 0 302 0 c 2
 67 0 l 1
 123 326 l 1
 57 326 l 1
375 412 m 1
 360 326 l 1
 203 326 l 1
 161 83 l 1
 315 83 l 2
 374 83 427 116 468 178 c 1
 511 245 542 361 542 461 c 0
 542 573 494 635 405 635 c 2
 257 635 l 1
 218 412 l 1
 375 412 l 1
EndSplineSet
EndChar

StartChar: Ntilde
Encoding: 285 209 178
Width: 592
Flags: W
HStem: 0 20 698 20<187 282 282 282 578 655 655 655> 808 63<503.5 516.5> 845 63<375.5 387>
LayerCount: 2
Fore
SplineSet
476 135 m 1xc0
 578 718 l 1
 655 718 l 1
 530 0 l 1
 440 0 l 1
 241 583 l 1
 139 0 l 1
 62 0 l 1
 187 718 l 1
 282 718 l 1
 476 135 l 1xc0
555 917 m 1x20
 596 917 l 1
 574 846 539 808 494 808 c 0x20
 482 808 469 812 449 821 c 2
 429 830 l 2
 406 841 392 845 382 845 c 0
 362 845 349 833 335 801 c 1
 296 801 l 1
 319 875 351 908 400 908 c 0x10
 416 908 435 903 453 893 c 2
 470 884 l 2
 485 876 499 871 508 871 c 0
 530 871 543 884 555 917 c 1x20
EndSplineSet
EndChar

StartChar: Oacute
Encoding: 287 211 180
Width: 638
Flags: MW
HStem: -19 86<283.5 365.5> 651 86<398 482.5>
VStem: 86 83<217 322> 594 83<405.5 509>
LayerCount: 2
Fore
SplineSet
447 737 m 0
 593 737 677 634 677 456 c 0
 677 335 635 207 566 115 c 0
 499 26 415 -19 316 -19 c 0
 251 -19 193 3 156 42 c 0
 114 86 86 173 86 261 c 0
 86 383 128 512 196 603 c 0
 263 691 349 737 447 737 c 0
432 651 m 0
 287 651 169 482 169 274 c 0
 169 145 230 67 330 67 c 0
 415 67 491 121 540 216 c 0
 574 283 594 366 594 445 c 0
 594 573 533 651 432 651 c 0
607 929 m 1
 475 788 l 1
 420 788 l 1
 518 929 l 1
 607 929 l 1
EndSplineSet
EndChar

StartChar: Otilde
Encoding: 290 213 183
Width: 638
Flags: W
HStem: -19 86<283.5 365.5> 651 86<398 482.5> 808 63<526.5 539.5> 845 63<398.5 410>
VStem: 86 83<217 322> 594 83<405.5 509>
LayerCount: 2
Fore
SplineSet
447 737 m 0xcc
 593 737 677 634 677 456 c 0
 677 335 635 207 566 115 c 0
 499 26 415 -19 316 -19 c 0
 251 -19 193 3 156 42 c 0
 114 86 86 173 86 261 c 0
 86 383 128 512 196 603 c 0
 263 691 349 737 447 737 c 0xcc
432 651 m 0
 287 651 169 482 169 274 c 0
 169 145 230 67 330 67 c 0
 415 67 491 121 540 216 c 0
 574 283 594 366 594 445 c 0
 594 573 533 651 432 651 c 0
578 917 m 1x2c
 619 917 l 1
 597 846 562 808 517 808 c 0x2c
 505 808 492 812 472 821 c 2
 452 830 l 2
 429 841 415 845 405 845 c 0
 385 845 372 833 358 801 c 1
 319 801 l 1
 342 875 374 908 423 908 c 0x1c
 439 908 458 903 476 893 c 2
 493 884 l 2
 508 876 522 871 531 871 c 0
 553 871 566 884 578 917 c 1x2c
EndSplineSet
EndChar

StartChar: multiply
Encoding: 401 215 294
Width: 479
Flags: MW
HStem: 0 20
LayerCount: 2
Fore
SplineSet
242 253 m 1
 111 455 l 1
 163 506 l 1
 293 305 l 1
 493 506 l 1
 526 455 l 1
 326 253 l 1
 456 51 l 1
 405 0 l 1
 274 201 l 1
 74 0 l 1
 41 51 l 1
 242 253 l 1
EndSplineSet
EndChar

StartChar: Oslash
Encoding: 233 216 140
Width: 638
Flags: MW
HStem: -19 86<301.5 365> 523 20<578 578> 651 86<398.5 462>
VStem: 86 83<256.5 321 256.5 322.5> 594 83<397.5 462>
LayerCount: 2
Fore
SplineSet
730 707 m 1
 646 616 l 1
 670 556 677 518 677 455 c 0
 677 335 635 207 566 115 c 0
 499 26 415 -19 315 -19 c 0
 236 -19 183 6 137 68 c 1
 56 -19 l 1
 35 9 l 1
 119 99 l 1
 94 159 86 199 86 263 c 0
 86 382 128 512 197 603 c 0
 264 692 348 737 449 737 c 0
 529 737 582 711 628 648 c 1
 710 737 l 1
 730 707 l 1
578 543 m 1
 202 138 l 1
 235 88 273 67 330 67 c 0
 403 67 469 107 519 181 c 0
 565 250 594 352 594 443 c 0
 594 481 590 505 578 543 c 1
185 171 m 1
 563 578 l 1
 530 629 491 651 433 651 c 0
 360 651 293 611 244 537 c 0
 199 469 169 366 169 276 c 0
 169 237 173 211 185 171 c 1
EndSplineSet
EndChar

StartChar: Uacute
Encoding: 299 218 192
Width: 592
Flags: MW
HStem: -19 86<267.5 355.5 267.5 361> 698 20<190 269 269 269 574 653 653 653>
VStem: 101 84<158.5 186.5>
LayerCount: 2
Fore
SplineSet
574 718 m 1
 653 718 l 1
 572 252 l 2
 543 87 433 -19 289 -19 c 0
 169 -19 101 52 101 176 c 0
 101 197 103 218 106 239 c 2
 190 718 l 1
 269 718 l 1
 191 266 l 2
 187 245 185 223 185 202 c 0
 185 115 228 67 307 67 c 0
 404 67 473 139 494 264 c 1
 574 718 l 1
584 929 m 1
 452 788 l 1
 397 788 l 1
 495 929 l 1
 584 929 l 1
EndSplineSet
EndChar

StartChar: Yacute
Encoding: 304 221 197
Width: 547
Flags: MW
HStem: 0 20 698 20<137 230 230 230 568 661 661 661>
LayerCount: 2
Fore
SplineSet
364 289 m 1
 314 0 l 1
 234 0 l 1
 284 289 l 1
 137 718 l 1
 230 718 l 1
 338 373 l 1
 568 718 l 1
 661 718 l 1
 364 289 l 1
562 929 m 1
 430 788 l 1
 375 788 l 1
 473 929 l 1
 562 929 l 1
EndSplineSet
EndChar

StartChar: Thorn
Encoding: 391 222 284
Width: 547
Flags: MW
HStem: 0 20 184 83<197 355 355 368 183 355> 516 83<241 440 255 402> 698 20<196 276 276 276>
VStem: 501 83<413.5 458.5>
LayerCount: 2
Fore
SplineSet
71 0 m 1
 196 718 l 1
 276 718 l 1
 255 599 l 1
 440 599 l 2
 529 599 584 540 584 445 c 0
 584 382 561 313 524 264 c 0
 484 211 431 184 368 184 c 2
 183 184 l 1
 151 0 l 1
 71 0 l 1
241 516 m 1
 197 267 l 1
 355 267 l 2
 408 267 446 285 471 321 c 0
 489 348 501 392 501 430 c 0
 501 487 467 516 402 516 c 2
 241 516 l 1
EndSplineSet
EndChar

StartChar: germandbls
Encoding: 251 223 148
Width: 501
Flags: W
HStem: -15 79<260 295.5 260 297> 354 73<316 355.5> 652 76<316 390.5>
VStem: 435 77<238.5 287.5> 464 75<545.5 591.5>
LayerCount: 2
Fore
SplineSet
216 -8 m 1xf0
 230 67 l 1
 242 65 254 64 266 64 c 0
 325 64 371 86 400 130 c 0
 421 161 435 211 435 254 c 0xf0
 435 321 396 354 315 354 c 0
 303 354 293 353 283 350 c 1
 297 429 l 1
 302 428 313 427 319 427 c 0
 406 427 464 482 464 563 c 0
 464 620 425 652 356 652 c 0
 276 652 234 609 216 510 c 2
 127 0 l 1
 55 0 l 1
 148 532 l 2
 169 653 254 728 371 728 c 0
 476 728 539 674 539 584 c 0xe8
 539 507 506 444 443 400 c 1
 459 393 467 387 475 380 c 0
 497 357 512 312 512 270 c 0
 512 207 486 132 445 77 c 0
 401 17 335 -15 259 -15 c 0
 244 -15 235 -14 219 -9 c 2
 216 -8 l 1xf0
EndSplineSet
EndChar

StartChar: acircumflex
Encoding: 325 226 218
Width: 456
Flags: W
HStem: -15 73<169.5 194.5> -10 20 465 73<283 326> 714 20<318 394 394 394>
VStem: 50 77<100.5 153.5> 329 72<28 80.5> 384 74<418 421>
LayerCount: 2
Fore
SplineSet
180 364 m 1xaa
 114 364 l 1
 126 416 137 441 159 469 c 0
 193 513 250 538 316 538 c 0
 405 538 458 495 458 423 c 0x6a
 458 413 457 402 455 392 c 2
 403 91 l 2
 402 85 401 81 401 80 c 0
 400 69 408 60 420 60 c 0
 426 60 433 61 446 64 c 1
 434 0 l 1
 425 -3 l 2
 409 -9 402 -10 391 -10 c 0
 351 -10 329 10 329 46 c 0x64
 329 51 330 61 331 70 c 1
 274 10 225 -15 164 -15 c 0
 93 -15 50 29 50 101 c 0
 50 206 115 286 212 300 c 2
 334 318 l 2
 366 323 384 353 384 400 c 0
 384 442 354 465 298 465 c 0
 235 465 203 438 180 364 c 1xaa
346 181 m 2x8a
 361 267 l 1
 344 253 322 248 236 234 c 0
 160 221 127 187 127 121 c 0
 127 80 149 58 190 58 c 0
 263 58 335 114 346 181 c 2x8a
347 686 m 1x10
 277 593 l 1
 212 593 l 1
 318 734 l 1
 394 734 l 1
 450 593 l 1
 385 593 l 1
 347 686 l 1x10
EndSplineSet
EndChar

StartChar: atilde
Encoding: 327 227 220
Width: 456
Flags: W
HStem: -15 73<169.5 194.5> -10 20 465 73<283 326> 613 63<393.5 406.5> 650 63<265.5 277> 698 20 702 20<445 486 486 486>
VStem: 50 77<100.5 153.5> 329 72<28 80.5> 384 74<418 421>
LayerCount: 2
Fore
SplineSet
180 364 m 1xa140
 114 364 l 1
 126 416 137 441 159 469 c 0
 193 513 250 538 316 538 c 0
 405 538 458 495 458 423 c 0x6140
 458 413 457 402 455 392 c 2
 403 91 l 2
 402 85 401 81 401 80 c 0
 400 69 408 60 420 60 c 0
 426 60 433 61 446 64 c 1
 434 0 l 1
 425 -3 l 2
 409 -9 402 -10 391 -10 c 0
 351 -10 329 10 329 46 c 0x6080
 329 51 330 61 331 70 c 1
 274 10 225 -15 164 -15 c 0
 93 -15 50 29 50 101 c 0
 50 206 115 286 212 300 c 2
 334 318 l 2
 366 323 384 353 384 400 c 0
 384 442 354 465 298 465 c 0
 235 465 203 438 180 364 c 1xa140
346 181 m 2x8140
 361 267 l 1
 344 253 322 248 236 234 c 0
 160 221 127 187 127 121 c 0
 127 80 149 58 190 58 c 0
 263 58 335 114 346 181 c 2x8140
445 722 m 1x12
 486 722 l 1
 464 651 429 613 384 613 c 0x12
 372 613 359 617 339 626 c 2
 319 635 l 2
 296 646 282 650 272 650 c 0
 252 650 239 638 225 606 c 1
 186 606 l 1
 209 680 241 713 290 713 c 0x08
 306 713 325 708 343 698 c 2x04
 360 689 l 2
 375 681 389 676 398 676 c 0
 420 676 433 689 445 722 c 1x12
EndSplineSet
EndChar

StartChar: ae
Encoding: 241 230 143
Width: 729
Flags: W
HStem: -15 73<169.5 204> -15 76<483 542.5 483 547.5> 233 70<434 673 434 735 422 673> 459 79<571 612> 465 73<286 326>
VStem: 50 77<101 153.5> 675 71<343.5 376.5 338.5 383.5>
LayerCount: 2
Fore
SplineSet
645 164 m 1x76
 717 164 l 1
 679 51 598 -15 497 -15 c 0x76
 419 -15 378 16 355 94 c 1
 295 16 241 -15 167 -15 c 0
 94 -15 50 28 50 101 c 0
 50 206 115 286 212 300 c 2
 334 318 l 2
 366 323 384 353 384 400 c 0
 384 442 354 465 298 465 c 0
 235 465 203 437 180 364 c 1
 114 364 l 1
 126 416 137 441 159 469 c 0
 195 515 250 538 322 538 c 0x8e
 385 538 414 521 448 464 c 1
 504 520 541 538 601 538 c 0
 652 538 692 518 714 482 c 0
 733 449 746 399 746 354 c 0
 746 323 742 282 735 233 c 1
 422 233 l 1
 418 208 416 186 416 171 c 0
 416 103 453 61 513 61 c 0
 572 61 627 104 645 164 c 1x76
434 303 m 1
 673 303 l 1
 674 321 675 337 675 350 c 0
 675 417 640 459 584 459 c 0
 515 459 454 396 434 303 c 1
346 181 m 2x86
 361 267 l 1
 344 253 322 247 236 234 c 1
 160 221 127 187 127 122 c 0
 127 80 149 58 190 58 c 0
 263 58 334 114 346 181 c 2x86
EndSplineSet
EndChar

StartChar: ccedilla
Encoding: 332 231 225
Width: 410
Flags: MW
HStem: -225 47<132.5 157.5 132.5 177> 459 79<288 320>
VStem: 61 78<141.5 212.5 141.5 220.5> 196 64<-143 -119>
LayerCount: 2
Fore
SplineSet
213 -15 m 1
 176 -62 l 1
 192 -58 195 -58 203 -58 c 0
 239 -58 260 -79 260 -116 c 0
 260 -177 209 -225 145 -225 c 0
 120 -225 99 -219 70 -203 c 1
 91 -163 l 1
 113 -175 124 -178 141 -178 c 0
 174 -178 196 -158 196 -128 c 0
 196 -110 182 -97 162 -97 c 0
 155 -97 146 -99 129 -105 c 1
 118 -86 l 1
 177 -11 l 1
 103 5 61 72 61 172 c 0
 61 269 94 375 145 443 c 0
 192 505 253 538 323 538 c 0
 404 538 454 482 454 390 c 0
 454 379 453 364 452 347 c 1
 382 347 l 1
 381 384 381 387 377 403 c 0
 366 440 340 459 300 459 c 0
 252 459 211 429 182 372 c 0
 156 321 139 245 139 180 c 0
 139 103 170 61 227 61 c 0
 282 61 324 102 354 185 c 1
 424 185 l 1
 388 58 311 -16 213 -15 c 1
EndSplineSet
EndChar

StartChar: egrave
Encoding: 336 232 229
Width: 456
Flags: MW
HStem: -15 76<211.5 271 211.5 276> 233 70<162 401 162 463 150 401> 459 79<295 340> 714 20<231 320 320 320>
VStem: 69 75<137 179 137 220.5> 403 71<343.5 376.5 338.5 383.5>
LayerCount: 2
Fore
SplineSet
373 164 m 1
 445 164 l 1
 407 51 326 -15 226 -15 c 0
 126 -15 69 53 69 172 c 0
 69 269 102 375 153 443 c 0
 199 505 261 538 329 538 c 0
 380 538 421 518 442 482 c 0
 461 449 474 399 474 354 c 0
 474 323 470 282 463 233 c 1
 150 233 l 1
 146 208 144 187 144 171 c 0
 144 103 181 61 242 61 c 0
 300 61 355 104 373 164 c 1
162 303 m 1
 401 303 l 1
 402 321 403 337 403 350 c 0
 403 417 368 459 312 459 c 0
 243 459 183 396 162 303 c 1
313 593 m 1
 231 734 l 1
 320 734 l 1
 368 593 l 1
 313 593 l 1
EndSplineSet
EndChar

StartChar: ecircumflex
Encoding: 337 234 230
Width: 456
Flags: MW
HStem: -15 76<211.5 271 211.5 276> 233 70<162 401 162 463 150 401> 459 79<295 340> 714 20<318 394 394 394>
VStem: 69 75<137 179 137 220.5> 403 71<343.5 376.5 338.5 383.5>
LayerCount: 2
Fore
SplineSet
373 164 m 1
 445 164 l 1
 407 51 326 -15 226 -15 c 0
 126 -15 69 53 69 172 c 0
 69 269 102 375 153 443 c 0
 199 505 261 538 329 538 c 0
 380 538 421 518 442 482 c 0
 461 449 474 399 474 354 c 0
 474 323 470 282 463 233 c 1
 150 233 l 1
 146 208 144 187 144 171 c 0
 144 103 181 61 242 61 c 0
 300 61 355 104 373 164 c 1
162 303 m 1
 401 303 l 1
 402 321 403 337 403 350 c 0
 403 417 368 459 312 459 c 0
 243 459 183 396 162 303 c 1
347 686 m 1
 277 593 l 1
 212 593 l 1
 318 734 l 1
 394 734 l 1
 450 593 l 1
 385 593 l 1
 347 686 l 1
EndSplineSet
EndChar

StartChar: edieresis
Encoding: 334 235 227
Width: 456
Flags: MW
HStem: -15 76<211.5 271 211.5 276> 233 70<162 401 162 463 150 401> 459 79<295 340> 604 102<247 304 229 321 247 362 379 436>
VStem: 69 75<137 179 137 220.5> 403 71<343.5 376.5 338.5 383.5>
LayerCount: 2
Fore
SplineSet
373 164 m 1
 445 164 l 1
 407 51 326 -15 226 -15 c 0
 126 -15 69 53 69 172 c 0
 69 269 102 375 153 443 c 0
 199 505 261 538 329 538 c 0
 380 538 421 518 442 482 c 0
 461 449 474 399 474 354 c 0
 474 323 470 282 463 233 c 1
 150 233 l 1
 146 208 144 187 144 171 c 0
 144 103 181 61 242 61 c 0
 300 61 355 104 373 164 c 1
162 303 m 1
 401 303 l 1
 402 321 403 337 403 350 c 0
 403 417 368 459 312 459 c 0
 243 459 183 396 162 303 c 1
321 706 m 1
 304 604 l 1
 229 604 l 1
 247 706 l 1
 321 706 l 1
454 706 m 1
 436 604 l 1
 362 604 l 1
 379 706 l 1
 454 706 l 1
EndSplineSet
EndChar

StartChar: igrave
Encoding: 344 236 237
Width: 228
Flags: MW
HStem: 0 20 503 20<169 241 241 241> 714 20<117 206 206 206>
LayerCount: 2
Fore
SplineSet
241 523 m 1
 150 0 l 1
 78 0 l 1
 169 523 l 1
 241 523 l 1
199 593 m 1
 117 734 l 1
 206 734 l 1
 254 593 l 1
 199 593 l 1
EndSplineSet
EndChar

StartChar: iacute
Encoding: 343 237 236
Width: 228
Flags: MW
HStem: 0 20 503 20<169 241 241 241> 714 20<279 368 368 368>
LayerCount: 2
Fore
SplineSet
241 523 m 1
 150 0 l 1
 78 0 l 1
 169 523 l 1
 241 523 l 1
368 734 m 1
 236 593 l 1
 181 593 l 1
 279 734 l 1
 368 734 l 1
EndSplineSet
EndChar

StartChar: icircumflex
Encoding: 345 238 238
Width: 228
Flags: MW
HStem: 0 20 503 20<169 241 241 241> 714 20<204 280 280 280>
LayerCount: 2
Fore
SplineSet
241 523 m 1
 150 0 l 1
 78 0 l 1
 169 523 l 1
 241 523 l 1
233 686 m 1
 163 593 l 1
 98 593 l 1
 204 734 l 1
 280 734 l 1
 336 593 l 1
 271 593 l 1
 233 686 l 1
EndSplineSet
EndChar

StartChar: idieresis
Encoding: 342 239 235
Width: 228
Flags: MW
HStem: 0 20 503 20<169 241 241 241> 604 102<134 191 116 208 134 249 266 323>
LayerCount: 2
Fore
SplineSet
241 523 m 1
 150 0 l 1
 78 0 l 1
 169 523 l 1
 241 523 l 1
208 706 m 1
 191 604 l 1
 116 604 l 1
 134 706 l 1
 208 706 l 1
341 706 m 1
 323 604 l 1
 249 604 l 1
 266 706 l 1
 341 706 l 1
EndSplineSet
EndChar

StartChar: eth
Encoding: 393 240 286
Width: 456
Flags: MW
HStem: -15 76<208 259.5> 447 76<281 333 279.5 337> 717 20<313 313 474 474>
VStem: 67 76<155 225.5 155 228> 402 86<333.5 353>
LayerCount: 2
Fore
SplineSet
506 697 m 1
 409 646 l 1
 467 556 488 487 488 389 c 0
 488 278 450 151 395 79 c 0
 348 17 291 -15 228 -15 c 0
 129 -15 67 62 67 184 c 0
 67 272 97 364 148 431 c 0
 194 492 249 523 310 523 c 0
 356 523 382 507 410 463 c 1
 401 521 381 565 343 612 c 1
 230 550 l 1
 203 592 l 1
 310 649 l 1
 290 671 271 687 246 701 c 1
 313 737 l 1
 342 721 358 709 379 686 c 1
 474 737 l 1
 506 697 l 1
306 447 m 0
 256 447 212 414 181 353 c 0
 156 304 143 251 143 200 c 0
 143 110 177 61 239 61 c 0
 289 61 333 94 364 155 c 0
 389 204 402 257 402 308 c 0
 402 398 368 447 306 447 c 0
EndSplineSet
EndChar

StartChar: ntilde
Encoding: 350 241 243
Width: 456
Flags: W
HStem: 0 20 459 79<322.5 346> 503 20<144 212 212 212> 613 63<393.5 406.5> 650 63<265.5 277> 698 20 702 20<445 486 486 486>
VStem: 392 78<401.5 407.5>
LayerCount: 2
Fore
SplineSet
212 523 m 1xa1
 199 446 l 1
 249 511 293 538 352 538 c 0
 426 538 470 490 470 410 c 0
 470 393 468 375 465 356 c 2
 403 0 l 1
 331 0 l 1
 387 322 l 2
 390 342 392 362 392 382 c 0
 392 433 369 459 323 459 c 0xc1
 250 459 194 393 175 285 c 2
 125 0 l 1
 53 0 l 1
 144 523 l 1
 212 523 l 1xa1
445 722 m 1x13
 486 722 l 1
 464 651 429 613 384 613 c 0x13
 372 613 359 617 339 626 c 2
 319 635 l 2
 296 646 282 650 272 650 c 0
 252 650 239 638 225 606 c 1
 186 606 l 1
 209 680 241 713 290 713 c 0x09
 306 713 325 708 343 698 c 2x05
 360 689 l 2
 375 681 389 676 398 676 c 0
 420 676 433 689 445 722 c 1x13
EndSplineSet
EndChar

StartChar: ograve
Encoding: 353 242 246
Width: 456
Flags: MW
HStem: -14 76<208 258.5> 462 76<289 339> 714 20<231 320 320 320>
VStem: 68 75<154 227 154 233.5> 404 75<296.5 369>
LayerCount: 2
Fore
SplineSet
322 538 m 0
 420 538 479 462 479 336 c 0
 479 244 448 149 397 81 c 0
 350 18 292 -14 225 -14 c 0
 127 -14 68 62 68 189 c 0
 68 278 100 377 150 443 c 0
 197 505 256 538 322 538 c 0
308 462 m 0
 258 462 215 430 184 370 c 0
 158 320 143 256 143 198 c 0
 143 110 177 62 239 62 c 0
 289 62 332 94 363 154 c 0
 389 204 404 268 404 325 c 0
 404 413 370 462 308 462 c 0
313 593 m 1
 231 734 l 1
 320 734 l 1
 368 593 l 1
 313 593 l 1
EndSplineSet
EndChar

StartChar: otilde
Encoding: 355 245 248
Width: 456
Flags: W
HStem: -14 76<208 258.5> 462 76<289 339> 613 63<401.5 414.5> 650 63<273.5 285> 698 20 702 20<453 494 494 494>
VStem: 68 75<154 227 154 233.5> 404 75<296.5 369>
LayerCount: 2
Fore
SplineSet
322 538 m 0xc3
 420 538 479 462 479 336 c 0
 479 244 448 149 397 81 c 0
 350 18 292 -14 225 -14 c 0
 127 -14 68 62 68 189 c 0
 68 278 100 377 150 443 c 0
 197 505 256 538 322 538 c 0xc3
308 462 m 0
 258 462 215 430 184 370 c 0
 158 320 143 256 143 198 c 0
 143 110 177 62 239 62 c 0
 289 62 332 94 363 154 c 0
 389 204 404 268 404 325 c 0
 404 413 370 462 308 462 c 0
453 722 m 1x27
 494 722 l 1
 472 651 437 613 392 613 c 0x27
 380 613 367 617 347 626 c 2
 327 635 l 2
 304 646 290 650 280 650 c 0
 260 650 247 638 233 606 c 1
 194 606 l 1
 217 680 249 713 298 713 c 0x13
 314 713 333 708 351 698 c 2x0b
 368 689 l 2
 383 681 397 676 406 676 c 0
 428 676 441 689 453 722 c 1x27
EndSplineSet
EndChar

StartChar: divide
Encoding: 402 247 295
Width: 479
Flags: MW
HStem: -19 20 216 73<83 484 70 497> 504 20<313.5 344>
LayerCount: 2
Fore
SplineSet
484 216 m 1
 70 216 l 1
 83 289 l 1
 497 289 l 1
 484 216 l 1
331 524 m 0
 357 524 376 500 376 469 c 0
 376 429 341 388 307 388 c 0
 282 388 262 412 262 442 c 0
 262 484 296 524 331 524 c 0
260 117 m 0
 286 117 305 94 305 63 c 0
 305 22 270 -19 236 -19 c 0
 211 -19 191 5 191 36 c 0
 191 77 225 117 260 117 c 0
EndSplineSet
EndChar

StartChar: oslash
Encoding: 249 248 146
Width: 501
Flags: MW
HStem: -14 76<221 258.5> 462 76<289.5 327.5>
VStem: 68 76<187.5 221.5 187.5 233.5> 405 75<302.5 333.5>
LayerCount: 2
Fore
SplineSet
531 519 m 1
 461 441 l 1
 475 401 480 376 480 335 c 0
 480 245 449 148 398 81 c 0
 350 18 292 -14 225 -14 c 0
 173 -14 137 4 106 46 c 1
 45 -22 l 1
 24 4 l 1
 89 76 l 1
 73 118 68 145 68 189 c 0
 68 278 100 376 150 443 c 0
 198 506 256 538 323 538 c 0
 377 538 413 519 445 473 c 1
 510 545 l 1
 531 519 l 1
149 143 m 1
 389 410 l 1
 370 447 346 462 309 462 c 0
 251 462 204 421 173 343 c 0
 154 296 144 246 144 197 c 0
 144 178 145 167 149 143 c 1
400 373 m 1
 162 108 l 1
 179 76 203 62 239 62 c 0
 297 62 344 103 376 181 c 0
 395 227 405 279 405 326 c 0
 405 341 404 351 400 373 c 1
EndSplineSet
EndChar

StartChar: uacute
Encoding: 363 250 256
Width: 456
Flags: MW
HStem: -15 76<200 226.5> 503 20<146 219 219 219 420 492 492 492> 714 20<393 482 482 482>
VStem: 77 78<65.5 144.5>
LayerCount: 2
Fore
SplineSet
401 0 m 1
 333 0 l 1
 347 81 l 1
 296 9 258 -15 195 -15 c 0
 120 -15 77 28 77 103 c 0
 77 118 78 132 81 147 c 2
 146 523 l 1
 219 523 l 1
 158 176 l 2
 156 163 155 153 155 136 c 0
 155 87 178 61 222 61 c 0
 294 61 351 128 370 235 c 2
 420 523 l 1
 492 523 l 1
 401 0 l 1
482 734 m 1
 350 593 l 1
 295 593 l 1
 393 734 l 1
 482 734 l 1
EndSplineSet
EndChar

StartChar: ucircumflex
Encoding: 365 251 258
Width: 456
Flags: MW
HStem: -15 76<200 226.5> 503 20<146 219 219 219 420 492 492 492> 714 20<318 394 394 394>
VStem: 77 78<65.5 144.5>
LayerCount: 2
Fore
SplineSet
401 0 m 1
 333 0 l 1
 347 81 l 1
 296 9 258 -15 195 -15 c 0
 120 -15 77 28 77 103 c 0
 77 118 78 132 81 147 c 2
 146 523 l 1
 219 523 l 1
 158 176 l 2
 156 163 155 153 155 136 c 0
 155 87 178 61 222 61 c 0
 294 61 351 128 370 235 c 2
 420 523 l 1
 492 523 l 1
 401 0 l 1
347 686 m 1
 277 593 l 1
 212 593 l 1
 318 734 l 1
 394 734 l 1
 450 593 l 1
 385 593 l 1
 347 686 l 1
EndSplineSet
EndChar

StartChar: yacute
Encoding: 368 253 261
Width: 410
Flags: MW
HStem: -214 79<60.5 83 60.5 89> 503 20<100 182 182 182 412 492 492 492> 714 20<370 459 459 459>
LayerCount: 2
Fore
SplineSet
222 94 m 1
 412 523 l 1
 492 523 l 1
 248 10 l 1
 148 -195 131 -214 47 -214 c 0
 35 -214 31 -213 18 -208 c 2
 15 -207 l 1
 12 -206 l 1
 26 -126 l 1
 40 -132 53 -135 68 -135 c 0
 98 -135 113 -121 138 -68 c 1
 165 -14 l 1
 100 523 l 1
 182 523 l 1
 222 94 l 1
459 734 m 1
 327 593 l 1
 272 593 l 1
 370 734 l 1
 459 734 l 1
EndSplineSet
EndChar

StartChar: thorn
Encoding: 394 254 287
Width: 456
Flags: MW
HStem: -207 20 -15 76<217 264 217 264.5> 459 79<311.5 342.5> 698 20<172 245 245 245>
VStem: 404 75<310.5 383.5>
LayerCount: 2
Fore
SplineSet
11 -207 m 1
 172 718 l 1
 245 718 l 1
 198 448 l 1
 244 513 283 538 340 538 c 0
 426 538 479 469 479 355 c 0
 479 256 445 145 391 73 c 0
 348 15 295 -15 234 -15 c 0
 181 -15 149 7 130 58 c 1
 83 -207 l 1
 11 -207 l 1
313 459 m 0
 266 459 226 430 200 378 c 0
 172 320 153 239 153 178 c 0
 153 107 189 61 245 61 c 0
 283 61 319 84 346 125 c 0
 378 173 404 273 404 348 c 0
 404 419 372 459 313 459 c 0
EndSplineSet
EndChar

StartChar: ydieresis
Encoding: 372 255 265
Width: 410
Flags: MW
HStem: -214 79<60.5 83 60.5 89> 503 20<100 182 182 182 412 492 492 492> 604 102<224 281 206 298 224 339 356 413>
LayerCount: 2
Fore
SplineSet
222 94 m 1
 412 523 l 1
 492 523 l 1
 248 10 l 1
 148 -195 131 -214 47 -214 c 0
 35 -214 31 -213 18 -208 c 2
 15 -207 l 1
 12 -206 l 1
 26 -126 l 1
 40 -132 53 -135 68 -135 c 0
 98 -135 113 -121 138 -68 c 1
 165 -14 l 1
 100 523 l 1
 182 523 l 1
 222 94 l 1
298 706 m 1
 281 604 l 1
 206 604 l 1
 224 706 l 1
 298 706 l 1
431 706 m 1
 413 604 l 1
 339 604 l 1
 356 706 l 1
 431 706 l 1
EndSplineSet
EndChar

StartChar: Amacron
Encoding: 308 256 201
Width: 547
Flags: MW
HStem: 0 20 209 86<231 414 231 427 191 414> 698 20<358 448 448 448> 822 57<298 545 288 555>
LayerCount: 2
Fore
SplineSet
427 209 m 1
 191 209 l 1
 93 0 l 1
 11 0 l 1
 358 718 l 1
 448 718 l 1
 536 0 l 1
 449 0 l 1
 427 209 l 1
231 295 m 1
 414 295 l 1
 381 614 l 1
 231 295 l 1
555 879 m 1
 545 822 l 1
 288 822 l 1
 298 879 l 1
 555 879 l 1
EndSplineSet
EndChar

StartChar: Abreve
Encoding: 260 258 153
Width: 547
Flags: MW
HStem: 0 20 209 86<231 414 231 427 191 414> 698 20<358 448 448 448> 790 57<407 431.5>
LayerCount: 2
Fore
SplineSet
427 209 m 1
 191 209 l 1
 93 0 l 1
 11 0 l 1
 358 718 l 1
 448 718 l 1
 536 0 l 1
 449 0 l 1
 427 209 l 1
231 295 m 1
 414 295 l 1
 381 614 l 1
 231 295 l 1
523 926 m 1
 562 926 l 1
 549 882 539 862 520 839 c 0
 493 807 454 790 409 790 c 0
 343 790 308 827 308 897 c 1
 309 926 l 1
 349 926 l 1
 351 904 352 898 356 888 c 0
 366 861 390 847 424 847 c 0
 473 847 498 868 523 926 c 1
EndSplineSet
EndChar

StartChar: abreve
Encoding: 326 259 219
Width: 456
Flags: W
HStem: -15 73<169.5 194.5> -10 20 465 73<283 326> 595 57<327 351.5> 711 20<229 269 269 269 443 482 482 482>
VStem: 50 77<100.5 153.5> 329 72<28 80.5> 384 74<418 421>
LayerCount: 2
Fore
SplineSet
180 364 m 1xa5
 114 364 l 1
 126 416 137 441 159 469 c 0
 193 513 250 538 316 538 c 0
 405 538 458 495 458 423 c 0x65
 458 413 457 402 455 392 c 2
 403 91 l 2
 402 85 401 81 401 80 c 0
 400 69 408 60 420 60 c 0
 426 60 433 61 446 64 c 1
 434 0 l 1
 425 -3 l 2
 409 -9 402 -10 391 -10 c 0
 351 -10 329 10 329 46 c 0x62
 329 51 330 61 331 70 c 1
 274 10 225 -15 164 -15 c 0
 93 -15 50 29 50 101 c 0
 50 206 115 286 212 300 c 2
 334 318 l 2
 366 323 384 353 384 400 c 0
 384 442 354 465 298 465 c 0
 235 465 203 438 180 364 c 1xa5
346 181 m 2x85
 361 267 l 1
 344 253 322 248 236 234 c 0
 160 221 127 187 127 121 c 0
 127 80 149 58 190 58 c 0
 263 58 335 114 346 181 c 2x85
443 731 m 1x18
 482 731 l 1
 469 687 459 667 440 644 c 0
 413 612 374 595 329 595 c 0
 263 595 228 632 228 702 c 1
 229 731 l 1
 269 731 l 1
 271 709 272 703 276 693 c 0
 286 666 310 652 344 652 c 0
 393 652 418 673 443 731 c 1x18
EndSplineSet
EndChar

StartChar: Aogonek
Encoding: 263 260 156
Width: 547
Flags: MW
HStem: -225 47<457.5 460> 209 86<231 414 231 427 191 414> 698 20<358 448 448 448>
VStem: 367 64<-154.5 -135.5>
LayerCount: 2
Fore
SplineSet
448 718 m 1
 536 0 l 1
 486 -34 466 -52 451 -76 c 0
 439 -94 431 -122 431 -143 c 0
 431 -166 445 -178 470 -178 c 0
 487 -178 499 -175 525 -163 c 1
 532 -203 l 1
 499 -218 473 -225 447 -225 c 0
 399 -225 367 -196 367 -152 c 0
 367 -119 384 -77 409 -48 c 0
 429 -24 443 -15 481 0 c 1
 449 0 l 1
 427 209 l 1
 191 209 l 1
 93 0 l 1
 11 0 l 1
 358 718 l 1
 448 718 l 1
231 295 m 1
 414 295 l 1
 381 614 l 1
 231 295 l 1
EndSplineSet
EndChar

StartChar: aogonek
Encoding: 329 261 222
Width: 456
Flags: W
HStem: -225 47<356 358> -15 73<169.5 194.5> 465 73<283 326>
VStem: 50 77<100.5 153.5> 265 64<-154.5 -132.5 -154.5 -122.5> 329 72<32 80.5> 384 74<418 421>
LayerCount: 2
Fore
SplineSet
446 64 m 1xfc
 434 0 l 1
 384 -34 364 -52 349 -75 c 0
 337 -94 329 -122 329 -143 c 0
 329 -166 343 -178 369 -178 c 0
 385 -178 397 -175 423 -163 c 1
 430 -203 l 1
 397 -218 371 -225 345 -225 c 0
 297 -225 265 -196 265 -152 c 0
 265 -93 307 -31 364 -6 c 1
 340 2 329 18 329 46 c 0xfc
 329 51 330 60 331 70 c 1
 274 10 225 -15 164 -15 c 0
 93 -15 50 29 50 101 c 0
 50 206 115 286 212 300 c 2
 334 318 l 2
 366 323 384 353 384 400 c 0
 384 442 354 465 298 465 c 0
 235 465 203 438 180 364 c 1
 114 364 l 1
 126 416 137 441 159 469 c 0
 193 513 250 538 316 538 c 0
 405 538 458 495 458 423 c 0xf2
 458 413 457 402 455 392 c 2
 403 91 l 2
 402 85 401 81 401 80 c 0
 400 69 408 60 420 60 c 0
 426 60 433 61 446 64 c 1xfc
346 181 m 2
 361 267 l 1
 344 253 322 248 236 234 c 0
 160 221 127 187 127 121 c 0
 127 80 149 58 190 58 c 0
 263 58 335 114 346 181 c 2
EndSplineSet
EndChar

StartChar: Cacute
Encoding: 265 262 158
Width: 592
Flags: MW
HStem: -19 86<271 329.5> 651 86<392.5 446>
VStem: 88 83<194.5 307.5 194.5 309.5>
LayerCount: 2
Fore
SplineSet
639 502 m 1
 562 502 l 1
 560 559 551 586 526 612 c 0
 503 637 467 651 425 651 c 0
 356 651 293 613 247 543 c 1
 201 475 171 360 171 255 c 0
 171 134 223 67 319 67 c 0
 375 67 421 91 462 140 c 0
 488 172 504 202 527 264 c 1
 604 264 l 1
 563 149 533 99 480 53 c 0
 427 6 362 -19 297 -19 c 0
 166 -19 88 79 88 242 c 0
 88 377 130 518 198 607 c 0
 262 692 346 737 439 737 c 0
 562 737 640 656 640 528 c 0
 640 521 640 513 639 502 c 1
583 929 m 1
 451 788 l 1
 396 788 l 1
 494 929 l 1
 583 929 l 1
EndSplineSet
EndChar

StartChar: cdotaccent
Encoding: 627 267 520
Width: 410
Flags: MW
HStem: -15 76<198.5 254.5 198.5 263.5> 459 79<288 320> 623 102<301 358 283 376>
VStem: 61 78<141.5 212.5 141.5 220.5> 382 70<347 347>
LayerCount: 2
Fore
SplineSet
376 725 m 1
 358 623 l 1
 283 623 l 1
 301 725 l 1
 376 725 l 1
452 347 m 1
 382 347 l 1
 381 384 381 387 377 403 c 0
 366 440 340 459 300 459 c 0
 252 459 211 429 182 372 c 0
 156 321 139 245 139 180 c 0
 139 103 170 61 227 61 c 0
 282 61 324 102 354 185 c 1
 424 185 l 1
 383 52 313 -15 214 -15 c 0
 119 -15 61 55 61 172 c 0
 61 269 94 375 145 443 c 0
 192 505 253 538 323 538 c 0
 404 538 454 482 454 390 c 0
 454 379 453 364 452 347 c 1
EndSplineSet
EndChar

StartChar: Dcaron
Encoding: 267 270 160
Width: 592
Flags: MW
HStem: 0 83<160 302> 635 83<256 256 256 405>
VStem: 543 83<411 517>
LayerCount: 2
Fore
SplineSet
66 0 m 1
 191 718 l 1
 430 718 l 2
 553 718 626 626 626 472 c 0
 626 345 583 206 515 116 c 0
 457 38 386 0 302 0 c 2
 66 0 l 1
256 635 m 1
 160 83 l 1
 314 83 l 2
 374 83 427 116 468 178 c 0
 512 245 543 361 543 461 c 0
 543 573 494 635 405 635 c 2
 256 635 l 1
403 929 m 1
 441 836 l 1
 511 929 l 1
 577 929 l 1
 471 788 l 1
 395 788 l 1
 338 929 l 1
 403 929 l 1
EndSplineSet
EndChar

StartChar: dcaron
Encoding: 333 271 226
Width: 503
Flags: W
HStem: -15 76<201 243> 459 79<275 328.5> 617 101<566 588 462 548> 698 20<462 534 534 534 566 643 643 643>
VStem: 69 74<146.5 219.5 146.5 283>
LayerCount: 2
Fore
SplineSet
534 718 m 1xd8
 409 0 l 1
 341 0 l 1
 354 75 l 1
 311 10 272 -15 214 -15 c 0
 121 -15 69 57 69 185 c 0
 69 381 171 538 300 538 c 0
 358 538 392 511 414 444 c 1
 462 718 l 1
 534 718 l 1xd8
299 459 m 0
 251 459 209 430 185 380 c 0
 159 328 143 253 143 186 c 0
 143 107 174 61 228 61 c 0
 269 61 309 85 337 128 c 1
 366 170 387 257 387 334 c 0
 387 417 358 459 299 459 c 0
566 718 m 1x28
 643 718 l 1
 627 624 l 2
 613 544 576 496 527 492 c 1
 534 531 l 1
 562 534 580 563 588 617 c 1
 548 617 l 1
 566 718 l 1x28
EndSplineSet
EndChar

StartChar: dcroat
Encoding: 392 273 285
Width: 456
Flags: MW
HStem: -15 76<201 243> 459 79<275 328.5> 600 53<317 441 308 451 523 564> 698 20<462 534 534 534>
VStem: 69 74<146.5 219.5 146.5 283>
LayerCount: 2
Fore
SplineSet
523 653 m 1
 573 653 l 1
 564 600 l 1
 513 600 l 1
 409 0 l 1
 341 0 l 1
 354 75 l 1
 311 10 272 -15 214 -15 c 0
 121 -15 69 57 69 185 c 0
 69 381 171 538 300 538 c 0
 358 538 392 511 414 444 c 1
 441 600 l 1
 308 600 l 1
 317 653 l 1
 451 653 l 1
 462 718 l 1
 534 718 l 1
 523 653 l 1
299 459 m 0
 251 459 209 430 185 380 c 0
 159 328 143 253 143 186 c 0
 143 107 174 61 228 61 c 0
 269 61 309 85 337 128 c 1
 366 170 387 257 387 334 c 0
 387 417 358 459 299 459 c 0
EndSplineSet
EndChar

StartChar: Ebreve
Encoding: 628 276 521
Width: 547
Flags: MW
HStem: 0 86<166 506> 326 86<222 530 207 545> 632 86<261 610 261 261> 818 57<427 451.5>
VStem: 329 40<954 954>
LayerCount: 2
Fore
SplineSet
543 954 m 1
 582 954 l 1
 569 910 559 890 540 867 c 0
 513 835 474 818 429 818 c 0
 363 818 328 855 328 925 c 1
 329 954 l 1
 369 954 l 1
 371 932 372 926 376 916 c 0
 386 889 410 875 444 875 c 0
 493 875 518 896 543 954 c 1
521 86 m 1
 506 0 l 1
 71 0 l 1
 196 718 l 1
 625 718 l 1
 610 632 l 1
 261 632 l 1
 222 412 l 1
 545 412 l 1
 530 326 l 1
 207 326 l 1
 166 86 l 1
 521 86 l 1
EndSplineSet
EndChar

StartChar: ebreve
Encoding: 629 277 522
Width: 456
Flags: MW
HStem: -15 76<211.5 271 211.5 276> 233 70<162 401 162 463 150 401> 459 79<295 340> 623 57<335 359.5>
VStem: 69 75<137 179 137 220.5> 237 40<759 759> 403 71<343.5 376.5 338.5 383.5>
LayerCount: 2
Fore
SplineSet
451 759 m 1
 490 759 l 1
 477 715 467 695 448 672 c 0
 421 640 382 623 337 623 c 0
 271 623 236 660 236 730 c 1
 237 759 l 1
 277 759 l 1
 279 737 280 731 284 721 c 0
 294 694 318 680 352 680 c 0
 401 680 426 701 451 759 c 1
373 164 m 1
 445 164 l 1
 407 51 326 -15 226 -15 c 0
 126 -15 69 53 69 172 c 0
 69 269 102 375 153 443 c 0
 199 505 261 538 329 538 c 0
 380 538 421 518 442 482 c 0
 461 449 474 399 474 354 c 0
 474 323 470 282 463 233 c 1
 150 233 l 1
 146 208 144 187 144 171 c 0
 144 103 181 61 242 61 c 0
 300 61 355 104 373 164 c 1
162 303 m 1
 401 303 l 1
 402 321 403 337 403 350 c 0
 403 417 368 459 312 459 c 0
 243 459 183 396 162 303 c 1
EndSplineSet
EndChar

StartChar: Edotaccent
Encoding: 273 278 166
Width: 547
Flags: MW
HStem: 0 86<166 506> 326 86<222 530 207 545> 632 86<261 610 261 261> 799 102<393 450 375 468>
LayerCount: 2
Fore
SplineSet
521 86 m 1
 506 0 l 1
 71 0 l 1
 196 718 l 1
 625 718 l 1
 610 632 l 1
 261 632 l 1
 222 412 l 1
 545 412 l 1
 530 326 l 1
 207 326 l 1
 166 86 l 1
 521 86 l 1
468 901 m 1
 450 799 l 1
 375 799 l 1
 393 901 l 1
 468 901 l 1
EndSplineSet
EndChar

StartChar: Eogonek
Encoding: 274 280 167
Width: 547
Flags: MW
HStem: -225 47<427.5 429.5> 0 86<166 451 506 506> 326 86<222 530 207 545> 632 86<261 610 261 261>
VStem: 337 64<-154.5 -135.5>
LayerCount: 2
Fore
SplineSet
625 718 m 1
 610 632 l 1
 261 632 l 1
 222 412 l 1
 545 412 l 1
 530 326 l 1
 207 326 l 1
 166 86 l 1
 521 86 l 1
 506 0 l 1
 456 -34 436 -52 421 -76 c 0
 409 -94 401 -122 401 -143 c 0
 401 -166 415 -178 440 -178 c 0
 456 -178 469 -175 494 -163 c 1
 501 -203 l 1
 468 -218 442 -225 417 -225 c 0
 369 -225 337 -196 337 -152 c 0
 337 -119 354 -77 378 -48 c 0
 398 -24 413 -15 451 0 c 1
 71 0 l 1
 196 718 l 1
 625 718 l 1
EndSplineSet
EndChar

StartChar: eogonek
Encoding: 340 281 233
Width: 456
Flags: MW
HStem: -225 47<269 273> -15 76<211.5 233> 233 70<162 401 162 463 150 401> 459 79<295 340>
VStem: 69 75<137 179 137 220.5> 180 63<-151 -125> 403 71<343.5 376.5 338.5 383.5>
LayerCount: 2
Fore
SplineSet
463 233 m 1
 150 233 l 1
 146 208 144 187 144 171 c 0
 144 103 181 61 242 61 c 0
 300 61 355 104 373 164 c 1
 445 164 l 1
 422 99 410 82 318 -12 c 1
 257 -76 243 -98 243 -136 c 0
 243 -166 255 -178 283 -178 c 0
 299 -178 312 -175 338 -163 c 1
 345 -203 l 1
 312 -218 286 -225 260 -225 c 0
 212 -225 180 -196 180 -152 c 0
 180 -98 216 -39 267 -12 c 1
 248 -14 239 -15 227 -15 c 0
 126 -15 69 53 69 172 c 0
 69 269 102 375 153 443 c 0
 199 505 261 538 329 538 c 0
 380 538 421 518 442 482 c 0
 461 449 474 399 474 354 c 0
 474 323 470 282 463 233 c 1
162 303 m 1
 401 303 l 1
 402 321 403 337 403 350 c 0
 403 417 368 459 312 459 c 0
 243 459 183 396 162 303 c 1
EndSplineSet
EndChar

StartChar: Gbreve
Encoding: 275 286 168
Width: 638
Flags: MW
HStem: -19 83<279.5 347.5> 301 83<372 644 386 555> 651 86<399.5 453> 790 57<452 476.5>
VStem: 91 84<207 308>
LayerCount: 2
Fore
SplineSet
372 301 m 1
 386 384 l 1
 644 384 l 1
 578 0 l 1
 526 0 l 1
 523 93 l 1
 458 16 390 -19 305 -19 c 0
 240 -19 190 3 155 47 c 0
 113 100 91 168 91 246 c 0
 91 370 136 513 203 602 c 0
 270 690 354 737 445 737 c 0
 570 737 655 651 655 524 c 2
 655 500 l 1
 578 500 l 1
 574 557 564 585 538 612 c 1
 513 636 474 651 432 651 c 0
 288 651 175 476 175 252 c 0
 175 128 228 64 331 64 c 0
 387 64 436 85 478 129 c 0
 519 171 539 215 555 301 c 1
 372 301 l 1
568 926 m 1
 607 926 l 1
 594 882 584 862 565 839 c 0
 538 807 499 790 454 790 c 0
 388 790 353 827 353 897 c 1
 354 926 l 1
 394 926 l 1
 396 904 397 898 401 888 c 0
 411 861 435 847 469 847 c 0
 518 847 543 868 568 926 c 1
EndSplineSet
EndChar

StartChar: gbreve
Encoding: 341 287 234
Width: 456
Flags: MW
HStem: -220 73<160.5 210> -15 76<205 243> 459 79<278 331.5> 595 57<327 351.5> 711 20<229 269 269 269 443 482 482 482>
VStem: 72 74<146 219 146 282.5>
LayerCount: 2
Fore
SplineSet
500 523 m 1
 416 43 l 2
 402 -41 382 -93 350 -136 c 0
 309 -191 247 -220 173 -220 c 0
 130 -220 96 -209 72 -188 c 0
 44 -162 34 -133 34 -74 c 2
 34 -64 l 1
 106 -64 l 1
 109 -122 133 -147 188 -147 c 0
 238 -147 276 -128 302 -88 c 0
 321 -60 332 -27 343 37 c 1
 347 58 l 1
 309 7 270 -15 216 -15 c 0
 125 -15 72 58 72 184 c 0
 72 381 175 538 303 538 c 0
 361 538 391 514 418 446 c 1
 432 523 l 1
 500 523 l 1
302 459 m 0
 254 459 212 430 188 380 c 1
 162 329 146 253 146 185 c 0
 146 107 178 61 232 61 c 0
 272 61 313 85 341 128 c 1
 370 170 391 257 391 334 c 0
 391 417 361 459 302 459 c 0
443 731 m 1
 482 731 l 1
 469 687 459 667 440 644 c 0
 413 612 374 595 329 595 c 0
 263 595 228 632 228 702 c 1
 229 731 l 1
 269 731 l 1
 271 709 272 703 276 693 c 0
 286 666 310 652 344 652 c 0
 393 652 418 673 443 731 c 1
EndSplineSet
EndChar

StartChar: gcommaaccent
Encoding: 386 291 279
Width: 456
Flags: MW
HStem: -220 73<160.5 210> -15 76<205 243> 459 79<278 331.5> 592 101<348 370 293 388>
VStem: 72 74<146 219 146 282.5>
LayerCount: 2
Fore
SplineSet
500 523 m 1
 416 43 l 2
 402 -41 382 -93 350 -136 c 0
 309 -191 247 -220 173 -220 c 0
 130 -220 96 -209 72 -188 c 0
 44 -162 34 -133 34 -74 c 2
 34 -64 l 1
 106 -64 l 1
 109 -122 133 -147 188 -147 c 0
 238 -147 276 -128 302 -88 c 0
 321 -60 332 -27 343 37 c 1
 347 58 l 1
 309 7 270 -15 216 -15 c 0
 125 -15 72 58 72 184 c 0
 72 381 175 538 303 538 c 0
 361 538 391 514 418 446 c 1
 432 523 l 1
 500 523 l 1
302 459 m 0
 254 459 212 430 188 380 c 1
 162 329 146 253 146 185 c 0
 146 107 178 61 232 61 c 0
 272 61 313 85 341 128 c 1
 370 170 391 257 391 334 c 0
 391 417 361 459 302 459 c 0
370 592 m 1
 293 592 l 1
 309 686 l 2
 323 766 359 814 409 818 c 1
 402 779 l 1
 374 776 356 747 348 693 c 1
 388 693 l 1
 370 592 l 1
EndSplineSet
EndChar

StartChar: Hcircumflex
Encoding: 634 292 527
Width: 592
Flags: MW
HStem: 0 21G<63 143 63 63 450 530 450 450> 335 86<216 509 201 524> 698 20G<188 268 268 268 575 655 655 655>
LayerCount: 2
Fore
SplineSet
455 911 m 1
 385 818 l 1
 320 818 l 1
 426 959 l 1
 502 959 l 1
 558 818 l 1
 493 818 l 1
 455 911 l 1
524 421 m 1
 575 718 l 1
 655 718 l 1
 530 0 l 1
 450 0 l 1
 509 335 l 1
 201 335 l 1
 143 0 l 1
 63 0 l 1
 188 718 l 1
 268 718 l 1
 216 421 l 1
 524 421 l 1
EndSplineSet
EndChar

StartChar: hcircumflex
Encoding: 635 293 528
Width: 456
Flags: MW
HStem: 0 21G<53 125 53 53 331 403 331 331> 459 79<322.5 350> 698 20G<178 251 251 251>
VStem: 395 75<401.5 413.5>
LayerCount: 2
Fore
SplineSet
387 911 m 1
 317 818 l 1
 252 818 l 1
 358 959 l 1
 434 959 l 1
 490 818 l 1
 425 818 l 1
 387 911 l 1
251 718 m 1
 204 451 l 1
 257 516 294 538 351 538 c 0
 426 538 470 491 470 410 c 0
 470 393 468 375 465 356 c 2
 403 0 l 1
 331 0 l 1
 390 342 l 2
 393 358 395 378 395 390 c 0
 395 437 373 459 327 459 c 0
 250 459 194 396 175 285 c 2
 125 0 l 1
 53 0 l 1
 178 718 l 1
 251 718 l 1
EndSplineSet
EndChar

StartChar: Hbar
Encoding: 636 294 529
Width: 632
Flags: MW
HStem: 0 21G<83 163 83 83 470 550 470 470> 335 86<236 529 221 544> 561 73<113 181 100 193 273 568 113 261 660 724> 698 20G<208 288 288 288 595 675 675 675>
LayerCount: 2
Fore
SplineSet
660 634 m 1
 737 634 l 1
 724 561 l 1
 648 561 l 1
 550 0 l 1
 470 0 l 1
 529 335 l 1
 221 335 l 1
 163 0 l 1
 83 0 l 1
 181 561 l 1
 100 561 l 1
 113 634 l 1
 193 634 l 1
 208 718 l 1
 288 718 l 1
 273 634 l 1
 581 634 l 1
 595 718 l 1
 675 718 l 1
 660 634 l 1
261 561 m 1
 236 421 l 1
 544 421 l 1
 568 561 l 1
 261 561 l 1
EndSplineSet
EndChar

StartChar: hbar
Encoding: 637 295 530
Width: 456
Flags: MW
HStem: 0 21G<53 125 53 53 331 403 331 331> 459 79<322.5 350> 576 73<93 153 80 166 239 324 93 226> 698 20G<178 251 251 251>
VStem: 395 75<401.5 413.5>
LayerCount: 2
Fore
SplineSet
166 649 m 1
 178 718 l 1
 251 718 l 1
 239 649 l 1
 337 649 l 1
 324 576 l 1
 226 576 l 1
 204 451 l 1
 257 516 294 538 351 538 c 0
 426 538 470 491 470 410 c 0
 470 393 468 375 465 356 c 2
 403 0 l 1
 331 0 l 1
 390 342 l 2
 393 358 395 378 395 390 c 0
 395 437 373 459 327 459 c 0
 250 459 194 396 175 285 c 2
 125 0 l 1
 53 0 l 1
 153 576 l 1
 80 576 l 1
 93 649 l 1
 166 649 l 1
EndSplineSet
EndChar

StartChar: Itilde
Encoding: 638 296 531
Width: 228
Flags: W
HStem: 0 21G<75 154 75 75> 698 20G<200 279 279 279> 825 63<324.5 337.5> 862 63<196.5 208>
VStem: 75 342
LayerCount: 2
Fore
SplineSet
376 934 m 1xe8
 417 934 l 1
 395 863 360 825 315 825 c 0xe8
 303 825 290 829 270 838 c 2
 250 847 l 2
 227 858 213 862 203 862 c 0
 183 862 170 850 156 818 c 1
 117 818 l 1
 140 892 172 925 221 925 c 0xd8
 237 925 256 920 274 910 c 2
 291 901 l 2
 306 893 320 888 329 888 c 0
 351 888 364 901 376 934 c 1xe8
279 718 m 1
 154 0 l 1
 75 0 l 1
 200 718 l 1
 279 718 l 1
EndSplineSet
EndChar

StartChar: itilde
Encoding: 639 297 532
Width: 228
Flags: W
HStem: 0 21G<78 150 78 78> 503 20G<169 241 241 241> 630 63<290.5 303.5> 667 63<162.5 174>
VStem: 78 305
LayerCount: 2
Fore
SplineSet
342 739 m 1xe8
 383 739 l 1
 361 668 326 630 281 630 c 0xe8
 269 630 256 634 236 643 c 2
 216 652 l 2
 193 663 179 667 169 667 c 0
 149 667 136 655 122 623 c 1
 83 623 l 1
 106 697 138 730 187 730 c 0xd8
 203 730 222 725 240 715 c 2
 257 706 l 2
 272 698 286 693 295 693 c 0
 317 693 330 706 342 739 c 1xe8
241 523 m 1
 150 0 l 1
 78 0 l 1
 169 523 l 1
 241 523 l 1
EndSplineSet
EndChar

StartChar: Imacron
Encoding: 312 298 205
Width: 228
Flags: MW
HStem: 0 20 698 20<200 279 279 279> 822 57<138 385 128 395>
LayerCount: 2
Fore
SplineSet
279 718 m 1
 154 0 l 1
 75 0 l 1
 200 718 l 1
 279 718 l 1
395 879 m 1
 385 822 l 1
 128 822 l 1
 138 879 l 1
 395 879 l 1
EndSplineSet
EndChar

StartChar: imacron
Encoding: 376 299 269
Width: 228
Flags: MW
HStem: 0 20 503 20<169 241 241 241> 627 57<105 352 95 362>
LayerCount: 2
Fore
SplineSet
241 523 m 1
 150 0 l 1
 78 0 l 1
 169 523 l 1
 241 523 l 1
362 684 m 1
 352 627 l 1
 95 627 l 1
 105 684 l 1
 362 684 l 1
EndSplineSet
EndChar

StartChar: Ibreve
Encoding: 640 300 533
Width: 228
Flags: MW
HStem: 0 21G<75 154 75 75> 698 20G<200 279 279 279> 818 57<253 277.5>
VStem: 155 40<954 954>
LayerCount: 2
Fore
SplineSet
369 954 m 1
 408 954 l 1
 395 910 385 890 366 867 c 0
 339 835 300 818 255 818 c 0
 189 818 154 855 154 925 c 1
 155 954 l 1
 195 954 l 1
 197 932 198 926 202 916 c 0
 212 889 236 875 270 875 c 0
 319 875 344 896 369 954 c 1
279 718 m 1
 154 0 l 1
 75 0 l 1
 200 718 l 1
 279 718 l 1
EndSplineSet
EndChar

StartChar: ibreve
Encoding: 641 301 534
Width: 228
Flags: MW
HStem: 0 21G<78 150 78 78> 503 20G<169 241 241 241> 623 57<218 242.5>
VStem: 120 40<759 759>
LayerCount: 2
Fore
SplineSet
334 759 m 1
 373 759 l 1
 360 715 350 695 331 672 c 0
 304 640 265 623 220 623 c 0
 154 623 119 660 119 730 c 1
 120 759 l 1
 160 759 l 1
 162 737 163 731 167 721 c 0
 177 694 201 680 235 680 c 0
 284 680 309 701 334 759 c 1
241 523 m 1
 150 0 l 1
 78 0 l 1
 169 523 l 1
 241 523 l 1
EndSplineSet
EndChar

StartChar: Iogonek
Encoding: 313 302 206
Width: 228
Flags: MW
HStem: -225 47<75.5 78> 698 20<199 279 279 279>
VStem: -15 64<-154.5 -135.5>
LayerCount: 2
Fore
SplineSet
279 718 m 1
 154 0 l 1
 104 -34 84 -52 69 -76 c 0
 57 -94 49 -122 49 -143 c 0
 49 -166 63 -178 88 -178 c 0
 105 -178 117 -175 143 -163 c 1
 150 -203 l 1
 117 -218 91 -225 65 -225 c 0
 17 -225 -15 -196 -15 -152 c 0
 -15 -119 2 -77 27 -48 c 0
 47 -24 61 -15 99 0 c 1
 75 0 l 1
 199 718 l 1
 279 718 l 1
EndSplineSet
EndChar

StartChar: iogonek
Encoding: 387 303 280
Width: 182
Flags: MW
HStem: -225 47<48.5 51> 618 100<180 234 162 252>
VStem: -42 64<-154.5 -135.5>
LayerCount: 2
Fore
SplineSet
218 523 m 1
 127 0 l 1
 77 -34 55 -54 42 -75 c 0
 30 -94 22 -122 22 -143 c 0
 22 -166 36 -178 61 -178 c 0
 78 -178 90 -175 116 -163 c 1
 123 -203 l 1
 90 -218 64 -225 38 -225 c 0
 -10 -225 -42 -196 -42 -152 c 0
 -42 -119 -25 -77 0 -48 c 0
 20 -24 34 -15 72 0 c 1
 55 0 l 1
 146 523 l 1
 218 523 l 1
234 618 m 1
 162 618 l 1
 180 718 l 1
 252 718 l 1
 234 618 l 1
EndSplineSet
EndChar

StartChar: Idotaccent
Encoding: 280 304 173
Width: 228
Flags: MW
HStem: 0 20 698 20<200 279 279 279> 799 102<233 290 215 308>
LayerCount: 2
Fore
SplineSet
279 718 m 1
 154 0 l 1
 75 0 l 1
 200 718 l 1
 279 718 l 1
308 901 m 1
 290 799 l 1
 215 799 l 1
 233 901 l 1
 308 901 l 1
EndSplineSet
EndChar

StartChar: dotlessi
Encoding: 245 305 144
Width: 228
Flags: MW
HStem: 0 20 503 20<169 241 241 241>
LayerCount: 2
Fore
SplineSet
241 523 m 1
 150 0 l 1
 78 0 l 1
 169 523 l 1
 241 523 l 1
EndSplineSet
EndChar

StartChar: IJ
Encoding: 642 306 535
Width: 624
Flags: MW
HStem: -19 83<365 420.5 365 432> 698 20G<200 279 279 279 597 676 676 676>
VStem: 239 78<114 126.5>
LayerCount: 2
Fore
SplineSet
255 231 m 1
 329 231 l 1
 321 181 l 2
 318 167 317 154 317 139 c 0
 317 89 341 64 389 64 c 0
 452 64 490 104 504 188 c 2
 597 718 l 1
 676 718 l 1
 585 194 l 2
 561 58 486 -19 378 -19 c 0
 289 -19 239 31 239 120 c 0
 239 133 240 147 242 160 c 2
 255 231 l 1
279 718 m 1
 154 0 l 1
 75 0 l 1
 200 718 l 1
 279 718 l 1
EndSplineSet
Ligature2: "'liga' Standard Ligatures in Latin lookup 0 subtable" I J
EndChar

StartChar: ij
Encoding: 643 307 536
Width: 320
Flags: MW
HStem: -210 79<117.5 119 119 142 104 160> 0 21G<55 127 55 55> 503 20G<146 218 218 218 286 358 358 358> 618 100<180 235 163 252 320 375 180 303>
VStem: 55 337
LayerCount: 2
Fore
SplineSet
358 523 m 1
 254 -77 l 2
 238 -168 197 -210 123 -210 c 0
 112 -210 102 -209 91 -207 c 1
 104 -131 l 1
 119 -131 l 2
 165 -131 174 -122 183 -67 c 2
 286 523 l 1
 358 523 l 1
392 718 m 1
 375 618 l 1
 303 618 l 1
 320 718 l 1
 392 718 l 1
218 523 m 1
 127 0 l 1
 55 0 l 1
 146 523 l 1
 218 523 l 1
235 618 m 1
 163 618 l 1
 180 718 l 1
 252 718 l 1
 235 618 l 1
EndSplineSet
Ligature2: "'liga' Standard Ligatures in Latin lookup 0 subtable" i j
EndChar

StartChar: jcircumflex
Encoding: 645 309 538
Width: 182
Flags: MW
HStem: -210 79<-22.5 -21 -21 2 -36 20> 503 20G<146 218 218 218> 714 20G<227 303 303 303>
VStem: -49 408
LayerCount: 2
Fore
SplineSet
218 523 m 1
 114 -77 l 2
 98 -168 57 -210 -17 -210 c 0
 -28 -210 -38 -209 -49 -207 c 1
 -36 -131 l 1
 -21 -131 l 2
 25 -131 34 -122 43 -67 c 2
 146 523 l 1
 218 523 l 1
256 686 m 1
 186 593 l 1
 121 593 l 1
 227 734 l 1
 303 734 l 1
 359 593 l 1
 294 593 l 1
 256 686 l 1
EndSplineSet
EndChar

StartChar: Kcommaaccent
Encoding: 314 310 207
Width: 547
Flags: MW
HStem: -161 101<223 245 205 300> 0 20 698 20<187 267 267 267 552 662 662 662>
LayerCount: 2
Fore
SplineSet
185 252 m 1
 142 0 l 1
 62 0 l 1
 187 718 l 1
 267 718 l 1
 206 370 l 1
 552 718 l 1
 662 718 l 1
 366 428 l 1
 543 0 l 1
 440 0 l 1
 297 360 l 1
 185 252 l 1
223 -60 m 1
 300 -60 l 1
 284 -154 l 2
 270 -234 233 -282 184 -286 c 1
 191 -247 l 1
 219 -244 237 -215 245 -161 c 1
 205 -161 l 1
 223 -60 l 1
EndSplineSet
EndChar

StartChar: kcommaaccent
Encoding: 377 311 270
Width: 410
Flags: MW
HStem: -161 101<155 177 137 232> 0 20 698 20<180 250 250 250>
LayerCount: 2
Fore
SplineSet
294 328 m 1
 411 0 l 1
 318 0 l 1
 231 264 l 1
 159 198 l 1
 125 0 l 1
 55 0 l 1
 180 718 l 1
 250 718 l 1
 177 302 l 1
 400 523 l 1
 492 523 l 1
 294 328 l 1
155 -60 m 1
 232 -60 l 1
 216 -154 l 2
 202 -234 165 -282 116 -286 c 1
 123 -247 l 1
 151 -244 169 -215 177 -161 c 1
 137 -161 l 1
 155 -60 l 1
EndSplineSet
EndChar

StartChar: Lacute
Encoding: 281 313 174
Width: 456
Flags: MW
HStem: 0 86<157 440> 698 20<187 267 267 267>
LayerCount: 2
Fore
SplineSet
267 718 m 1
 157 86 l 1
 455 86 l 1
 440 0 l 1
 62 0 l 1
 187 718 l 1
 267 718 l 1
435 929 m 1
 303 788 l 1
 248 788 l 1
 346 929 l 1
 435 929 l 1
EndSplineSet
EndChar

StartChar: lacute
Encoding: 346 314 239
Width: 182
Flags: W
HStem: 0 20 698 20<180 252 252 252> 714 20
LayerCount: 2
Fore
SplineSet
252 718 m 1xc0
 127 0 l 1
 55 0 l 1
 180 718 l 1
 252 718 l 1xc0
378 929 m 1x20
 246 788 l 1
 191 788 l 1
 289 929 l 1
 378 929 l 1x20
EndSplineSet
EndChar

StartChar: Lcommaaccent
Encoding: 315 315 208
Width: 456
Flags: MW
HStem: -161 101<198 220 180 275> 0 86<157 440> 698 20<187 267 267 267>
LayerCount: 2
Fore
SplineSet
267 718 m 1
 157 86 l 1
 455 86 l 1
 440 0 l 1
 62 0 l 1
 187 718 l 1
 267 718 l 1
198 -60 m 1
 275 -60 l 1
 259 -154 l 2
 245 -234 208 -282 159 -286 c 1
 166 -247 l 1
 194 -244 212 -215 220 -161 c 1
 180 -161 l 1
 198 -60 l 1
EndSplineSet
EndChar

StartChar: lcommaaccent
Encoding: 378 316 271
Width: 182
Flags: MW
HStem: -161 101<41 63 23 118> 698 20<180 252 252 252>
LayerCount: 2
Fore
SplineSet
252 718 m 1
 127 0 l 1
 55 0 l 1
 180 718 l 1
 252 718 l 1
41 -60 m 1
 118 -60 l 1
 102 -154 l 2
 88 -234 51 -282 2 -286 c 1
 9 -247 l 1
 37 -244 55 -215 63 -161 c 1
 23 -161 l 1
 41 -60 l 1
EndSplineSet
EndChar

StartChar: Lcaron
Encoding: 282 317 175
Width: 456
Flags: W
HStem: 0 86<157 440> 617 101<459 481> 698 20<187 267 267 267 459 536 536 536>
LayerCount: 2
Fore
SplineSet
267 718 m 1xa0
 157 86 l 1
 455 86 l 1
 440 0 l 1
 62 0 l 1
 187 718 l 1
 267 718 l 1xa0
459 718 m 1x40
 536 718 l 1
 520 624 l 2
 506 544 469 496 420 492 c 1
 427 531 l 1
 455 534 473 563 481 617 c 1
 441 617 l 1
 459 718 l 1x40
EndSplineSet
EndChar

StartChar: lcaron
Encoding: 347 318 240
Width: 217
Flags: W
HStem: 0 20 617 101<280 302 180 262> 698 20<180 252 252 252 280 357 357 357>
LayerCount: 2
Fore
SplineSet
252 718 m 1xa0
 127 0 l 1
 55 0 l 1
 180 718 l 1
 252 718 l 1xa0
280 718 m 1x40
 357 718 l 1
 341 624 l 2
 327 544 290 496 241 492 c 1
 248 531 l 1
 276 534 294 563 302 617 c 1
 262 617 l 1
 280 718 l 1x40
EndSplineSet
EndChar

StartChar: Ldot
Encoding: 647 319 540
Width: 456
Flags: MW
HStem: 0 86<157 440> 698 20G<187 267 267 267>
VStem: 261 105<351.5 364.5>
LayerCount: 2
Fore
SplineSet
325 421 m 0
 348 421 366 399 366 370 c 0
 366 333 334 296 302 296 c 0
 279 296 261 317 261 345 c 0
 261 384 292 421 325 421 c 0
267 718 m 1
 157 86 l 1
 455 86 l 1
 440 0 l 1
 62 0 l 1
 187 718 l 1
 267 718 l 1
EndSplineSet
Ligature2: "'liga' Standard Ligatures in Latin lookup 0 subtable" L periodcentered
EndChar

StartChar: ldot
Encoding: 648 320 541
Width: 410
Flags: MW
HStem: 0 21G<55 127 55 55> 698 20G<180 252 252 252>
VStem: 288 105<245.5 258.5>
LayerCount: 2
Fore
SplineSet
352 315 m 0
 375 315 393 293 393 264 c 0
 393 227 361 190 329 190 c 0
 306 190 288 211 288 239 c 0
 288 278 319 315 352 315 c 0
252 718 m 1
 127 0 l 1
 55 0 l 1
 180 718 l 1
 252 718 l 1
EndSplineSet
Ligature2: "'liga' Standard Ligatures in Latin lookup 0 subtable" l periodcentered
EndChar

StartChar: Lslash
Encoding: 232 321 139
Width: 456
Flags: MW
HStem: 0 86<157 440> 698 20<187 267 267 267>
LayerCount: 2
Fore
SplineSet
329 520 m 1
 319 462 l 1
 211 395 l 1
 157 86 l 1
 455 86 l 1
 440 0 l 1
 62 0 l 1
 122 344 l 1
 34 289 l 1
 44 347 l 1
 132 402 l 1
 187 718 l 1
 267 718 l 1
 221 453 l 1
 329 520 l 1
EndSplineSet
EndChar

StartChar: lslash
Encoding: 248 322 145
Width: 182
Flags: MW
HStem: 0 20 698 20<180 252 252 252>
LayerCount: 2
Fore
SplineSet
274 435 m 1
 194 385 l 1
 127 0 l 1
 55 0 l 1
 114 339 l 1
 34 289 l 1
 44 347 l 1
 124 397 l 1
 180 718 l 1
 252 718 l 1
 204 443 l 1
 284 493 l 1
 274 435 l 1
EndSplineSet
EndChar

StartChar: Nacute
Encoding: 283 323 176
Width: 592
Flags: MW
HStem: 0 20 698 20<187 282 282 282 578 655 655 655>
LayerCount: 2
Fore
SplineSet
476 135 m 1
 578 718 l 1
 655 718 l 1
 530 0 l 1
 440 0 l 1
 241 583 l 1
 139 0 l 1
 62 0 l 1
 187 718 l 1
 282 718 l 1
 476 135 l 1
583 929 m 1
 451 788 l 1
 396 788 l 1
 494 929 l 1
 583 929 l 1
EndSplineSet
EndChar

StartChar: nacute
Encoding: 348 324 241
Width: 456
Flags: W
HStem: 0 20 459 79<322.5 346> 503 20<144 212 212 212> 714 20<393 482 482 482>
VStem: 392 78<401.5 407.5>
LayerCount: 2
Fore
SplineSet
212 523 m 1xa8
 199 446 l 1
 249 511 293 538 352 538 c 0
 426 538 470 490 470 410 c 0
 470 393 468 375 465 356 c 2
 403 0 l 1
 331 0 l 1
 387 322 l 2
 390 342 392 362 392 382 c 0
 392 433 369 459 323 459 c 0xc8
 250 459 194 393 175 285 c 2
 125 0 l 1
 53 0 l 1
 144 523 l 1
 212 523 l 1xa8
482 734 m 1x18
 350 593 l 1
 295 593 l 1
 393 734 l 1
 482 734 l 1x18
EndSplineSet
EndChar

StartChar: Ncommaaccent
Encoding: 316 325 209
Width: 592
Flags: MW
HStem: -161 101<246 268 228 323> 0 20 698 20<187 282 282 282 578 655 655 655>
LayerCount: 2
Fore
SplineSet
476 135 m 1
 578 718 l 1
 655 718 l 1
 530 0 l 1
 440 0 l 1
 241 583 l 1
 139 0 l 1
 62 0 l 1
 187 718 l 1
 282 718 l 1
 476 135 l 1
246 -60 m 1
 323 -60 l 1
 307 -154 l 2
 293 -234 256 -282 207 -286 c 1
 214 -247 l 1
 242 -244 260 -215 268 -161 c 1
 228 -161 l 1
 246 -60 l 1
EndSplineSet
EndChar

StartChar: Ncaron
Encoding: 284 327 177
Width: 592
Flags: MW
HStem: 0 20 698 20<187 282 282 282 578 655 655 655>
LayerCount: 2
Fore
SplineSet
476 135 m 1
 578 718 l 1
 655 718 l 1
 530 0 l 1
 440 0 l 1
 241 583 l 1
 139 0 l 1
 62 0 l 1
 187 718 l 1
 282 718 l 1
 476 135 l 1
403 929 m 1
 441 836 l 1
 511 929 l 1
 577 929 l 1
 471 788 l 1
 395 788 l 1
 338 929 l 1
 403 929 l 1
EndSplineSet
EndChar

StartChar: ncaron
Encoding: 349 328 242
Width: 456
Flags: W
HStem: 0 20 459 79<322.5 346> 503 20<144 212 212 212> 714 20<237 302 302 302 410 476 476 476>
VStem: 392 78<401.5 407.5>
LayerCount: 2
Fore
SplineSet
212 523 m 1xa8
 199 446 l 1
 249 511 293 538 352 538 c 0
 426 538 470 490 470 410 c 0
 470 393 468 375 465 356 c 2
 403 0 l 1
 331 0 l 1
 387 322 l 2
 390 342 392 362 392 382 c 0
 392 433 369 459 323 459 c 0xc8
 250 459 194 393 175 285 c 2
 125 0 l 1
 53 0 l 1
 144 523 l 1
 212 523 l 1xa8
302 734 m 1x18
 340 641 l 1
 410 734 l 1
 476 734 l 1
 370 593 l 1
 294 593 l 1
 237 734 l 1
 302 734 l 1x18
EndSplineSet
EndChar

StartChar: napostrophe
Encoding: 649 329 542
Width: 456
Flags: MW
HStem: 0 21G<53 125 53 53 331 403 331 331> 459 79<322.5 346> 671 20G<174 174 174 218>
VStem: 392 78<401.5 407.5>
LayerCount: 2
Fore
SplineSet
174 691 m 1
 193 797 l 1
 278 797 l 1
 261 699 l 2
 245 608 210 559 148 542 c 1
 156 589 l 1
 189 596 207 626 218 691 c 1
 174 691 l 1
212 523 m 1
 199 446 l 1
 249 511 293 538 352 538 c 0
 426 538 470 490 470 410 c 0
 470 393 468 375 465 356 c 2
 403 0 l 1
 331 0 l 1
 387 322 l 2
 390 342 392 362 392 382 c 0
 392 433 369 459 323 459 c 0
 250 459 194 393 175 285 c 2
 125 0 l 1
 53 0 l 1
 144 523 l 1
 212 523 l 1
EndSplineSet
EndChar

StartChar: Eng
Encoding: 650 330 543
Width: 592
Flags: MW
HStem: -131 85<325 344.5 325 353.5> 0 21G<62 139 62 62 440 440 530 530> 698 20G<187 282 282 282 578 655 655 655>
LayerCount: 2
Fore
SplineSet
440 0 m 1
 241 583 l 1
 139 0 l 1
 62 0 l 1
 187 718 l 1
 282 718 l 1
 476 135 l 1
 578 718 l 1
 655 718 l 1
 530 0 l 2
 512 -106 382 -131 325 -131 c 1
 325 -46 l 1
 364 -46 428 -22 440 0 c 1
EndSplineSet
EndChar

StartChar: eng
Encoding: 651 331 544
Width: 456
Flags: MW
HStem: -174 72<220 242.5> 0 21G<53 125 53 53> 459 79<322.5 346>
VStem: 392 78<401.5 407.5>
LayerCount: 2
Fore
SplineSet
396 -53 m 2
 379 -152 283 -174 202 -174 c 1
 220 -102 l 1
 271 -102 315 -90 323 -45 c 2
 387 322 l 2
 390 342 392 362 392 382 c 0
 392 433 369 459 323 459 c 0
 250 459 194 393 175 285 c 2
 125 0 l 1
 53 0 l 1
 144 523 l 1
 212 523 l 1
 199 446 l 1
 249 511 293 538 352 538 c 0
 426 538 470 490 470 410 c 0
 470 393 468 375 465 356 c 2
 396 -53 l 2
EndSplineSet
EndChar

StartChar: Obreve
Encoding: 652 334 545
Width: 638
Flags: MW
HStem: -19 86<283.5 365.5> 651 86<398 482.5> 818 57<457 481.5>
VStem: 86 83<217 322> 359 40<954 954> 594 83<405.5 509>
LayerCount: 2
Fore
SplineSet
573 954 m 1
 612 954 l 1
 599 910 589 890 570 867 c 0
 543 835 504 818 459 818 c 0
 393 818 358 855 358 925 c 1
 359 954 l 1
 399 954 l 1
 401 932 402 926 406 916 c 0
 416 889 440 875 474 875 c 0
 523 875 548 896 573 954 c 1
447 737 m 0
 593 737 677 634 677 456 c 0
 677 335 635 207 566 115 c 0
 499 26 415 -19 316 -19 c 0
 251 -19 193 3 156 42 c 0
 114 86 86 173 86 261 c 0
 86 383 128 512 196 603 c 0
 263 691 349 737 447 737 c 0
432 651 m 0
 287 651 169 482 169 274 c 0
 169 145 230 67 330 67 c 0
 415 67 491 121 540 216 c 0
 574 283 594 366 594 445 c 0
 594 573 533 651 432 651 c 0
EndSplineSet
EndChar

StartChar: obreve
Encoding: 653 335 546
Width: 456
Flags: MW
HStem: -14 76<208 258.5> 462 76<289 339> 623 57<332 356.5>
VStem: 68 75<154 227 154 233.5> 234 40<759 759> 404 75<296.5 369>
LayerCount: 2
Fore
SplineSet
448 759 m 1
 487 759 l 1
 474 715 464 695 445 672 c 0
 418 640 379 623 334 623 c 0
 268 623 233 660 233 730 c 1
 234 759 l 1
 274 759 l 1
 276 737 277 731 281 721 c 0
 291 694 315 680 349 680 c 0
 398 680 423 701 448 759 c 1
322 538 m 0
 420 538 479 462 479 336 c 0
 479 244 448 149 397 81 c 0
 350 18 292 -14 225 -14 c 0
 127 -14 68 62 68 189 c 0
 68 278 100 377 150 443 c 0
 197 505 256 538 322 538 c 0
308 462 m 0
 258 462 215 430 184 370 c 0
 158 320 143 256 143 198 c 0
 143 110 177 62 239 62 c 0
 289 62 332 94 363 154 c 0
 389 204 404 268 404 325 c 0
 404 413 370 462 308 462 c 0
EndSplineSet
EndChar

StartChar: Ohungarumlaut
Encoding: 291 336 184
Width: 638
Flags: MW
HStem: -19 86<283.5 365.5> 651 86<398 482.5>
VStem: 86 83<217 322> 594 83<405.5 509>
LayerCount: 2
Fore
SplineSet
447 737 m 0
 593 737 677 634 677 456 c 0
 677 335 635 207 566 115 c 0
 499 26 415 -19 316 -19 c 0
 251 -19 193 3 156 42 c 0
 114 86 86 173 86 261 c 0
 86 383 128 512 196 603 c 0
 263 691 349 737 447 737 c 0
432 651 m 0
 287 651 169 482 169 274 c 0
 169 145 230 67 330 67 c 0
 415 67 491 121 540 216 c 0
 574 283 594 366 594 445 c 0
 594 573 533 651 432 651 c 0
532 929 m 1
 400 788 l 1
 345 788 l 1
 442 929 l 1
 532 929 l 1
679 929 m 1
 547 788 l 1
 492 788 l 1
 590 929 l 1
 679 929 l 1
EndSplineSet
EndChar

StartChar: OE
Encoding: 234 338 141
Width: 820
Flags: W
HStem: -19 83<250 304.5> 0 86<518 791> 326 86<575 834 560 849> 632 86<614 900 614 614> 654 83<362 432>
VStem: 80 81<193 286 183 288.5>
LayerCount: 2
Fore
SplineSet
541 642 m 1x8c
 554 718 l 1
 915 718 l 1
 900 632 l 1
 614 632 l 1
 575 412 l 1
 849 412 l 1
 834 326 l 1
 560 326 l 1
 518 86 l 1
 806 86 l 1
 791 0 l 1
 428 0 l 1x74
 441 78 l 1
 383 5 340 -19 269 -19 c 0
 217 -19 173 -2 142 31 c 0
 105 70 80 151 80 235 c 0
 80 342 108 459 156 553 c 0
 216 672 305 737 408 737 c 0
 478 737 517 709 541 642 c 1x8c
464 230 m 2x8c
 509 492 l 2
 512 505 513 519 513 531 c 0
 513 607 468 654 396 654 c 0
 328 654 271 612 230 533 c 0
 191 456 161 330 161 242 c 0
 161 124 206 64 294 64 c 0
 379 64 446 130 464 230 c 2x8c
EndSplineSet
EndChar

StartChar: oe
Encoding: 250 339 147
Width: 774
Flags: W
HStem: -15 76<528 587.5 528 592.5> -14 76<208 263.5> 233 70<478 718 478 780 466 718> 459 79<608.5 657> 462 76<288.5 339>
VStem: 68 75<154 226.5 154 234> 720 71<344 376.5 338.5 383.5>
LayerCount: 2
Fore
SplineSet
690 164 m 1xb6
 762 164 l 1
 724 50 643 -15 542 -15 c 0xb6
 470 -15 430 13 397 86 c 1
 352 17 299 -14 228 -14 c 0
 127 -14 68 61 68 188 c 0
 68 280 99 375 150 443 c 0
 197 506 256 538 321 538 c 0x4e
 368 538 407 521 434 488 c 0
 447 473 453 461 464 432 c 1
 522 509 572 538 645 538 c 0
 697 538 737 518 759 482 c 0
 779 449 791 399 791 354 c 0
 791 323 787 282 780 233 c 1
 466 233 l 1
 462 209 460 187 460 173 c 0
 460 104 498 61 558 61 c 0
 617 61 672 104 690 164 c 1xb6
478 303 m 1
 718 303 l 1
 719 321 720 338 720 350 c 0
 720 417 685 459 629 459 c 0
 559 459 499 397 478 303 c 1
308 462 m 0x4e
 258 462 215 430 185 370 c 0
 159 320 143 255 143 198 c 0
 143 110 177 62 239 62 c 0
 289 62 332 94 363 154 c 0
 388 204 404 269 404 325 c 0
 404 413 370 462 308 462 c 0x4e
EndSplineSet
EndChar

StartChar: racute
Encoding: 357 341 250
Width: 273
Flags: W
HStem: 0 20 444 94<321.5 322 322 349> 503 20<154 222 222 222> 714 20<301 390 390 390>
LayerCount: 2
Fore
SplineSet
349 444 m 1x40
 322 444 l 2x40
 259 444 202 385 188 304 c 2
 135 0 l 1
 63 0 l 1
 154 523 l 1
 222 523 l 1xa0
 206 433 l 1
 258 509 296 538 347 538 c 0
 354 538 359 537 365 535 c 1
 349 444 l 1x40
390 734 m 1x10
 258 593 l 1
 203 593 l 1
 301 734 l 1
 390 734 l 1x10
EndSplineSet
EndChar

StartChar: rcommaaccent
Encoding: 381 343 274
Width: 273
Flags: W
HStem: -161 101<47 69 29 124> 444 94<321.5 322 322 349> 503 20<154 222 222 222>
LayerCount: 2
Fore
SplineSet
349 444 m 1xc0
 322 444 l 2xc0
 259 444 202 385 188 304 c 2
 135 0 l 1
 63 0 l 1
 154 523 l 1
 222 523 l 1x20
 206 433 l 1
 258 509 296 538 347 538 c 0
 354 538 359 537 365 535 c 1
 349 444 l 1xc0
47 -60 m 1
 124 -60 l 1
 108 -154 l 2
 94 -234 57 -282 8 -286 c 1
 15 -247 l 1
 43 -244 61 -215 69 -161 c 1
 29 -161 l 1
 47 -60 l 1
EndSplineSet
EndChar

StartChar: Rcaron
Encoding: 293 344 186
Width: 592
Flags: W
HStem: 0 20 308 83<205 404 220 398> 635 83<262 262 262 461>
VStem: 486 82<223.5 287.5> 549 85<547.5 580>
LayerCount: 2
Fore
SplineSet
205 308 m 1xf0
 152 0 l 1
 72 0 l 1
 197 718 l 1
 470 718 l 2
 577 718 634 668 634 575 c 0xe8
 634 520 617 459 590 420 c 0
 572 393 555 378 518 353 c 1
 557 331 568 312 568 263 c 0
 568 251 567 233 565 218 c 2
 547 88 l 2
 545 74 544 63 544 54 c 0
 544 38 549 29 564 16 c 1
 561 0 l 1
 463 0 l 1
 463 17 l 2
 463 48 470 115 481 180 c 0
 484 200 486 217 486 230 c 0
 486 281 455 308 398 308 c 2
 205 308 l 1xf0
262 635 m 1
 220 391 l 1
 404 391 l 2
 459 391 496 408 520 444 c 0
 537 470 549 514 549 552 c 0
 549 608 521 635 461 635 c 2
 262 635 l 1
403 929 m 1
 441 836 l 1
 511 929 l 1
 577 929 l 1
 471 788 l 1
 395 788 l 1
 338 929 l 1
 403 929 l 1
EndSplineSet
EndChar

StartChar: rcaron
Encoding: 384 345 277
Width: 273
Flags: W
HStem: 0 20 444 94<321.5 322 322 349> 503 20<154 222 222 222> 714 20<145 210 210 210 318 384 384 384>
LayerCount: 2
Fore
SplineSet
349 444 m 1x40
 322 444 l 2x40
 259 444 202 385 188 304 c 2
 135 0 l 1
 63 0 l 1
 154 523 l 1
 222 523 l 1xa0
 206 433 l 1
 258 509 296 538 347 538 c 0
 354 538 359 537 365 535 c 1
 349 444 l 1x40
210 734 m 1x10
 248 641 l 1
 318 734 l 1
 384 734 l 1
 278 593 l 1
 202 593 l 1
 145 734 l 1
 210 734 l 1x10
EndSplineSet
EndChar

StartChar: Scedilla
Encoding: 296 350 189
Width: 547
Flags: W
HStem: -225 47<201.5 225.5 201 246> -97 161<227.5 345> 654 83<356.5 422>
VStem: 74 78<148 166.5> 146 81<488 503.5> 264 64<-143 -119> 467 80<210 241> 507 77<561.5 576>
LayerCount: 2
Fore
SplineSet
278 -19 m 1xea
 245 -62 l 1
 258 -59 264 -58 272 -58 c 0
 307 -58 328 -80 328 -116 c 0
 328 -177 278 -225 214 -225 c 0
 189 -225 168 -219 139 -203 c 1
 160 -163 l 1
 181 -174 193 -178 209 -178 c 0
 242 -178 264 -158 264 -128 c 0
 264 -110 250 -97 231 -97 c 0
 224 -97 215 -99 198 -105 c 1
 187 -86 l 1
 241 -17 l 1
 181 -11 147 5 119 38 c 0
 90 72 74 115 74 157 c 0
 74 176 76 202 81 232 c 1
 156 232 l 1
 153 214 152 197 152 186 c 0
 152 110 205 64 291 64 c 0
 399 64 467 123 467 217 c 0xf6
 467 265 441 288 360 312 c 2
 246 346 l 2
 180 366 146 410 146 475 c 0
 146 532 169 598 205 645 c 0
 251 706 315 737 398 737 c 0
 515 737 584 674 584 569 c 0
 584 554 583 532 580 508 c 1
 505 508 l 1
 506 521 507 532 507 541 c 0xe9
 507 611 460 654 384 654 c 0
 292 654 227 593 227 506 c 0
 227 470 245 448 283 437 c 2
 442 390 l 2
 511 370 547 320 547 246 c 0
 547 174 519 103 474 57 c 0
 426 9 361 -17 278 -19 c 1xea
EndSplineSet
EndChar

StartChar: scedilla
Encoding: 385 351 278
Width: 410
Flags: W
HStem: -225 47<133.5 157.5 132.5 178> -97 158<159 252> 462 76<250 307>
VStem: 52 72<114 122> 103 74<359 397> 196 64<-143 -119> 335 76<163 172> 364 70<404 417>
LayerCount: 2
Fore
SplineSet
213 -15 m 1xea
 176 -62 l 1
 190 -59 196 -58 203 -58 c 0
 239 -58 260 -80 260 -116 c 0
 260 -177 210 -225 146 -225 c 0
 121 -225 99 -219 71 -203 c 1
 91 -163 l 1
 113 -174 124 -178 141 -178 c 0
 174 -178 196 -158 196 -128 c 0
 196 -110 182 -97 162 -97 c 0
 156 -97 146 -99 129 -105 c 1
 119 -86 l 1
 176 -13 l 1
 94 -3 52 40 52 116 c 0
 52 128 53 147 56 168 c 1
 126 168 l 1
 125 157 124 147 124 139 c 0
 124 89 158 61 218 61 c 0
 286 61 335 101 335 158 c 0xf6
 335 186 316 202 261 219 c 2
 182 244 l 2
 129 261 103 293 103 342 c 0
 103 452 189 538 298 538 c 0
 382 538 434 489 434 408 c 0
 434 400 433 388 432 374 c 1
 362 374 l 1
 363 383 364 391 364 396 c 0xe9
 364 438 333 462 281 462 c 0
 219 462 177 425 177 372 c 0
 177 346 191 335 243 318 c 2
 312 296 l 2
 382 273 411 242 411 189 c 0
 411 137 387 80 350 43 c 0
 314 6 271 -12 213 -15 c 1xea
EndSplineSet
EndChar

StartChar: Scaron
Encoding: 295 352 188
Width: 547
Flags: W
HStem: -19 83<248 345 248 353.5> 654 83<356.5 422>
VStem: 74 78<148 166.5> 146 81<488 503.5> 467 80<170 241> 507 77<561.5 576>
LayerCount: 2
Fore
SplineSet
580 508 m 1xd4
 505 508 l 1
 506 521 507 532 507 541 c 0
 507 611 460 654 384 654 c 0
 292 654 227 593 227 506 c 0xd4
 227 470 245 448 283 437 c 2
 442 390 l 2
 511 370 547 320 547 246 c 0
 547 89 435 -19 272 -19 c 0
 193 -19 144 2 109 50 c 1
 87 82 74 120 74 157 c 0
 74 176 76 202 81 232 c 1
 156 232 l 1
 153 214 152 197 152 186 c 0
 152 110 205 64 291 64 c 0
 399 64 467 123 467 217 c 0xe8
 467 265 441 288 360 312 c 2
 246 346 l 2
 180 366 146 410 146 475 c 0
 146 532 169 598 205 645 c 0
 251 706 315 737 398 737 c 0
 515 737 584 674 584 569 c 0
 584 554 583 532 580 508 c 1xd4
381 929 m 1
 419 836 l 1
 489 929 l 1
 555 929 l 1
 449 788 l 1
 373 788 l 1
 316 929 l 1
 381 929 l 1
EndSplineSet
EndChar

StartChar: Tcommaaccent
Encoding: 309 354 202
Width: 501
Flags: MW
HStem: -161 101<200 222 182 277> 0 20 632 86<122 615 137 321 401 401 401 600>
LayerCount: 2
Fore
SplineSet
122 632 m 1
 137 718 l 1
 615 718 l 1
 600 632 l 1
 401 632 l 1
 291 0 l 1
 211 0 l 1
 321 632 l 1
 122 632 l 1
200 -60 m 1
 277 -60 l 1
 261 -154 l 2
 247 -234 210 -282 161 -286 c 1
 168 -247 l 1
 196 -244 214 -215 222 -161 c 1
 182 -161 l 1
 200 -60 l 1
EndSplineSet
EndChar

StartChar: tcommaaccent
Encoding: 373 355 266
Width: 228
Flags: MW
HStem: -161 101<64 86 46 141> -7 20 450 73<103 148 90 161 233 290 103 221>
VStem: 84 76<40.5 98>
LayerCount: 2
Fore
SplineSet
290 450 m 1
 221 450 l 1
 161 110 l 1
 160 98 l 1
 160 77 171 69 198 69 c 2
 223 69 l 1
 211 0 l 1
 194 -2 189 -3 178 -4 c 0
 163 -6 157 -7 152 -7 c 0
 108 -7 84 18 84 63 c 0
 84 74 86 90 88 105 c 2
 148 450 l 1
 90 450 l 1
 103 523 l 1
 161 523 l 1
 187 669 l 1
 259 669 l 1
 233 523 l 1
 302 523 l 1
 290 450 l 1
64 -60 m 1
 141 -60 l 1
 125 -154 l 2
 111 -234 74 -282 25 -286 c 1
 32 -247 l 1
 60 -244 78 -215 86 -161 c 1
 46 -161 l 1
 64 -60 l 1
EndSplineSet
EndChar

StartChar: Tcaron
Encoding: 297 356 190
Width: 501
Flags: MW
HStem: 0 20 632 86<122 615 137 321 401 401 401 600>
LayerCount: 2
Fore
SplineSet
122 632 m 1
 137 718 l 1
 615 718 l 1
 600 632 l 1
 401 632 l 1
 291 0 l 1
 211 0 l 1
 321 632 l 1
 122 632 l 1
358 929 m 1
 396 836 l 1
 466 929 l 1
 532 929 l 1
 426 788 l 1
 350 788 l 1
 293 929 l 1
 358 929 l 1
EndSplineSet
EndChar

StartChar: Tbar
Encoding: 656 358 549
Width: 501
Flags: MW
HStem: 0 21G<211 291 211 211> 379 73<114 277 101 290 370 515 114 357> 632 86<122 615 137 321 401 401 401 600>
LayerCount: 2
Fore
SplineSet
122 632 m 1
 137 718 l 1
 615 718 l 1
 600 632 l 1
 401 632 l 1
 370 452 l 1
 528 452 l 1
 515 379 l 1
 357 379 l 1
 291 0 l 1
 211 0 l 1
 277 379 l 1
 101 379 l 1
 114 452 l 1
 290 452 l 1
 321 632 l 1
 122 632 l 1
EndSplineSet
EndChar

StartChar: tbar
Encoding: 657 359 550
Width: 228
Flags: MW
HStem: -7 21G<129.5 154> 306 73<76 123 63 136 208 262 76 195> 450 73<103 148 90 161 233 289 103 220>
VStem: 84 76<40.5 100.5>
LayerCount: 2
Fore
SplineSet
289 450 m 1
 220 450 l 1
 208 379 l 1
 275 379 l 1
 262 306 l 1
 195 306 l 1
 161 110 l 2
 160 106 160 103 160 98 c 0
 160 77 171 69 197 69 c 2
 223 69 l 1
 211 0 l 1
 194 -2 189 -3 177 -4 c 0
 163 -6 157 -7 151 -7 c 0
 108 -7 84 18 84 63 c 0
 84 76 85 91 88 105 c 2
 123 306 l 1
 63 306 l 1
 76 379 l 1
 136 379 l 1
 148 450 l 1
 90 450 l 1
 103 523 l 1
 161 523 l 1
 186 669 l 1
 259 669 l 1
 233 523 l 1
 302 523 l 1
 289 450 l 1
EndSplineSet
EndChar

StartChar: Utilde
Encoding: 658 360 551
Width: 592
Flags: W
HStem: -19 86<267.5 355.5 267.5 361> 698 20G<190 269 269 269 574 653 653 653> 825 63<506.5 519.5> 862 63<378.5 390>
VStem: 101 84<158.5 186.5>
LayerCount: 2
Fore
SplineSet
558 934 m 1xe8
 599 934 l 1
 577 863 542 825 497 825 c 0xe8
 485 825 472 829 452 838 c 2
 432 847 l 2
 409 858 395 862 385 862 c 0
 365 862 352 850 338 818 c 1
 299 818 l 1
 322 892 354 925 403 925 c 0xd8
 419 925 438 920 456 910 c 2
 473 901 l 2
 488 893 502 888 511 888 c 0
 533 888 546 901 558 934 c 1xe8
574 718 m 1
 653 718 l 1
 572 252 l 2
 543 87 433 -19 289 -19 c 0
 169 -19 101 52 101 176 c 0
 101 197 103 218 106 239 c 2
 190 718 l 1
 269 718 l 1
 191 266 l 2
 187 245 185 223 185 202 c 0
 185 115 228 67 307 67 c 0
 404 67 473 139 494 264 c 1
 574 718 l 1
EndSplineSet
EndChar

StartChar: utilde
Encoding: 659 361 552
Width: 456
Flags: W
HStem: -15 76<200 226.5> 503 20G<146 219 219 219 420 492 492 492> 630 63<404.5 417.5> 667 63<276.5 288>
VStem: 77 78<65.5 144.5>
LayerCount: 2
Fore
SplineSet
456 739 m 1xe8
 497 739 l 1
 475 668 440 630 395 630 c 0xe8
 383 630 370 634 350 643 c 2
 330 652 l 2
 307 663 293 667 283 667 c 0
 263 667 250 655 236 623 c 1
 197 623 l 1
 220 697 252 730 301 730 c 0xd8
 317 730 336 725 354 715 c 2
 371 706 l 2
 386 698 400 693 409 693 c 0
 431 693 444 706 456 739 c 1xe8
401 0 m 1
 333 0 l 1
 347 81 l 1
 296 9 258 -15 195 -15 c 0
 120 -15 77 28 77 103 c 0
 77 118 78 132 81 147 c 2
 146 523 l 1
 219 523 l 1
 158 176 l 2
 156 163 155 153 155 136 c 0
 155 87 178 61 222 61 c 0
 294 61 351 128 370 235 c 2
 420 523 l 1
 492 523 l 1
 401 0 l 1
EndSplineSet
EndChar

StartChar: Umacron
Encoding: 320 362 213
Width: 592
Flags: MW
HStem: -19 86<267.5 355.5 267.5 361> 698 20<190 269 269 269 574 653 653 653> 822 57<320 567 310 577>
VStem: 101 84<158.5 186.5>
LayerCount: 2
Fore
SplineSet
574 718 m 1
 653 718 l 1
 572 252 l 2
 543 87 433 -19 289 -19 c 0
 169 -19 101 52 101 176 c 0
 101 197 103 218 106 239 c 2
 190 718 l 1
 269 718 l 1
 191 266 l 2
 187 245 185 223 185 202 c 0
 185 115 228 67 307 67 c 0
 404 67 473 139 494 264 c 1
 574 718 l 1
577 879 m 1
 567 822 l 1
 310 822 l 1
 320 879 l 1
 577 879 l 1
EndSplineSet
EndChar

StartChar: umacron
Encoding: 382 363 275
Width: 456
Flags: MW
HStem: -15 76<200 226.5> 503 20<146 219 219 219 420 492 492 492> 627 57<219 466 209 476>
VStem: 77 78<65.5 144.5>
LayerCount: 2
Fore
SplineSet
401 0 m 1
 333 0 l 1
 347 81 l 1
 296 9 258 -15 195 -15 c 0
 120 -15 77 28 77 103 c 0
 77 118 78 132 81 147 c 2
 146 523 l 1
 219 523 l 1
 158 176 l 2
 156 163 155 153 155 136 c 0
 155 87 178 61 222 61 c 0
 294 61 351 128 370 235 c 2
 420 523 l 1
 492 523 l 1
 401 0 l 1
476 684 m 1
 466 627 l 1
 209 627 l 1
 219 684 l 1
 476 684 l 1
EndSplineSet
EndChar

StartChar: Ubreve
Encoding: 660 364 553
Width: 592
Flags: MW
HStem: -19 86<267.5 355.5 267.5 361> 698 20G<190 269 269 269 574 653 653 653> 818 57<434 458.5>
VStem: 101 84<158.5 186.5> 336 40<954 954>
LayerCount: 2
Fore
SplineSet
550 954 m 1
 589 954 l 1
 576 910 566 890 547 867 c 0
 520 835 481 818 436 818 c 0
 370 818 335 855 335 925 c 1
 336 954 l 1
 376 954 l 1
 378 932 379 926 383 916 c 0
 393 889 417 875 451 875 c 0
 500 875 525 896 550 954 c 1
574 718 m 1
 653 718 l 1
 572 252 l 2
 543 87 433 -19 289 -19 c 0
 169 -19 101 52 101 176 c 0
 101 197 103 218 106 239 c 2
 190 718 l 1
 269 718 l 1
 191 266 l 2
 187 245 185 223 185 202 c 0
 185 115 228 67 307 67 c 0
 404 67 473 139 494 264 c 1
 574 718 l 1
EndSplineSet
EndChar

StartChar: ubreve
Encoding: 661 365 554
Width: 456
Flags: MW
HStem: -15 76<200 226.5> 503 20G<146 219 219 219 420 492 492 492> 623 57<332 356.5>
VStem: 77 78<65.5 144.5> 234 40<759 759>
LayerCount: 2
Fore
SplineSet
448 759 m 1
 487 759 l 1
 474 715 464 695 445 672 c 0
 418 640 379 623 334 623 c 0
 268 623 233 660 233 730 c 1
 234 759 l 1
 274 759 l 1
 276 737 277 731 281 721 c 0
 291 694 315 680 349 680 c 0
 398 680 423 701 448 759 c 1
401 0 m 1
 333 0 l 1
 347 81 l 1
 296 9 258 -15 195 -15 c 0
 120 -15 77 28 77 103 c 0
 77 118 78 132 81 147 c 2
 146 523 l 1
 219 523 l 1
 158 176 l 2
 156 163 155 153 155 136 c 0
 155 87 178 61 222 61 c 0
 294 61 351 128 370 235 c 2
 420 523 l 1
 492 523 l 1
 401 0 l 1
EndSplineSet
EndChar

StartChar: Uring
Encoding: 302 366 195
Width: 592
Flags: W
HStem: -19 86<267.5 355.5 267.5 361> 698 20<190 269 269 269 574 653 653 653> 767 40<426 449.5 426 454> 911 40<441 464.5>
VStem: 101 34 101 84<158.5 186.5> 222 34
LayerCount: 2
Fore
SplineSet
574 718 m 1xf4
 653 718 l 1
 572 252 l 2
 543 87 433 -19 289 -19 c 0
 169 -19 101 52 101 176 c 0
 101 197 103 218 106 239 c 2
 190 718 l 1
 269 718 l 1
 191 266 l 2
 187 245 185 223 185 202 c 0
 185 115 228 67 307 67 c 0
 404 67 473 139 494 264 c 1
 574 718 l 1xf4
462 951 m 0xfa
 498 951 523 922 523 880 c 0
 523 819 479 767 429 767 c 0
 393 767 368 795 368 838 c 0
 368 899 411 951 462 951 c 0xfa
455 911 m 0
 427 911 402 881 402 848 c 0
 402 824 416 807 436 807 c 0
 463 807 489 838 489 870 c 0
 489 894 474 911 455 911 c 0
EndSplineSet
EndChar

StartChar: uring
Encoding: 366 367 259
Width: 456
Flags: W
HStem: -15 76<200 226.5> 503 20<146 219 219 219 420 492 492 492> 572 40<324 347.5 324 352> 716 40<339 362.5>
VStem: 77 34 77 78<65.5 144.5> 198 34
LayerCount: 2
Fore
SplineSet
401 0 m 1xf4
 333 0 l 1
 347 81 l 1
 296 9 258 -15 195 -15 c 0
 120 -15 77 28 77 103 c 0
 77 118 78 132 81 147 c 2
 146 523 l 1
 219 523 l 1
 158 176 l 2
 156 163 155 153 155 136 c 0
 155 87 178 61 222 61 c 0
 294 61 351 128 370 235 c 2
 420 523 l 1
 492 523 l 1
 401 0 l 1xf4
360 756 m 0xfa
 396 756 421 727 421 685 c 0
 421 624 377 572 327 572 c 0
 291 572 266 600 266 643 c 0
 266 704 309 756 360 756 c 0xfa
353 716 m 0
 325 716 300 686 300 653 c 0
 300 629 314 612 334 612 c 0
 361 612 387 643 387 675 c 0
 387 699 372 716 353 716 c 0
EndSplineSet
EndChar

StartChar: uhungarumlaut
Encoding: 367 369 260
Width: 456
Flags: MW
HStem: -15 76<200 226.5> 503 20<146 219 219 219 420 492 492 492> 714 20<318 408 408 408 466 555 555 555>
VStem: 77 78<65.5 144.5>
LayerCount: 2
Fore
SplineSet
401 0 m 1
 333 0 l 1
 347 81 l 1
 296 9 258 -15 195 -15 c 0
 120 -15 77 28 77 103 c 0
 77 118 78 132 81 147 c 2
 146 523 l 1
 219 523 l 1
 158 176 l 2
 156 163 155 153 155 136 c 0
 155 87 178 61 222 61 c 0
 294 61 351 128 370 235 c 2
 420 523 l 1
 492 523 l 1
 401 0 l 1
408 734 m 1
 276 593 l 1
 221 593 l 1
 318 734 l 1
 408 734 l 1
555 734 m 1
 423 593 l 1
 368 593 l 1
 466 734 l 1
 555 734 l 1
EndSplineSet
EndChar

StartChar: Uogonek
Encoding: 321 370 214
Width: 592
Flags: MW
HStem: -225 47<351.5 354> -19 86<267.5 298> 698 20<190 269 269 269 574 653 653 653>
VStem: 101 84<158.5 186.5> 261 64<-154.5 -126>
LayerCount: 2
Fore
SplineSet
269 718 m 1
 191 266 l 2
 187 245 185 223 185 202 c 0
 185 115 228 67 307 67 c 0
 404 67 473 139 494 264 c 1
 574 718 l 1
 653 718 l 1
 572 252 l 2
 562 196 538 135 509 95 c 0
 496 77 481 60 465 45 c 2
 384 -29 l 2
 347 -63 325 -105 325 -143 c 0
 325 -166 339 -178 364 -178 c 0
 381 -178 393 -175 419 -163 c 1
 426 -203 l 1
 393 -218 367 -225 341 -225 c 0
 293 -225 261 -196 261 -152 c 0
 261 -100 296 -41 344 -14 c 1
 322 -18 307 -19 289 -19 c 0
 169 -19 101 52 101 176 c 0
 101 197 103 218 106 239 c 2
 190 718 l 1
 269 718 l 1
EndSplineSet
EndChar

StartChar: uogonek
Encoding: 383 371 276
Width: 456
Flags: MW
HStem: -225 47<322.5 324.5> -15 76<200 226.5> 503 20<146 219 219 219 420 492 492 492>
VStem: 77 78<65.5 144.5> 232 64<-154.5 -135.5>
LayerCount: 2
Fore
SplineSet
492 523 m 1
 401 0 l 1
 352 -34 329 -54 316 -75 c 0
 304 -94 296 -122 296 -143 c 0
 296 -166 310 -178 335 -178 c 0
 351 -178 364 -175 390 -163 c 1
 397 -203 l 1
 363 -218 337 -225 312 -225 c 0
 264 -225 232 -196 232 -152 c 0
 232 -119 249 -77 274 -48 c 1
 293 -24 308 -15 346 0 c 1
 333 0 l 1
 347 81 l 1
 296 9 258 -15 195 -15 c 0
 120 -15 77 28 77 103 c 0
 77 118 78 132 81 147 c 2
 146 523 l 1
 219 523 l 1
 158 176 l 2
 156 163 155 153 155 136 c 0
 155 87 178 61 222 61 c 0
 294 61 351 128 370 235 c 2
 420 523 l 1
 492 523 l 1
EndSplineSet
EndChar

StartChar: Wcircumflex
Encoding: 662 372 555
Width: 774
Flags: MW
HStem: 0 21G<166 250 166 166 522 522 522 606> 698 20G<138 224 224 224 468 555 555 555 798 886 886 886>
VStem: 138 86<718 718>
LayerCount: 2
Fore
SplineSet
546 911 m 1
 476 818 l 1
 411 818 l 1
 517 959 l 1
 593 959 l 1
 649 818 l 1
 584 818 l 1
 546 911 l 1
491 599 m 1
 250 0 l 1
 166 0 l 1
 138 718 l 1
 224 718 l 1
 232 130 l 1
 468 718 l 1
 555 718 l 1
 585 130 l 1
 798 718 l 1
 886 718 l 1
 606 0 l 1
 522 0 l 1
 491 599 l 1
EndSplineSet
EndChar

StartChar: wcircumflex
Encoding: 663 373 556
Width: 592
Flags: MW
HStem: 0 21G<136 210 136 136 383 383 383 457> 503 20G<103 182 182 182 348 429 429 429 601 673 673 673>
VStem: 103 79<523 523>
LayerCount: 2
Fore
SplineSet
422 716 m 1
 352 623 l 1
 287 623 l 1
 393 764 l 1
 469 764 l 1
 525 623 l 1
 460 623 l 1
 422 716 l 1
366 409 m 1
 210 0 l 1
 136 0 l 1
 103 523 l 1
 182 523 l 1
 192 108 l 1
 348 523 l 1
 429 523 l 1
 441 108 l 1
 601 523 l 1
 673 523 l 1
 457 0 l 1
 383 0 l 1
 366 409 l 1
EndSplineSet
EndChar

StartChar: Ycircumflex
Encoding: 664 374 557
Width: 547
Flags: MW
HStem: 0 21G<234 314 234 234> 698 20G<137 230 230 230 568 661 661 661>
LayerCount: 2
Fore
SplineSet
433 911 m 1
 363 818 l 1
 298 818 l 1
 404 959 l 1
 480 959 l 1
 536 818 l 1
 471 818 l 1
 433 911 l 1
364 289 m 1
 314 0 l 1
 234 0 l 1
 284 289 l 1
 137 718 l 1
 230 718 l 1
 338 373 l 1
 568 718 l 1
 661 718 l 1
 364 289 l 1
EndSplineSet
EndChar

StartChar: ycircumflex
Encoding: 665 375 558
Width: 410
Flags: MW
HStem: -214 79<60.5 83 60.5 89> 503 20G<100 182 182 182 412 492 492 492>
LayerCount: 2
Fore
SplineSet
330 716 m 1
 260 623 l 1
 195 623 l 1
 301 764 l 1
 377 764 l 1
 433 623 l 1
 368 623 l 1
 330 716 l 1
222 94 m 1
 412 523 l 1
 492 523 l 1
 248 10 l 1
 148 -195 131 -214 47 -214 c 0
 35 -214 31 -213 18 -208 c 2
 15 -207 l 1
 12 -206 l 1
 26 -126 l 1
 40 -132 53 -135 68 -135 c 0
 98 -135 113 -121 138 -68 c 1
 165 -14 l 1
 100 523 l 1
 182 523 l 1
 222 94 l 1
EndSplineSet
EndChar

StartChar: Ydieresis
Encoding: 310 376 203
Width: 547
Flags: MW
HStem: 0 20 698 20<137 230 230 230 568 661 661 661> 799 102<328 385 310 402 328 443 460 517>
LayerCount: 2
Fore
SplineSet
364 289 m 1
 314 0 l 1
 234 0 l 1
 284 289 l 1
 137 718 l 1
 230 718 l 1
 338 373 l 1
 568 718 l 1
 661 718 l 1
 364 289 l 1
402 901 m 1
 385 799 l 1
 310 799 l 1
 328 901 l 1
 402 901 l 1
535 901 m 1
 517 799 l 1
 443 799 l 1
 460 901 l 1
 535 901 l 1
EndSplineSet
EndChar

StartChar: Zacute
Encoding: 305 377 198
Width: 501
Flags: MW
HStem: 0 86<135 482> 632 86<171 490 156 607>
LayerCount: 2
Fore
SplineSet
497 86 m 1
 482 0 l 1
 19 0 l 1
 33 81 l 1
 490 632 l 1
 156 632 l 1
 171 718 l 1
 607 718 l 1
 592 634 l 1
 135 86 l 1
 497 86 l 1
538 929 m 1
 406 788 l 1
 351 788 l 1
 449 929 l 1
 538 929 l 1
EndSplineSet
EndChar

StartChar: Zdotaccent
Encoding: 307 379 200
Width: 501
Flags: MW
HStem: 0 86<135 482> 632 86<171 490 156 607> 799 102<370 427 352 445>
LayerCount: 2
Fore
SplineSet
497 86 m 1
 482 0 l 1
 19 0 l 1
 33 81 l 1
 490 632 l 1
 156 632 l 1
 171 718 l 1
 607 718 l 1
 592 634 l 1
 135 86 l 1
 497 86 l 1
445 901 m 1
 427 799 l 1
 352 799 l 1
 370 901 l 1
 445 901 l 1
EndSplineSet
EndChar

StartChar: zdotaccent
Encoding: 371 380 264
Width: 410
Flags: MW
HStem: 0 73<134 384> 450 73<136 362 123 468> 604 102<291 348 273 366>
LayerCount: 2
Fore
SplineSet
455 451 m 1
 134 73 l 1
 397 73 l 1
 384 0 l 1
 25 0 l 1
 37 69 l 1
 362 450 l 1
 123 450 l 1
 136 523 l 1
 468 523 l 1
 455 451 l 1
366 706 m 1
 348 604 l 1
 273 604 l 1
 291 706 l 1
 366 706 l 1
EndSplineSet
EndChar

StartChar: Zcaron
Encoding: 306 381 199
Width: 501
Flags: MW
HStem: 0 86<135 482> 632 86<171 490 156 607>
LayerCount: 2
Fore
SplineSet
497 86 m 1
 482 0 l 1
 19 0 l 1
 33 81 l 1
 490 632 l 1
 156 632 l 1
 171 718 l 1
 607 718 l 1
 592 634 l 1
 135 86 l 1
 497 86 l 1
358 929 m 1
 396 836 l 1
 466 929 l 1
 532 929 l 1
 426 788 l 1
 350 788 l 1
 293 929 l 1
 358 929 l 1
EndSplineSet
EndChar

StartChar: zcaron
Encoding: 370 382 263
Width: 410
Flags: MW
HStem: 0 73<134 384> 450 73<136 362 123 468> 714 20<213 278 278 278 386 452 452 452>
LayerCount: 2
Fore
SplineSet
455 451 m 1
 134 73 l 1
 397 73 l 1
 384 0 l 1
 25 0 l 1
 37 69 l 1
 362 450 l 1
 123 450 l 1
 136 523 l 1
 468 523 l 1
 455 451 l 1
278 734 m 1
 316 641 l 1
 386 734 l 1
 452 734 l 1
 346 593 l 1
 270 593 l 1
 213 734 l 1
 278 734 l 1
EndSplineSet
EndChar

StartChar: longs
Encoding: 666 383 559
Width: 228
Flags: W
HStem: 0 21G<71 143 71 71> 450 73<103 149 90 162> 647 79<327 341> 649 79<283 301>
VStem: 71 270
LayerCount: 2
Fore
SplineSet
143 0 m 1xd8
 71 0 l 1
 149 450 l 1
 90 450 l 1
 103 523 l 1
 162 523 l 1
 177 613 l 2
 190 688 235 728 307 728 c 0xd8
 315 728 319 728 341 726 c 1
 327 647 l 1xe8
 314 648 304 649 298 649 c 0
 268 649 253 631 245 588 c 2
 143 0 l 1xd8
EndSplineSet
EndChar

StartChar: florin
Encoding: 166 402 100
Width: 456
Flags: MW
HStem: -207 79<16.5 45.5 16.5 48> 391 70<174 251 162 275 350 431 174 327> 661 76<451 472.5>
LayerCount: 2
Fore
SplineSet
537 722 m 1
 511 644 l 1
 485 658 478 661 467 661 c 0
 435 661 404 625 384 564 c 2
 350 461 l 1
 443 461 l 1
 431 391 l 1
 327 391 l 1
 220 64 l 1
 160 -124 93 -207 3 -207 c 0
 -17 -207 -29 -204 -43 -195 c 1
 -17 -114 l 1
 -1 -124 10 -128 23 -128 c 0
 68 -128 95 -88 139 46 c 2
 251 391 l 1
 162 391 l 1
 174 461 l 1
 275 461 l 1
 319 585 l 2
 352 676 416 737 478 737 c 0
 500 737 514 734 537 722 c 1
EndSplineSet
EndChar

StartChar: circumflex
Encoding: 195 710 125
Width: 273
Flags: MW
HStem: 714 20<227 303 303 303>
LayerCount: 2
Fore
SplineSet
256 686 m 1
 186 593 l 1
 121 593 l 1
 227 734 l 1
 303 734 l 1
 359 593 l 1
 294 593 l 1
 256 686 l 1
EndSplineSet
EndChar

StartChar: caron
Encoding: 207 711 135
Width: 273
Flags: MW
HStem: 714 20<145 210 210 210 318 384 384 384>
LayerCount: 2
Fore
SplineSet
210 734 m 1
 248 641 l 1
 318 734 l 1
 384 734 l 1
 278 593 l 1
 202 593 l 1
 145 734 l 1
 210 734 l 1
EndSplineSet
EndChar

StartChar: breve
Encoding: 198 728 128
Width: 273
Flags: MW
HStem: 595 57<236 260.5> 711 20<138 178 178 178 352 391 391 391>
LayerCount: 2
Fore
SplineSet
352 731 m 1
 391 731 l 1
 378 687 368 667 349 644 c 0
 322 612 283 595 238 595 c 0
 172 595 137 632 137 702 c 1
 138 731 l 1
 178 731 l 1
 180 709 181 703 185 693 c 0
 195 666 219 652 253 652 c 0
 302 652 327 673 352 731 c 1
EndSplineSet
EndChar

StartChar: dotaccent
Encoding: 199 729 129
Width: 273
Flags: MW
HStem: 604 102<222 279 204 297>
LayerCount: 2
Fore
SplineSet
297 706 m 1
 279 604 l 1
 204 604 l 1
 222 706 l 1
 297 706 l 1
EndSplineSet
EndChar

StartChar: ring
Encoding: 202 730 131
Width: 273
Flags: MW
HStem: 572 40<233 256.5 233 261> 716 40<248 271.5>
VStem: 175 34<641 669.5 641 673.5> 296 34<659 687>
LayerCount: 2
Fore
SplineSet
269 756 m 0
 305 756 330 727 330 685 c 0
 330 624 286 572 236 572 c 0
 200 572 175 600 175 643 c 0
 175 704 218 756 269 756 c 0
262 716 m 0
 234 716 209 686 209 653 c 0
 209 629 223 612 243 612 c 0
 270 612 296 643 296 675 c 0
 296 699 281 716 262 716 c 0
EndSplineSet
EndChar

StartChar: ogonek
Encoding: 206 731 134
Width: 273
Flags: MW
HStem: -225 47<125.5 128>
VStem: 35 64<-154.5 -140.5>
LayerCount: 2
Fore
SplineSet
193 -163 m 1
 200 -203 l 1
 167 -218 141 -225 115 -225 c 0
 67 -225 35 -196 35 -152 c 0
 35 -129 43 -101 57 -76 c 0
 79 -37 102 -18 149 0 c 1
 204 0 l 1
 203 -4 l 1
 154 -35 134 -52 119 -75 c 0
 107 -94 99 -122 99 -143 c 0
 99 -166 113 -178 138 -178 c 0
 155 -178 167 -175 193 -163 c 1
EndSplineSet
EndChar

StartChar: tilde
Encoding: 196 732 126
Width: 273
Flags: W
HStem: 613 63<309.5 322.5> 650 63<181.5 193> 698 20 702 20<361 402 402 402>
LayerCount: 2
Fore
SplineSet
361 722 m 1x90
 402 722 l 1
 380 651 345 613 300 613 c 0x90
 288 613 275 617 255 626 c 2
 235 635 l 2
 212 646 198 650 188 650 c 0
 168 650 155 638 141 606 c 1
 102 606 l 1
 125 680 157 713 206 713 c 0x40
 222 713 241 708 259 698 c 2x20
 276 689 l 2
 291 681 305 676 314 676 c 0
 336 676 349 689 361 722 c 1x90
EndSplineSet
EndChar

StartChar: hungarumlaut
Encoding: 205 733 133
Width: 273
Flags: MW
HStem: 714 20<226 316 316 316 374 463 463 463>
LayerCount: 2
Fore
SplineSet
316 734 m 1
 184 593 l 1
 129 593 l 1
 226 734 l 1
 316 734 l 1
463 734 m 1
 331 593 l 1
 276 593 l 1
 374 734 l 1
 463 734 l 1
EndSplineSet
EndChar

StartChar: mu
Encoding: 421 956 314
Width: 456
Flags: W
HStem: -207 207 -15 76<200 227> 503 20<147 219 219 219 420 492 492 492>
LayerCount: 2
Fore
SplineSet
401 0 m 1xa0
 333 0 l 1x80
 347 81 l 1
 297 10 258 -15 196 -15 c 0x40
 163 -15 146 -5 132 21 c 1
 92 -207 l 1
 20 -207 l 1x80
 147 523 l 1
 219 523 l 1
 159 176 l 2
 156 163 155 148 155 136 c 0
 155 86 178 61 222 61 c 0x60
 294 61 351 129 370 235 c 2
 420 523 l 1
 492 523 l 1
 401 0 l 1xa0
EndSplineSet
EndChar

StartChar: uni0400
Encoding: 488 1024 381
Width: 547
Flags: MW
HStem: 0 86<166 506> 326 86<222 530 207 545> 632 86<261 610 261 261>
LayerCount: 2
Fore
SplineSet
457 818 m 1
 375 959 l 1
 464 959 l 1
 512 818 l 1
 457 818 l 1
521 86 m 1
 506 0 l 1
 71 0 l 1
 196 718 l 1
 625 718 l 1
 610 632 l 1
 261 632 l 1
 222 412 l 1
 545 412 l 1
 530 326 l 1
 207 326 l 1
 166 86 l 1
 521 86 l 1
EndSplineSet
EndChar

StartChar: afii10023
Encoding: 428 1025 321
Width: 547
Flags: MW
HStem: 0 86<166 506> 326 86<222 530 207 545> 632 86<261 610 261 261> 799 102<328 385 310 402 328 443 460 517>
LayerCount: 2
Fore
SplineSet
521 86 m 1
 506 0 l 1
 71 0 l 1
 196 718 l 1
 625 718 l 1
 610 632 l 1
 261 632 l 1
 222 412 l 1
 545 412 l 1
 530 326 l 1
 207 326 l 1
 166 86 l 1
 521 86 l 1
402 901 m 1
 385 799 l 1
 310 799 l 1
 328 901 l 1
 402 901 l 1
535 901 m 1
 517 799 l 1
 443 799 l 1
 460 901 l 1
 535 901 l 1
EndSplineSet
EndChar

StartChar: afii10051
Encoding: 489 1026 382
Width: 621
Flags: MW
HStem: -131 85<383 402.5 383 411.5> 0 21G<171 250 171 171 588 588> 353 85<432.5 454.5> 632 86<137 281 122 535 361 361 361 520>
VStem: 557 83<280 359.5>
LayerCount: 2
Fore
SplineSet
383 -131 m 1
 383 -46 l 1
 422 -46 501 -17 507 15 c 2
 557 280 l 2
 557 282 559 290 559 292 c 0
 559 331 474 353 435 353 c 0
 392 353 307 323 302 293 c 2
 250 0 l 1
 171 0 l 1
 281 632 l 1
 122 632 l 1
 137 718 l 1
 535 718 l 1
 520 632 l 1
 361 632 l 1
 320 401 l 1
 360 433 412 438 453 438 c 0
 499 438 640 412 640 307 c 0
 640 300 638 287 637 280 c 2
 588 0 l 2
 570 -106 440 -131 383 -131 c 1
EndSplineSet
EndChar

StartChar: afii10052
Encoding: 490 1027 383
Width: 501
Flags: MW
HStem: 0 21G<71 150 71 71> 632 86<260 588 260 260>
LayerCount: 2
Fore
SplineSet
409 893 m 1
 277 752 l 1
 222 752 l 1
 320 893 l 1
 409 893 l 1
150 0 m 1
 71 0 l 1
 196 718 l 1
 603 718 l 1
 588 632 l 1
 260 632 l 1
 150 0 l 1
EndSplineSet
EndChar

StartChar: afii10053
Encoding: 491 1028 384
Width: 592
Flags: MW
HStem: -19 87<263 329.5> 325 87<193 455 176 470> 650 87<372.5 447.5>
VStem: 563 77<502 502>
LayerCount: 2
Fore
SplineSet
193 412 m 1
 470 412 l 1
 455 325 l 1
 176 325 l 1
 154 162 206 68 320 68 c 0
 375 68 421 92 462 141 c 0
 489 173 504 202 527 264 c 1
 604 264 l 1
 564 151 533 99 480 53 c 1
 428 6 362 -19 297 -19 c 0
 135 -19 58 127 99 358 c 0
 140 590 273 737 441 737 c 0
 529 737 594 696 623 623 c 1
 639 586 643 558 640 502 c 1
 563 502 l 1
 560 559 552 586 528 612 c 1
 504 636 468 650 427 650 c 0
 318 650 233 562 193 412 c 1
EndSplineSet
EndChar

StartChar: afii10054
Encoding: 492 1029 385
Width: 547
Flags: W
HStem: -19 83<248 345 248 353.5> 654 83<356.5 422>
VStem: 74 78<148 166.5> 81 75<232 232> 146 81<488 503.5> 467 80<170 241> 505 75<508 508> 507 77<561.5 576>
LayerCount: 2
Fore
SplineSet
580 508 m 1xc2
 505 508 l 1xc2
 506 521 507 532 507 541 c 0
 507 611 460 654 384 654 c 0
 292 654 227 593 227 506 c 0xc9
 227 470 245 448 283 437 c 2
 442 390 l 2
 511 370 547 320 547 246 c 0
 547 89 435 -19 272 -19 c 0
 193 -19 144 2 109 50 c 1
 87 82 74 120 74 157 c 0xe4
 74 176 76 202 81 232 c 1
 156 232 l 1xd0
 153 214 152 197 152 186 c 0
 152 110 205 64 291 64 c 0
 399 64 467 123 467 217 c 0xe4
 467 265 441 288 360 312 c 2
 246 346 l 2
 180 366 146 410 146 475 c 0
 146 532 169 598 205 645 c 0
 251 706 315 737 398 737 c 0
 515 737 584 674 584 569 c 0xc9
 584 554 583 532 580 508 c 1xc2
EndSplineSet
EndChar

StartChar: afii10056
Encoding: 494 1031 387
Width: 228
Flags: MW
HStem: 0 21G<75 154 75 75> 698 20G<200 279 279 279> 799 102<168 225 150 242 168 283 301 357>
VStem: 75 300
LayerCount: 2
Fore
SplineSet
279 718 m 1
 154 0 l 1
 75 0 l 1
 200 718 l 1
 279 718 l 1
242 901 m 1
 225 799 l 1
 150 799 l 1
 168 901 l 1
 242 901 l 1
375 901 m 1
 357 799 l 1
 283 799 l 1
 301 901 l 1
 375 901 l 1
EndSplineSet
EndChar

StartChar: afii10057
Encoding: 495 1032 388
Width: 410
Flags: MW
HStem: -19 83<165 220.5 165 232> 698 20G<397 476 476 476>
VStem: 39 78<114 126.5>
LayerCount: 2
Fore
SplineSet
55 231 m 1
 129 231 l 1
 121 181 l 2
 118 167 117 154 117 139 c 0
 117 89 141 64 189 64 c 0
 252 64 290 104 304 188 c 2
 397 718 l 1
 476 718 l 1
 385 194 l 2
 361 58 286 -19 178 -19 c 0
 89 -19 39 31 39 120 c 0
 39 133 40 147 42 160 c 2
 55 231 l 1
EndSplineSet
EndChar

StartChar: afii10058
Encoding: 496 1033 389
Width: 847
Flags: MW
HStem: 0 86<-27 24.5 -27 53.5> 332 83<523 666 509 707> 633 85<261 482 261 261>
VStem: 767 83<198 272.5>
LayerCount: 2
Fore
SplineSet
370 0 m 1
 482 633 l 1
 261 633 l 1
 222 408 149 0 -42 0 c 1
 -27 86 l 1
 76 86 141 413 195 718 c 1
 577 718 l 1
 523 415 l 1
 707 415 l 2
 797 415 850 354 850 257 c 0
 850 114 754 0 634 0 c 2
 370 0 l 1
465 83 m 1
 625 83 l 2
 718 83 767 153 767 243 c 0
 767 302 733 332 666 332 c 2
 509 332 l 1
 465 83 l 1
EndSplineSet
EndChar

StartChar: afii10059
Encoding: 497 1034 390
Width: 882
Flags: MW
HStem: 0 83<545 705 705 714> 334 85<603 746 589 787> 698 20G<188 268 268 268 575 657 657 657>
VStem: 847 83<198 272.5>
LayerCount: 2
Fore
SplineSet
657 718 m 1
 603 419 l 1
 787 419 l 2
 877 419 930 354 930 257 c 0
 930 114 834 0 714 0 c 2
 450 0 l 1
 509 335 l 1
 201 335 l 1
 143 0 l 1
 63 0 l 1
 188 718 l 1
 268 718 l 1
 216 421 l 1
 524 421 l 1
 575 718 l 1
 657 718 l 1
545 83 m 1
 705 83 l 2
 798 83 847 153 847 243 c 0
 847 302 813 334 746 334 c 2
 589 334 l 1
 545 83 l 1
EndSplineSet
EndChar

StartChar: afii10060
Encoding: 498 1035 391
Width: 621
Flags: MW
HStem: 0 21G<171 250 171 171 508 588 508 508> 353 85<432.5 454.5> 632 86<137 281 122 535 361 361 361 520>
VStem: 559 81<303.5 311.5>
LayerCount: 2
Fore
SplineSet
320 401 m 1
 360 433 412 438 453 438 c 0
 499 438 640 412 640 307 c 0
 640 300 638 287 637 280 c 2
 588 0 l 1
 508 0 l 1
 557 280 l 2
 558 282 559 290 559 292 c 0
 559 331 474 353 435 353 c 0
 392 353 307 323 302 293 c 2
 250 0 l 1
 171 0 l 1
 281 632 l 1
 122 632 l 1
 137 718 l 1
 535 718 l 1
 520 632 l 1
 361 632 l 1
 320 401 l 1
EndSplineSet
EndChar

StartChar: afii10061
Encoding: 499 1036 392
Width: 565
Flags: MW
HStem: 0 21G<63 143 63 63 442 442 442 545> 698 20G<190 270 270 270 556 666 666 666>
LayerCount: 2
Fore
SplineSet
401 893 m 1
 269 752 l 1
 214 752 l 1
 312 893 l 1
 401 893 l 1
205 350 m 1
 143 0 l 1
 63 0 l 1
 190 718 l 1
 270 718 l 1
 218 427 l 1
 254 428 l 1
 556 718 l 1
 666 718 l 1
 317 382 l 1
 545 0 l 1
 442 0 l 1
 232 350 l 1
 205 350 l 1
EndSplineSet
EndChar

StartChar: uni040D
Encoding: 500 1037 393
Width: 594
Flags: MW
HStem: 0 21G<63 152 63 63 454 531 454 454> 698 20G<190 267 267 267 564 658 658 658>
LayerCount: 2
Fore
SplineSet
467 818 m 1
 385 959 l 1
 474 959 l 1
 522 818 l 1
 467 818 l 1
164 135 m 1
 564 718 l 1
 658 718 l 1
 531 0 l 1
 454 0 l 1
 557 583 l 1
 152 0 l 1
 63 0 l 1
 190 718 l 1
 267 718 l 1
 164 135 l 1
EndSplineSet
EndChar

StartChar: afii10062
Encoding: 501 1038 394
Width: 568
Flags: MW
HStem: 0 21G<85 173 85 85> 698 20G<145 238 238 238 576 669 669 669> 790 57<456 480.5>
VStem: 358 40<926 926>
LayerCount: 2
Fore
SplineSet
572 926 m 1
 611 926 l 1
 598 882 588 862 569 839 c 0
 542 807 503 790 458 790 c 0
 392 790 357 827 357 897 c 1
 358 926 l 1
 398 926 l 1
 400 904 401 898 405 888 c 0
 415 861 439 847 473 847 c 0
 522 847 547 868 572 926 c 1
173 0 m 1
 85 0 l 1
 286 298 l 1
 145 718 l 1
 238 718 l 1
 346 373 l 1
 576 718 l 1
 669 718 l 1
 173 0 l 1
EndSplineSet
EndChar

StartChar: afii10145
Encoding: 502 1039 395
Width: 593
Flags: MW
HStem: 0 87<158 262 342 342 342 465 158 530> 698 20G<190 270 270 270 577 657 657 657>
LayerCount: 2
Fore
SplineSet
63 0 m 1
 190 718 l 1
 270 718 l 1
 158 87 l 1
 465 87 l 1
 577 718 l 1
 657 718 l 1
 530 0 l 1
 342 0 l 1
 321 -120 l 1
 241 -120 l 1
 262 0 l 1
 63 0 l 1
EndSplineSet
EndChar

StartChar: afii10017
Encoding: 422 1040 315
Width: 547
Flags: MW
HStem: 0 21G<11 93 11 11 449 449 449 536> 209 86<231 414 231 427 191 414> 698 20G<358 448 448 448>
LayerCount: 2
Fore
SplineSet
427 209 m 1
 191 209 l 1
 93 0 l 1
 11 0 l 1
 358 718 l 1
 448 718 l 1
 536 0 l 1
 449 0 l 1
 427 209 l 1
231 295 m 1
 414 295 l 1
 381 614 l 1
 231 295 l 1
EndSplineSet
EndChar

StartChar: afii10018
Encoding: 423 1041 316
Width: 568
Flags: MW
HStem: 0 83<156 315> 336 78<200 358 214 356> 631 87<253 589 253 253>
VStem: 475 84<199 274.5>
LayerCount: 2
Fore
SplineSet
589 631 m 1
 253 631 l 1
 214 414 l 1
 358 414 l 2
 523 414 559 345 559 272 c 0
 559 122 462 0 315 0 c 2
 61 0 l 1
 188 718 l 1
 605 718 l 1
 589 631 l 1
200 336 m 1
 156 83 l 1
 326 83 l 2
 412 83 475 154 475 244 c 0
 475 305 435 336 356 336 c 2
 200 336 l 1
EndSplineSet
EndChar

StartChar: afii10019
Encoding: 424 1042 317
Width: 547
Flags: W
HStem: 0 83<155 314> 335 79<199 356 212 355> 635 83<251 251 251 395>
VStem: 474 81<196.5 274.5> 501 82<559.5 584>
LayerCount: 2
Fore
SplineSet
61 0 m 1xf0
 186 718 l 1
 445 718 l 2
 531 718 583 665 583 577 c 0xe8
 583 542 574 503 558 472 c 0
 539 434 517 412 475 387 c 1
 534 355 555 321 555 258 c 0
 555 114 449 0 314 0 c 2
 61 0 l 1xf0
251 635 m 1
 212 414 l 1
 356 414 l 2
 413 414 451 431 475 465 c 1
 490 488 501 526 501 558 c 0
 501 610 466 635 395 635 c 2
 251 635 l 1
199 335 m 1
 155 83 l 1
 324 83 l 2
 413 83 474 149 474 244 c 0xf0
 474 305 434 335 355 335 c 2
 199 335 l 1
EndSplineSet
EndChar

StartChar: afii10020
Encoding: 425 1043 318
Width: 501
Flags: MW
HStem: 0 21G<71 150 71 71> 632 86<260 588 260 260>
LayerCount: 2
Fore
SplineSet
150 0 m 1
 71 0 l 1
 196 718 l 1
 603 718 l 1
 588 632 l 1
 260 632 l 1
 150 0 l 1
EndSplineSet
EndChar

StartChar: afii10021
Encoding: 426 1044 319
Width: 666
Flags: MW
HStem: 0 86<49 88.5 -16 513 49 49> 633 85<324 545 324 324>
LayerCount: 2
Fore
SplineSet
37 86 m 2
 140 86 205 413 258 718 c 1
 640 718 l 1
 530 86 l 1
 608 86 l 1
 572 -120 l 1
 492 -120 l 1
 513 0 l 1
 49 0 l 1
 28 -120 l 1
 -52 -120 l 1
 -16 86 l 1
 37 86 l 2
160 88 m 1
 450 88 l 1
 545 633 l 1
 324 633 l 1
 296 473 252 221 160 88 c 1
EndSplineSet
EndChar

StartChar: afii10024
Encoding: 429 1046 322
Width: 902
Flags: MW
HStem: 0 21G<16 119 16 16 418 418 418 498 797 797 797 900> 698 20G<149 259 259 259 545 625 625 625 911 1021 1021 1021>
LayerCount: 2
Fore
SplineSet
480 350 m 1
 453 350 l 1
 119 0 l 1
 16 0 l 1
 378 382 l 1
 149 718 l 1
 259 718 l 1
 457 428 l 1
 493 428 l 1
 545 718 l 1
 625 718 l 1
 573 428 l 1
 609 428 l 1
 911 718 l 1
 1021 718 l 1
 672 382 l 1
 900 0 l 1
 797 0 l 1
 587 350 l 1
 560 350 l 1
 498 0 l 1
 418 0 l 1
 480 350 l 1
EndSplineSet
EndChar

StartChar: afii10025
Encoding: 430 1047 323
Width: 557
Flags: W
HStem: -19 83<225.5 330 225.5 364> 331 71<241 347 231 363> 654 83<343.5 408>
VStem: 61 78<156.5 169.5> 68 75<232 232> 454 81<195 253.5> 485 77<525 588>
LayerCount: 2
Fore
SplineSet
278 64 m 0xf0
 382 64 454 119 454 226 c 0xf4
 454 281 429 331 347 331 c 2
 231 331 l 1
 241 402 l 1
 363 402 l 2
 436 402 485 492 485 557 c 0
 485 619 445 654 371 654 c 0
 316 654 269 632 237 593 c 1
 219 569 209 548 199 508 c 1
 124 508 l 1
 140 572 152 602 176 637 c 1
 223 701 297 737 386 737 c 0
 527 737 562 646 562 564 c 0xe2
 562 486 530 415 470 375 c 1
 514 350 535 308 535 250 c 0
 535 140 468 -19 260 -19 c 0
 170 -19 117 8 83 71 c 0
 68 98 61 124 61 159 c 0xf4
 61 180 64 203 68 232 c 1
 143 232 l 1xe8
 140 214 139 199 139 186 c 0
 139 127 173 64 278 64 c 0xf0
EndSplineSet
EndChar

StartChar: afii10026
Encoding: 431 1048 324
Width: 594
Flags: MW
HStem: 0 21G<63 152 63 63 454 531 454 454> 698 20G<190 267 267 267 564 658 658 658>
LayerCount: 2
Fore
SplineSet
164 135 m 1
 564 718 l 1
 658 718 l 1
 531 0 l 1
 454 0 l 1
 557 583 l 1
 152 0 l 1
 63 0 l 1
 190 718 l 1
 267 718 l 1
 164 135 l 1
EndSplineSet
EndChar

StartChar: afii10027
Encoding: 432 1049 325
Width: 596
Flags: MW
HStem: 0 21G<63 152 63 63 454 531 454 454> 698 20G<190 267 267 267 564 658 658 658> 790 57<448 472.5>
VStem: 350 40<926 926>
LayerCount: 2
Fore
SplineSet
564 926 m 1
 603 926 l 1
 590 882 580 862 561 839 c 0
 534 807 495 790 450 790 c 0
 384 790 349 827 349 897 c 1
 350 926 l 1
 390 926 l 1
 392 904 393 898 397 888 c 0
 407 861 431 847 465 847 c 0
 514 847 539 868 564 926 c 1
164 135 m 1
 564 718 l 1
 658 718 l 1
 531 0 l 1
 454 0 l 1
 557 583 l 1
 152 0 l 1
 63 0 l 1
 190 718 l 1
 267 718 l 1
 164 135 l 1
EndSplineSet
EndChar

StartChar: afii10029
Encoding: 434 1051 327
Width: 581
Flags: MW
HStem: 0 86<-27 24.5 -27 53.5> 633 85<261 482 261 261>
LayerCount: 2
Fore
SplineSet
482 633 m 1
 261 633 l 1
 222 408 149 0 -42 0 c 1
 -27 86 l 1
 76 86 141 413 195 718 c 1
 577 718 l 1
 451 0 l 1
 371 0 l 1
 482 633 l 1
EndSplineSet
EndChar

StartChar: afii10030
Encoding: 435 1052 328
Width: 683
Flags: MW
HStem: 0 21G<60 137 60 60 303 381 303 303 547 624 547 547> 698 20G<185 299 299 299 636 749 749 749>
LayerCount: 2
Fore
SplineSet
624 0 m 1
 547 0 l 1
 621 424 l 1
 621 424 625 448 629 469 c 0
 633 487 643 547 655 609 c 1
 381 0 l 1
 303 0 l 1
 241 608 l 1
 230 544 222 490 218 470 c 1
 215 448 212 432 211 424 c 2
 137 0 l 1
 60 0 l 1
 185 718 l 1
 299 718 l 1
 362 108 l 1
 636 718 l 1
 749 718 l 1
 624 0 l 1
EndSplineSet
EndChar

StartChar: afii10033
Encoding: 438 1055 331
Width: 593
Flags: MW
HStem: 0 21G<63 143 63 63 450 530 450 450> 631 87<254 561 254 254>
LayerCount: 2
Fore
SplineSet
657 718 m 1
 530 0 l 1
 450 0 l 1
 561 631 l 1
 254 631 l 1
 143 0 l 1
 63 0 l 1
 190 718 l 1
 657 718 l 1
EndSplineSet
EndChar

StartChar: afii10034
Encoding: 439 1056 332
Width: 547
Flags: MW
HStem: 0 21G<71 150 71 71> 303 83<203 376 218 376 376 388> 635 83<261 261 261 422>
VStem: 521 83<533 577.5>
LayerCount: 2
Fore
SplineSet
203 303 m 1
 150 0 l 1
 71 0 l 1
 196 718 l 1
 461 718 l 2
 549 718 604 659 604 565 c 0
 604 501 581 432 544 383 c 0
 504 330 451 303 388 303 c 2
 203 303 l 1
261 635 m 1
 218 386 l 1
 376 386 l 2
 429 386 466 404 491 440 c 0
 509 467 521 512 521 549 c 0
 521 606 487 635 422 635 c 2
 261 635 l 1
EndSplineSet
EndChar

StartChar: afii10036
Encoding: 441 1058 334
Width: 501
Flags: MW
HStem: 0 21G<211 291 211 211> 632 86<122 615 137 321 401 401 401 600>
VStem: 122 493<632 718>
LayerCount: 2
Fore
SplineSet
122 632 m 1
 137 718 l 1
 615 718 l 1
 600 632 l 1
 401 632 l 1
 291 0 l 1
 211 0 l 1
 321 632 l 1
 122 632 l 1
EndSplineSet
EndChar

StartChar: afii10037
Encoding: 442 1059 335
Width: 568
Flags: MW
HStem: 0 21G<85 173 85 85> 698 20G<145 238 238 238 576 669 669 669>
LayerCount: 2
Fore
SplineSet
173 0 m 1
 85 0 l 1
 286 298 l 1
 145 718 l 1
 238 718 l 1
 346 373 l 1
 576 718 l 1
 669 718 l 1
 173 0 l 1
EndSplineSet
EndChar

StartChar: afii10038
Encoding: 443 1060 336
Width: 702
Flags: MW
HStem: 0 21G<307 386 307 307> 75 82<274 320 413 447.5> 562 83<378 406 499 539.5> 698 20G<433 512 512 512>
LayerCount: 2
Fore
SplineSet
406 562 m 1
 253 562 182 472 162 362 c 0
 142 247 184 157 334 157 c 1
 406 562 l 1
420 645 m 1
 433 718 l 1
 512 718 l 1
 499 645 l 1
 580 645 644 637 698 576 c 0
 753 513 763 468 745 363 c 0
 731 282 692 208 625 161 c 0
 553 111 496 75 399 75 c 1
 386 0 l 1
 307 0 l 1
 320 75 l 1
 228 75 159 106 119 159 c 0
 76 216 61 278 76 363 c 0
 94 467 133 526 198 576 c 0
 276 636 336 645 420 645 c 1
485 562 m 1
 413 157 l 1
 568 157 638 249 657 362 c 1
 678 476 639 562 485 562 c 1
EndSplineSet
EndChar

StartChar: afii10039
Encoding: 444 1061 337
Width: 547
Flags: MW
HStem: 0 21G<16 112 16 16 433 531 433 433> 698 20G<154 254 254 254 552 647 647 647>
LayerCount: 2
Fore
SplineSet
389 368 m 1
 531 0 l 1
 433 0 l 1
 326 295 l 1
 112 0 l 1
 16 0 l 1
 290 368 l 1
 154 718 l 1
 254 718 l 1
 355 443 l 1
 552 718 l 1
 647 718 l 1
 389 368 l 1
EndSplineSet
EndChar

StartChar: afii10040
Encoding: 445 1062 338
Width: 645
Flags: MW
HStem: 0 86<545 546> 698 20G<190 270 270 270 577 657 657 657>
LayerCount: 2
Fore
SplineSet
546 0 m 1
 63 0 l 1
 190 718 l 1
 270 718 l 1
 158 87 l 1
 465 87 l 1
 577 718 l 1
 657 718 l 1
 545 86 l 1
 641 86 l 1
 605 -120 l 1
 525 -120 l 1
 546 0 l 1
EndSplineSet
EndChar

StartChar: afii10041
Encoding: 446 1063 339
Width: 480
Flags: MW
HStem: 0 21G<337 417 337 337> 280 85<259.5 281> 698 20G<125 205 205 205 463 543 543 543>
VStem: 73 81<406.5 414.5>
LayerCount: 2
Fore
SplineSet
412 425 m 2
 463 718 l 1
 543 718 l 1
 417 0 l 1
 337 0 l 1
 393 317 l 1
 353 285 301 280 261 280 c 0
 214 280 73 306 73 411 c 0
 73 418 75 431 76 438 c 2
 125 718 l 1
 205 718 l 1
 156 438 l 2
 156 436 154 428 154 426 c 0
 154 387 240 365 279 365 c 0
 321 365 406 395 412 425 c 2
EndSplineSet
EndChar

StartChar: afii10042
Encoding: 447 1064 340
Width: 696
Flags: MW
HStem: 0 87<158 158 404 568> 698 20G<190 270 270 270 435 515 515 515 680 760 760 760>
LayerCount: 2
Fore
SplineSet
404 87 m 1
 568 87 l 1
 680 718 l 1
 760 718 l 1
 633 0 l 1
 63 0 l 1
 190 718 l 1
 270 718 l 1
 158 87 l 1
 324 88 l 1
 435 718 l 1
 515 718 l 1
 404 87 l 1
EndSplineSet
EndChar

StartChar: afii10043
Encoding: 448 1065 341
Width: 696
Flags: MW
HStem: 0 87<158 158 404 568> 698 20G<190 270 270 270 435 515 515 515 680 760 760 760>
LayerCount: 2
Fore
SplineSet
404 87 m 1
 568 87 l 1
 680 718 l 1
 760 718 l 1
 648 86 l 1
 744 86 l 1
 708 -120 l 1
 628 -120 l 1
 649 0 l 1
 63 0 l 1
 190 718 l 1
 270 718 l 1
 158 87 l 1
 324 88 l 1
 435 718 l 1
 515 718 l 1
 404 87 l 1
EndSplineSet
EndChar

StartChar: afii10044
Encoding: 449 1066 342
Width: 723
Flags: MW
HStem: 0 83<341 501 501 511> 332 83<400 542 385 584> 631 87<150 358 135 453>
VStem: 644 83<197 272>
LayerCount: 2
Fore
SplineSet
358 631 m 1
 135 631 l 1
 150 718 l 1
 453 718 l 1
 400 415 l 1
 584 415 l 2
 674 415 727 354 727 257 c 0
 727 114 631 0 511 0 c 2
 247 0 l 1
 358 631 l 1
341 83 m 1
 501 83 l 2
 593 83 644 152 644 242 c 0
 644 302 609 332 542 332 c 2
 385 332 l 1
 341 83 l 1
EndSplineSet
EndChar

StartChar: afii10045
Encoding: 450 1067 343
Width: 781
Flags: MW
HStem: 0 83<158 318 318 327> 332 83<216 359 202 400> 698 20G<190 270 270 270 766 845 845 845>
VStem: 460 83<198 272.5>
LayerCount: 2
Fore
SplineSet
845 718 m 1
 718 0 l 1
 639 0 l 1
 766 718 l 1
 845 718 l 1
216 415 m 1
 400 415 l 2
 490 415 543 354 543 257 c 0
 543 114 447 0 327 0 c 2
 63 0 l 1
 190 718 l 1
 270 718 l 1
 216 415 l 1
158 83 m 1
 318 83 l 2
 411 83 460 153 460 243 c 0
 460 302 426 332 359 332 c 2
 202 332 l 1
 158 83 l 1
EndSplineSet
EndChar

StartChar: afii10047
Encoding: 452 1069 345
Width: 590
Flags: MW
HStem: -19 87<267.5 352 267.5 384> 325 87<266 530 251 543> 650 87<372.5 447.5>
VStem: 80 77<207.5 264>
LayerCount: 2
Fore
SplineSet
543 412 m 1
 556 562 502 650 393 650 c 0
 352 650 312 636 279 612 c 1
 246 586 228 559 205 502 c 1
 128 502 l 1
 145 558 159 586 187 623 c 0
 242 696 322 737 410 737 c 0
 550 737 629 636 629 468 c 0
 629 217 481 -19 287 -19 c 0
 222 -19 166 6 130 53 c 1
 93 99 80 151 80 264 c 1
 157 264 l 1
 158 202 163 173 178 141 c 1
 203 92 240 68 295 68 c 0
 409 68 494 162 530 325 c 1
 251 325 l 1
 266 412 l 1
 543 412 l 1
EndSplineSet
EndChar

StartChar: afii10048
Encoding: 453 1070 346
Width: 915
Flags: MW
HStem: -19 87<557 633.5> 334 87<217 369 202 386> 650 87<687.5 763.5>
VStem: 364 82<224.5 272.5> 872 83<372 478.5 372 506.5>
LayerCount: 2
Fore
SplineSet
369 334 m 1
 202 334 l 1
 143 0 l 1
 63 0 l 1
 190 718 l 1
 270 718 l 1
 217 421 l 1
 386 421 l 1
 412 511 455 589 512 646 c 0
 571 706 645 737 730 737 c 0
 834 737 905 682 938 580 c 0
 949 544 955 501 955 456 c 0
 955 288 892 160 807 72 c 0
 749 13 674 -19 593 -19 c 0
 512 -19 447 13 411 72 c 0
 380 123 364 188 364 261 c 0
 364 284 366 309 369 334 c 1
714 650 m 0
 565 650 446 473 446 274 c 0
 446 148 506 68 608 68 c 0
 750 68 872 246 872 444 c 0
 872 569 813 650 714 650 c 0
EndSplineSet
EndChar

StartChar: afii10049
Encoding: 454 1071 347
Width: 554
Flags: MW
HStem: 0 21G<16 119 16 16 381 381 381 461> 303 83<406 434 406 406> 635 83<324 333 333 493>
LayerCount: 2
Fore
SplineSet
434 303 m 1
 406 303 l 1
 119 0 l 1
 16 0 l 1
 304 304 l 1
 250 304 l 2
 144 304 90 387 113 515 c 0
 134 637 219 718 324 718 c 2
 588 718 l 1
 461 0 l 1
 381 0 l 1
 434 303 l 1
493 635 m 1
 333 635 l 2
 254 635 209 595 194 512 c 0
 179 428 212 386 292 386 c 2
 449 386 l 1
 493 635 l 1
EndSplineSet
EndChar

StartChar: afii10066
Encoding: 456 1073 349
Width: 478
Flags: MW
HStem: -14 77<194.5 269.5 194.5 277> 461 77<295 340.5>
VStem: 68 484
LayerCount: 2
Fore
SplineSet
486 674 m 0
 415 638 372 644 302 622 c 0
 238 602 177 481 189 491 c 0
 227 521 271 538 319 538 c 0
 434 538 494 423 466 262 c 0
 437 99 336 -14 218 -14 c 0
 101 -14 39 99 68 262 c 0
 82 342 112 608 260 676 c 0
 320 704 380 690 450 720 c 0
 476 731 490 744 496 776 c 1
 552 776 l 1
 545 736 529 696 486 674 c 0
304 461 m 0
 226 461 164 384 143 262 c 0
 122 141 157 63 232 63 c 0
 307 63 370 141 391 262 c 0
 412 382 377 461 304 461 c 0
EndSplineSet
EndChar

StartChar: afii10067
Encoding: 457 1074 350
Width: 434
Flags: W
HStem: 0 70<128 223> 240 66<158 246 170 246 246 247> 454 69<196 196 196 273>
VStem: 372 74<145 201> 383 75<382.5 417.5>
LayerCount: 2
Fore
SplineSet
48 0 m 1xf0
 140 523 l 1
 320 523 l 2
 409 523 458 479 458 413 c 0xe8
 458 352 426 303 366 282 c 1
 420 272 446 256 446 199 c 0
 446 85 351 0 223 0 c 2
 48 0 l 1xf0
196 454 m 1
 170 306 l 1
 246 306 l 2
 335 306 383 335 383 397 c 0
 383 438 347 454 273 454 c 2
 196 454 l 1
158 240 m 1
 128 70 l 1
 231 70 l 2
 314 70 372 112 372 178 c 0xf0
 372 224 329 240 247 240 c 2
 158 240 l 1
EndSplineSet
EndChar

StartChar: afii10072
Encoding: 462 1078 355
Width: 656
Flags: MW
HStem: 0 21G<9 102 9 9 295 365 295 295 558 558 558 651> 503 20G<111 202 202 202 387 457 457 457 642 733 733 733>
LayerCount: 2
Fore
SplineSet
295 0 m 1
 332 209 l 1
 102 0 l 1
 9 0 l 1
 290 262 l 1
 111 523 l 1
 202 523 l 1
 348 302 l 1
 387 523 l 1
 457 523 l 1
 418 302 l 1
 642 523 l 1
 733 523 l 1
 462 262 l 1
 651 0 l 1
 558 0 l 1
 402 209 l 1
 365 0 l 1
 295 0 l 1
EndSplineSet
EndChar

StartChar: afii10073
Encoding: 463 1079 356
Width: 410
Flags: W
HStem: -15 77<186.5 253.5 186.5 278.5> 240 69<210 267 198 268> 461 77<251.5 307.5>
VStem: 53 73<116 121.5> 337 75<149 185.5> 360 69<393 420.5>
LayerCount: 2
Fore
SplineSet
219 62 m 0xf8
 288 62 337 98 337 168 c 0xf8
 337 203 323 240 267 240 c 2
 198 240 l 1
 210 309 l 1
 268 309 l 2
 353 309 360 384 360 402 c 0
 360 439 332 461 283 461 c 0
 220 461 184 433 170 374 c 1
 100 374 l 1
 125 479 193 538 291 538 c 0
 377 538 429 489 429 410 c 0xf4
 429 355 409 305 367 274 c 1
 395 256 412 227 412 187 c 0
 412 111 356 -15 201 -15 c 0
 83 -15 53 59 53 114 c 0
 53 129 54 146 57 168 c 1
 127 168 l 1
 126 160 126 152 126 145 c 0
 126 87 154 62 219 62 c 0xf8
EndSplineSet
EndChar

StartChar: afii10074
Encoding: 464 1080 357
Width: 471
Flags: MW
HStem: 0 21G<53 145 53 53 331 403 331 331> 503 20G<145 217 217 217 403 495 495 495>
VStem: 53 442
LayerCount: 2
Fore
SplineSet
495 523 m 1
 403 0 l 1
 331 0 l 1
 406 427 l 1
 145 0 l 1
 53 0 l 1
 145 523 l 1
 217 523 l 1
 141 91 l 1
 403 523 l 1
 495 523 l 1
EndSplineSet
EndChar

StartChar: afii10075
Encoding: 465 1081 358
Width: 473
Flags: MW
HStem: 0 21G<53 145 53 53 331 403 331 331> 503 20G<145 217 217 217 403 495 495 495> 595 57<342 366.5> 711 20G<244 284 284 284 458 497 497 497>
VStem: 244 40<731 731>
LayerCount: 2
Fore
SplineSet
458 731 m 1
 497 731 l 1
 484 687 474 667 455 644 c 0
 428 612 389 595 344 595 c 0
 278 595 243 632 243 702 c 1
 244 731 l 1
 284 731 l 1
 286 709 287 703 291 693 c 0
 301 666 325 652 359 652 c 0
 408 652 433 673 458 731 c 1
495 523 m 1
 403 0 l 1
 331 0 l 1
 406 427 l 1
 145 0 l 1
 53 0 l 1
 145 523 l 1
 217 523 l 1
 141 91 l 1
 403 523 l 1
 495 523 l 1
EndSplineSet
EndChar

StartChar: afii10077
Encoding: 467 1083 360
Width: 439
Flags: MW
HStem: 0 70<-12 19 -12 50> 454 69<205 349 205 205>
VStem: -25 458
LayerCount: 2
Fore
SplineSet
145 523 m 1
 433 523 l 1
 341 0 l 1
 269 0 l 1
 349 454 l 1
 205 454 l 1
 178 298 125 0 -25 0 c 1
 -12 70 l 1
 50 70 104 291 145 523 c 1
EndSplineSet
EndChar

StartChar: afii10078
Encoding: 468 1084 361
Width: 555
Flags: MW
HStem: 0 21G<53 125 53 53 231 309 231 231 415 415 415 487> 503 20G<145 250 250 250 474 579 579 579>
LayerCount: 2
Fore
SplineSet
231 0 m 1
 187 354 l 1
 125 0 l 1
 53 0 l 1
 145 523 l 1
 250 523 l 1
 287 94 l 1
 474 523 l 1
 579 523 l 1
 487 0 l 1
 415 0 l 1
 477 354 l 1
 309 0 l 1
 231 0 l 1
EndSplineSet
EndChar

StartChar: afii10079
Encoding: 469 1085 362
Width: 471
Flags: MW
HStem: 0 21G<53 125 53 53 331 403 331 331> 247 70<181 375 169 387> 503 20G<145 217 217 217 424 495 495 495>
VStem: 53 442
LayerCount: 2
Fore
SplineSet
495 523 m 1
 403 0 l 1
 331 0 l 1
 375 247 l 1
 169 247 l 1
 125 0 l 1
 53 0 l 1
 145 523 l 1
 217 523 l 1
 181 317 l 1
 387 317 l 1
 424 523 l 1
 495 523 l 1
EndSplineSet
EndChar

StartChar: afii10081
Encoding: 471 1087 364
Width: 471
Flags: MW
HStem: 0 21G<53 125 53 53 331 403 331 331> 454 69<205 411 205 205>
VStem: 53 442
LayerCount: 2
Fore
SplineSet
495 523 m 1
 403 0 l 1
 331 0 l 1
 411 454 l 1
 205 454 l 1
 125 0 l 1
 53 0 l 1
 145 523 l 1
 495 523 l 1
EndSplineSet
EndChar

StartChar: afii10082
Encoding: 472 1088 365
Width: 456
Flags: MW
HStem: -15 76<217 264 217 264.5> 459 79<311.5 342.5>
VStem: 404 75<310.5 383.5>
LayerCount: 2
Fore
SplineSet
11 -207 m 1
 138 523 l 1
 207 523 l 1
 193 446 l 1
 245 515 282 538 341 538 c 0
 426 538 479 468 479 355 c 0
 479 256 445 145 391 73 c 0
 348 15 295 -15 234 -15 c 0
 181 -15 149 7 130 58 c 1
 83 -207 l 1
 11 -207 l 1
313 459 m 0
 266 459 226 430 200 378 c 0
 172 320 153 239 153 178 c 0
 153 107 189 61 245 61 c 0
 283 61 319 84 346 125 c 0
 378 173 404 273 404 348 c 0
 404 419 372 459 313 459 c 0
EndSplineSet
EndChar

StartChar: afii10084
Encoding: 474 1090 367
Width: 334
Flags: MW
HStem: 0 21G<125 197 125 125> 450 73<97 204 84 409 276 396 276 276>
VStem: 84 325<450 523>
LayerCount: 2
Fore
SplineSet
396 450 m 1
 276 450 l 1
 197 0 l 1
 125 0 l 1
 204 450 l 1
 84 450 l 1
 97 523 l 1
 409 523 l 1
 396 450 l 1
EndSplineSet
EndChar

StartChar: afii10086
Encoding: 476 1092 369
Width: 745
Flags: MW
HStem: -15 77<193.5 240.5 498 570.5> 460 78<262 330 248 338 602 642>
LayerCount: 2
Fore
SplineSet
448 628 m 1
 516 628 l 1
 484 446 l 1
 534 514 573 538 631 538 c 0
 737 538 789 432 762 274 c 1
 731 100 637 -15 524 -15 c 0
 471 -15 439 7 419 58 c 1
 373 -207 l 1
 298 -207 l 1
 343 58 l 1
 305 7 267 -15 214 -15 c 0
 101 -15 47 100 78 274 c 1
 105 432 195 538 301 538 c 0
 359 538 390 514 416 446 c 1
 448 628 l 1
299 460 m 0
 225 460 174 394 152 271 c 0
 129 139 157 62 230 62 c 0
 302 62 359 131 379 245 c 0
 404 387 377 460 299 460 c 0
605 460 m 0
 527 460 474 387 449 245 c 0
 429 131 462 62 534 62 c 0
 607 62 663 139 686 271 c 0
 708 394 679 460 605 460 c 0
EndSplineSet
EndChar

StartChar: afii10087
Encoding: 477 1093 370
Width: 410
Flags: MW
HStem: 0 21G<9 100 9 9 310 402 310 310> 503 20G<107 200 200 200 399 487 487 487>
VStem: 9 478
LayerCount: 2
Fore
SplineSet
298 269 m 1
 402 0 l 1
 310 0 l 1
 238 197 l 1
 100 0 l 1
 9 0 l 1
 207 269 l 1
 107 523 l 1
 200 523 l 1
 267 339 l 1
 399 523 l 1
 487 523 l 1
 298 269 l 1
EndSplineSet
EndChar

StartChar: afii10088
Encoding: 478 1094 371
Width: 486
Flags: MW
HStem: 0 69<137 343 137 411> 503 20G<145 217 217 217 423 495 495 495>
VStem: 53 442
LayerCount: 2
Fore
SplineSet
411 0 m 1
 53 0 l 1
 145 523 l 1
 217 523 l 1
 137 69 l 1
 343 69 l 1
 423 523 l 1
 495 523 l 1
 415 66 l 1
 492 66 l 1
 458 -125 l 1
 389 -125 l 1
 411 0 l 1
EndSplineSet
EndChar

StartChar: afii10089
Encoding: 479 1095 372
Width: 386
Flags: MW
HStem: 0 21G<246 318 246 246> 206 70<181 205>
VStem: 59 70<310.5 319 319 322 310.5 322.5>
LayerCount: 2
Fore
SplineSet
411 523 m 1
 318 0 l 1
 246 0 l 1
 287 228 l 1
 255 206 229 206 181 206 c 0
 118 206 59 251 59 319 c 0
 59 326 59 333 61 341 c 2
 93 523 l 1
 165 524 l 1
 129 322 l 1
 129 319 l 2
 129 302 155 276 207 276 c 0
 252 276 297 288 301 314 c 2
 339 525 l 1
 411 523 l 1
EndSplineSet
EndChar

StartChar: afii10091
Encoding: 481 1097 374
Width: 605
Flags: MW
HStem: 0 69<137 271 343 477> 503 20G<145 217 217 217 351 423 423 423 557 629 629 629>
LayerCount: 2
Fore
SplineSet
343 69 m 1
 477 69 l 1
 557 523 l 1
 629 523 l 1
 549 66 l 1
 626 66 l 1
 592 -125 l 1
 523 -125 l 1
 545 0 l 1
 53 0 l 1
 145 523 l 1
 217 523 l 1
 137 69 l 1
 271 69 l 1
 351 523 l 1
 423 523 l 1
 343 69 l 1
EndSplineSet
EndChar

StartChar: afii10092
Encoding: 482 1098 375
Width: 490
Flags: MW
HStem: 0 70<198 293> 240 66<228 366 240 317> 454 69<96 198 84 278>
VStem: 442 72<145 201>
LayerCount: 2
Fore
SplineSet
278 523 m 1
 240 306 l 1
 366 306 l 2
 467 306 514 249 514 185 c 0
 514 77 410 0 293 0 c 2
 118 0 l 1
 198 454 l 1
 84 454 l 1
 96 523 l 1
 278 523 l 1
228 240 m 1
 198 70 l 1
 301 70 l 2
 384 70 442 112 442 178 c 0
 442 224 399 240 317 240 c 2
 228 240 l 1
EndSplineSet
EndChar

StartChar: afii10094
Encoding: 484 1100 377
Width: 425
Flags: MW
HStem: 0 70<133 228> 240 66<163 301 175 252> 503 20G<145 213 213 213>
VStem: 377 72<145 201>
LayerCount: 2
Fore
SplineSet
213 523 m 1
 175 306 l 1
 301 306 l 2
 402 306 449 249 449 185 c 0
 449 77 345 0 228 0 c 2
 53 0 l 1
 145 523 l 1
 213 523 l 1
163 240 m 1
 133 70 l 1
 236 70 l 2
 319 70 377 112 377 178 c 0
 377 224 334 240 252 240 c 2
 163 240 l 1
EndSplineSet
EndChar

StartChar: afii10096
Encoding: 486 1102 379
Width: 668
Flags: MW
HStem: -14 77<419.5 498 419.5 506.5> 247 70<181 285 169 299> 461 77<483.5 551.5>
VStem: 615 76<259.5 368.5>
LayerCount: 2
Fore
SplineSet
285 247 m 1
 169 247 l 1
 125 0 l 1
 53 0 l 1
 145 523 l 1
 217 523 l 1
 181 317 l 1
 299 317 l 1
 338 452 430 538 537 538 c 0
 633 538 691 458 691 338 c 0
 691 156 576 -14 437 -14 c 0
 323 -14 262 92 285 247 c 1
522 461 m 0
 427 461 355 332 355 197 c 0
 355 114 389 63 450 63 c 0
 546 63 615 192 615 327 c 0
 615 410 581 461 522 461 c 0
EndSplineSet
EndChar

StartChar: afii10097
Encoding: 487 1103 380
Width: 463
Flags: MW
HStem: 0 21G<9 102 9 9 327 327 327 395> 218 66<189 377 344 365 344 344> 454 69<265 487 312 407>
VStem: 9 478
LayerCount: 2
Fore
SplineSet
344 218 m 1
 102 0 l 1
 9 0 l 1
 246 218 l 1
 132 218 80 288 93 363 c 0
 110 457 192 523 312 523 c 2
 487 523 l 1
 395 0 l 1
 327 0 l 1
 365 218 l 1
 344 218 l 1
377 284 m 1
 407 454 l 1
 304 454 l 2
 226 454 176 423 165 363 c 0
 155 304 197 284 288 284 c 2
 377 284 l 1
EndSplineSet
EndChar

StartChar: afii10100
Encoding: 505 1107 398
Width: 322
Flags: MW
HStem: 0 21G<48 120 48 48> 450 73<199 401 199 199>
VStem: 48 366
LayerCount: 2
Fore
SplineSet
353 707 m 1
 221 566 l 1
 166 566 l 1
 264 707 l 1
 353 707 l 1
401 450 m 1
 199 450 l 1
 120 0 l 1
 48 0 l 1
 140 523 l 1
 414 523 l 1
 401 450 l 1
EndSplineSet
EndChar

StartChar: afii10101
Encoding: 506 1108 399
Width: 408
Flags: MW
HStem: -15 77<190.5 253.5 190.5 262> 247 70<144 323 161 310> 460 78<269.5 329.5>
VStem: 381 70<347 347>
LayerCount: 2
Fore
SplineSet
144 247 m 1
 126 129 155 62 226 62 c 0
 281 62 323 103 353 185 c 1
 423 185 l 1
 382 52 311 -15 213 -15 c 0
 96 -15 40 89 68 252 c 0
 99 427 198 538 322 538 c 0
 418 538 461 475 451 347 c 1
 381 347 l 1
 383 426 358 460 301 460 c 0
 238 460 189 409 161 317 c 1
 323 317 l 1
 310 247 l 1
 144 247 l 1
EndSplineSet
EndChar

StartChar: afii10103
Encoding: 508 1110 401
Width: 182
Flags: MW
HStem: 0 21G<55 127 55 55> 503 20G<146 218 218 218> 618 100<180 235 163 252>
VStem: 55 197
LayerCount: 2
Fore
SplineSet
218 523 m 1
 127 0 l 1
 55 0 l 1
 146 523 l 1
 218 523 l 1
235 618 m 1
 163 618 l 1
 180 718 l 1
 252 718 l 1
 235 618 l 1
EndSplineSet
EndChar

StartChar: afii10104
Encoding: 509 1111 402
Width: 228
Flags: MW
HStem: 0 21G<78 150 78 78> 503 20G<169 241 241 241> 604 102<134 191 116 208 134 249 266 323>
VStem: 78 263
LayerCount: 2
Fore
SplineSet
241 523 m 1
 150 0 l 1
 78 0 l 1
 169 523 l 1
 241 523 l 1
208 706 m 1
 191 604 l 1
 116 604 l 1
 134 706 l 1
 208 706 l 1
341 706 m 1
 323 604 l 1
 249 604 l 1
 266 706 l 1
 341 706 l 1
EndSplineSet
EndChar

StartChar: afii10106
Encoding: 511 1113 404
Width: 657
Flags: MW
HStem: 0 70<-12 19 -12 50 352 447> 240 66<382 520 394 471> 454 69<205 349 205 205>
VStem: 596 72<145 201>
LayerCount: 2
Fore
SplineSet
432 523 m 1
 394 306 l 1
 520 306 l 2
 621 306 668 249 668 185 c 0
 668 77 564 0 447 0 c 2
 272 0 l 1
 349 454 l 1
 205 454 l 1
 178 298 125 0 -25 0 c 1
 -12 70 l 1
 50 70 104 291 145 523 c 1
 432 523 l 1
382 240 m 1
 352 70 l 1
 455 70 l 2
 538 70 596 112 596 178 c 0
 596 224 553 240 471 240 c 2
 382 240 l 1
EndSplineSet
EndChar

StartChar: afii10107
Encoding: 512 1114 405
Width: 777
Flags: MW
HStem: 0 70<411 506> 246 69<441 579 453 530> 505 20G<424 492 492 492>
VStem: 655 72<145 201>
LayerCount: 2
Fore
SplineSet
492 525 m 1
 453 315 l 1
 579 315 l 2
 680 315 727 249 727 185 c 0
 727 77 623 0 506 0 c 2
 331 0 l 1
 375 247 l 1
 169 247 l 1
 125 0 l 1
 53 0 l 1
 145 523 l 1
 217 524 l 1
 181 317 l 1
 387 317 l 1
 424 525 l 1
 492 525 l 1
441 246 m 1
 411 70 l 1
 514 70 l 2
 597 70 655 112 655 178 c 0
 655 224 612 246 530 246 c 2
 441 246 l 1
EndSplineSet
EndChar

StartChar: afii10108
Encoding: 513 1115 406
Width: 497
Flags: MW
HStem: 0 21G<85 157 85 85 363 435 363 363> 354 79<336.5 364> 507 73<107 174 94 187 259 406 107 246> 698 20G<210 283 283 283>
VStem: 409 75<296.5 308.5>
LayerCount: 2
Fore
SplineSet
259 580 m 1
 419 580 l 1
 406 507 l 1
 246 507 l 1
 218 346 l 1
 271 411 308 433 365 433 c 0
 440 433 484 386 484 305 c 0
 484 288 482 270 479 251 c 2
 435 0 l 1
 363 0 l 1
 404 237 l 2
 407 253 409 273 409 285 c 0
 409 332 387 354 341 354 c 0
 264 354 208 291 189 180 c 2
 157 0 l 1
 85 0 l 1
 174 507 l 1
 94 507 l 1
 107 580 l 1
 187 580 l 1
 210 718 l 1
 283 718 l 1
 259 580 l 1
EndSplineSet
EndChar

StartChar: afii10109
Encoding: 514 1116 407
Width: 411
Flags: MW
HStem: 0 21G<55 125 55 55 318 411 318 318> 503 20G<147 217 217 217 402 493 493 493>
VStem: 55 438
LayerCount: 2
Fore
SplineSet
353 707 m 1
 221 566 l 1
 166 566 l 1
 264 707 l 1
 353 707 l 1
222 262 m 1
 411 0 l 1
 318 0 l 1
 161 209 l 1
 125 0 l 1
 55 0 l 1
 147 523 l 1
 217 523 l 1
 178 302 l 1
 402 523 l 1
 493 523 l 1
 222 262 l 1
EndSplineSet
EndChar

StartChar: uni045D
Encoding: 515 1117 408
Width: 471
Flags: MW
HStem: 0 21G<53 145 53 53 331 403 331 331>
VStem: 53 442
LayerCount: 2
Fore
SplineSet
363 623 m 1
 281 764 l 1
 370 764 l 1
 418 623 l 1
 363 623 l 1
495 523 m 1
 403 0 l 1
 331 0 l 1
 406 427 l 1
 145 0 l 1
 53 0 l 1
 145 523 l 1
 217 524 l 1
 141 91 l 1
 403 523 l 1
 403 523 469 522 495 523 c 1
EndSplineSet
EndChar

StartChar: afii10110
Encoding: 516 1118 409
Width: 412
Flags: MW
HStem: -214 79<57.5 80 57.5 86> 503 20G<97 179 179 179 409 489 489 489> 595 57<324 348.5> 711 20G<226 266 266 266 440 479 479 479>
VStem: 226 40<731 731>
LayerCount: 2
Fore
SplineSet
440 731 m 1
 479 731 l 1
 466 687 456 667 437 644 c 0
 410 612 371 595 326 595 c 0
 260 595 225 632 225 702 c 1
 226 731 l 1
 266 731 l 1
 268 709 269 703 273 693 c 0
 283 666 307 652 341 652 c 0
 390 652 415 673 440 731 c 1
219 94 m 1
 409 523 l 1
 489 523 l 1
 245 10 l 1
 145 -195 128 -214 44 -214 c 0
 32 -214 28 -213 15 -208 c 2
 12 -207 l 1
 9 -206 l 1
 23 -126 l 1
 37 -132 50 -135 65 -135 c 0
 95 -135 110 -121 135 -68 c 1
 162 -14 l 1
 97 523 l 1
 179 523 l 1
 219 94 l 1
EndSplineSet
EndChar

StartChar: afii10193
Encoding: 517 1119 410
Width: 471
Flags: MW
HStem: 0 69<137 194 263 263 263 343 137 403> 503 20G<145 217 217 217 423 495 495 495>
VStem: 53 442
LayerCount: 2
Fore
SplineSet
53 0 m 1
 145 523 l 1
 217 523 l 1
 137 69 l 1
 343 69 l 1
 423 523 l 1
 495 523 l 1
 403 0 l 1
 263 0 l 1
 241 -125 l 1
 172 -125 l 1
 194 0 l 1
 53 0 l 1
EndSplineSet
EndChar

StartChar: uni048C
Encoding: 518 1164 411
Width: 512
Flags: MW
HStem: 0 83<158 318 318 327> 332 83<216 359 202 400> 576 73<113 165 100 178 113 245 258 314> 698 20G<190 270 270 270>
VStem: 63 475
LayerCount: 2
Fore
SplineSet
158 83 m 1
 318 83 l 2
 397 83 442 123 456 206 c 0
 471 290 439 332 359 332 c 2
 202 332 l 1
 158 83 l 1
216 415 m 1
 400 415 l 2
 506 415 560 331 538 203 c 1
 516 81 432 0 327 0 c 2
 63 0 l 1
 165 576 l 1
 100 576 l 1
 113 649 l 1
 178 649 l 1
 190 718 l 1
 270 718 l 1
 258 649 l 1
 327 649 l 1
 314 576 l 1
 245 576 l 1
 216 415 l 1
EndSplineSet
EndChar

StartChar: uni048D
Encoding: 519 1165 412
Width: 425
Flags: MW
HStem: 0 70<133 228> 240 66<163 301 175 252> 404 63<81 124 68 135 203 248 81 192>
VStem: 53 394
LayerCount: 2
Fore
SplineSet
163 240 m 1
 133 70 l 1
 236 70 l 2
 314 70 365 101 375 161 c 1
 386 220 343 240 252 240 c 2
 163 240 l 1
135 467 m 1
 145 524 l 1
 213 523 l 1
 203 467 l 1
 261 467 l 1
 248 404 l 1
 192 404 l 1
 175 306 l 1
 301 306 l 2
 415 306 460 234 447 161 c 0
 431 67 348 0 228 0 c 2
 53 0 l 1
 124 404 l 1
 68 404 l 1
 81 467 l 1
 135 467 l 1
EndSplineSet
EndChar

StartChar: uni048E
Encoding: 520 1166 413
Width: 583
Flags: MW
HStem: 0 21G<71 150 71 71> 303 83<203 376 218 376 376 388> 635 83<261 261 261 422>
VStem: 521 83<536 577.5>
LayerCount: 2
Fore
SplineSet
261 635 m 1
 218 386 l 1
 376 386 l 2
 410 386 437 393 459 408 c 1
 395 502 l 1
 455 541 l 1
 505 467 l 1
 515 492 521 523 521 549 c 0
 521 606 487 635 422 635 c 2
 261 635 l 1
203 303 m 1
 150 0 l 1
 71 0 l 1
 196 718 l 1
 461 718 l 2
 549 718 604 659 604 565 c 0
 604 506 585 443 553 396 c 1
 622 293 l 1
 562 254 l 1
 503 341 l 1
 470 316 432 303 388 303 c 2
 203 303 l 1
EndSplineSet
EndChar

StartChar: uni048F
Encoding: 521 1167 414
Width: 480
Flags: MW
HStem: -15 76<217 257> 459 79<311.5 342.5>
VStem: 404 75<317.5 383.5>
LayerCount: 2
Fore
SplineSet
313 459 m 0
 266 459 226 430 200 378 c 0
 172 320 153 239 153 178 c 0
 153 107 189 61 245 61 c 0
 271 61 297 72 319 93 c 1
 245 202 l 1
 305 241 l 1
 363 156 l 1
 386 208 404 287 404 348 c 0
 404 419 372 459 313 459 c 0
11 -207 m 1
 138 523 l 1
 207 523 l 1
 193 446 l 1
 245 515 282 538 341 538 c 0
 426 538 479 468 479 355 c 0
 479 265 451 165 405 93 c 1
 472 -7 l 1
 412 -46 l 1
 357 35 l 1
 321 2 280 -15 234 -15 c 0
 181 -15 149 7 130 58 c 1
 83 -207 l 1
 11 -207 l 1
EndSplineSet
EndChar

StartChar: afii10050
Encoding: 522 1168 415
Width: 516
Flags: MW
HStem: 0 21G<71 151 71 71> 631 87<262 527 198 589 262 262>
LayerCount: 2
Fore
SplineSet
151 0 m 1
 71 0 l 1
 198 718 l 1
 527 718 l 1
 541 799 l 1
 619 799 l 1
 589 631 l 1
 262 631 l 1
 151 0 l 1
EndSplineSet
EndChar

StartChar: afii10098
Encoding: 523 1169 416
Width: 344
Flags: MW
HStem: 0 21G<48 120 48 48> 450 73<140 401 140 199>
VStem: 48 378
LayerCount: 2
Fore
SplineSet
401 450 m 1
 199 450 l 1
 120 0 l 1
 48 0 l 1
 140 523 l 1
 350 525 l 1
 361 591 l 1
 426 591 l 1
 401 450 l 1
EndSplineSet
EndChar

StartChar: uni0492
Encoding: 524 1170 417
Width: 501
Flags: MW
HStem: 0 21G<72 151 72 72> 408 70<69 143 57 155 234 357 69 222> 632 86<260 588 260 260>
LayerCount: 2
Fore
SplineSet
234 478 m 1
 369 478 l 1
 357 408 l 1
 222 408 l 1
 151 0 l 1
 72 0 l 1
 143 408 l 1
 57 408 l 1
 69 478 l 1
 155 478 l 1
 196 718 l 1
 603 718 l 1
 588 632 l 1
 260 632 l 1
 234 478 l 1
EndSplineSet
EndChar

StartChar: uni0493
Encoding: 525 1171 418
Width: 322
Flags: MW
HStem: 0 21G<49 121 49 49> 260 70<45 95 33 107 178 234 45 166> 450 73<199 401 199 199>
VStem: 33 381<260 523>
LayerCount: 2
Fore
SplineSet
107 330 m 1
 140 523 l 1
 414 523 l 1
 401 450 l 1
 199 450 l 1
 178 330 l 1
 246 330 l 1
 234 260 l 1
 166 260 l 1
 121 0 l 1
 49 0 l 1
 95 260 l 1
 33 260 l 1
 45 330 l 1
 107 330 l 1
EndSplineSet
EndChar

StartChar: uni0494
Encoding: 526 1172 419
Width: 501
Flags: MW
HStem: -131 85<282 301.5 282 310.5> 0 21G<71 149 71 71 487 487> 353 85<331.5 353.5> 632 86<260 588 260 260>
VStem: 458 81<303.5 311.5>
LayerCount: 2
Fore
SplineSet
220 401 m 1
 260 433 311 438 352 438 c 0
 398 438 539 412 539 307 c 0
 539 300 537 287 536 280 c 2
 487 0 l 2
 469 -106 339 -131 282 -131 c 1
 282 -46 l 1
 321 -46 400 -17 406 15 c 2
 456 280 l 2
 456 282 458 290 458 292 c 0
 458 331 373 353 334 353 c 0
 291 353 206 323 201 293 c 2
 149 0 l 1
 71 0 l 1
 196 718 l 1
 603 718 l 1
 588 632 l 1
 260 632 l 1
 220 401 l 1
EndSplineSet
EndChar

StartChar: uni0495
Encoding: 527 1173 420
Width: 402
Flags: MW
HStem: -184 82<165 187.5> 0 21G<48 119 48 48> 258 82<241.5 267.5> 450 73<199 401 199 199>
VStem: 316 83<214 278>
LayerCount: 2
Fore
SplineSet
176 317 m 1
 200 330 220 340 263 340 c 0
 334 340 399 315 399 241 c 0
 399 231 398 221 396 209 c 2
 346 -53 l 1
 325 -152 228 -184 147 -184 c 1
 165 -102 l 1
 216 -102 259 -88 268 -45 c 2
 314 201 l 2
 315 207 316 212 316 216 c 0
 316 247 290 258 245 258 c 0
 187 258 163 238 158 208 c 2
 119 0 l 1
 48 0 l 1
 140 523 l 1
 414 523 l 1
 401 450 l 1
 199 450 l 1
 176 317 l 1
EndSplineSet
EndChar

StartChar: uni0496
Encoding: 528 1174 421
Width: 902
Flags: MW
HStem: -20 20G<16 119 16 16 418 498 418 418 797 820 797 797> 698 20G<149 259 259 259 545 625 625 625 911 1021 1021 1021>
LayerCount: 2
Fore
SplineSet
849 86 m 1
 915 86 l 1
 879 -120 l 1
 799 -120 l 1
 820 0 l 1
 797 0 l 1
 587 350 l 1
 560 350 l 1
 498 0 l 1
 418 0 l 1
 480 350 l 1
 453 350 l 1
 119 0 l 1
 16 0 l 1
 378 382 l 1
 149 718 l 1
 259 718 l 1
 457 428 l 1
 493 428 l 1
 545 718 l 1
 625 718 l 1
 573 428 l 1
 609 428 l 1
 911 718 l 1
 1021 718 l 1
 672 382 l 1
 849 86 l 1
EndSplineSet
EndChar

StartChar: uni0497
Encoding: 529 1175 422
Width: 656
Flags: MW
HStem: -20 20G<9 102 9 9 295 365 295 295 558 582 558 558> 503 20G<111 202 202 202 387 457 457 457 642 733 733 733>
LayerCount: 2
Fore
SplineSet
603 66 m 1
 663 66 l 1
 629 -125 l 1
 560 -125 l 1
 582 0 l 1
 558 0 l 1
 402 209 l 1
 365 0 l 1
 295 0 l 1
 332 209 l 1
 102 0 l 1
 9 0 l 1
 290 262 l 1
 111 523 l 1
 202 523 l 1
 348 302 l 1
 387 523 l 1
 457 523 l 1
 418 302 l 1
 642 523 l 1
 733 523 l 1
 462 262 l 1
 603 66 l 1
EndSplineSet
EndChar

StartChar: uni0498
Encoding: 530 1176 423
Width: 557
Flags: W
HStem: -225 47<198 228 198 242.5> 331 71<241 347 231 363> 654 83<343.5 408>
VStem: 61 78<156.5 169.5> 68 75<232 232> 268 60<-115.5 -81> 454 81<198.5 253.5> 485 77<525 588>
LayerCount: 2
Fore
SplineSet
278 64 m 0xf4
 382 64 454 119 454 226 c 0xf6
 454 281 429 331 347 331 c 2
 231 331 l 1
 241 402 l 1
 363 402 l 2
 436 402 485 492 485 557 c 0
 485 619 445 654 371 654 c 0
 316 654 269 632 237 593 c 1
 219 569 209 548 199 508 c 1
 124 508 l 1
 140 572 152 602 176 637 c 1
 223 701 297 737 386 737 c 0
 527 737 562 646 562 564 c 0xe5
 562 486 530 415 470 375 c 1
 514 350 535 308 535 250 c 0
 535 147 475 -1 294 -18 c 1
 311 -32 328 -56 328 -100 c 0
 328 -176 275 -225 210 -225 c 0
 185 -225 162 -218 135 -203 c 1
 157 -163 l 1
 180 -175 190 -178 206 -178 c 0
 250 -178 268 -136 268 -95 c 0
 268 -67 256 -46 224 -17 c 1
 155 -11 112 17 83 71 c 0
 68 98 61 124 61 159 c 0xf6
 61 180 64 203 68 232 c 1
 143 232 l 1xec
 140 214 139 199 139 186 c 0
 139 127 173 64 278 64 c 0xf4
EndSplineSet
EndChar

StartChar: uni0499
Encoding: 531 1177 424
Width: 410
Flags: W
HStem: -225 47<145 175 145 189.5> 240 69<210 267 198 268> 461 77<251.5 307.5>
VStem: 53 73<116 121.5> 215 60<-115.5 -80> 337 75<151.5 185.5> 360 69<393 420.5>
LayerCount: 2
Fore
SplineSet
219 62 m 0xfc
 288 62 337 98 337 168 c 0xfc
 337 203 323 240 267 240 c 2
 198 240 l 1
 210 309 l 1
 268 309 l 2
 353 309 360 384 360 402 c 0
 360 439 332 461 283 461 c 0
 220 461 184 433 170 374 c 1
 100 374 l 1
 125 479 193 538 291 538 c 0
 377 538 429 489 429 410 c 0xfa
 429 355 409 305 367 274 c 1
 395 256 412 227 412 187 c 0
 412 116 364 4 235 -13 c 1
 254 -26 275 -51 275 -100 c 0
 275 -176 222 -225 157 -225 c 0
 132 -225 109 -218 82 -203 c 1
 104 -163 l 1
 127 -175 137 -178 153 -178 c 0
 197 -178 215 -136 215 -95 c 0
 215 -65 201 -43 165 -12 c 1
 77 1 53 65 53 114 c 0
 53 129 54 146 57 168 c 1
 127 168 l 1
 126 160 126 152 126 145 c 0
 126 87 154 62 219 62 c 0xfc
EndSplineSet
EndChar

StartChar: uni049A
Encoding: 532 1178 425
Width: 565
Flags: MW
HStem: -20 20G<63 143 63 63 442 465 442 442> 698 20G<190 270 270 270 556 666 666 666>
LayerCount: 2
Fore
SplineSet
494 86 m 1
 560 86 l 1
 524 -120 l 1
 444 -120 l 1
 465 0 l 1
 442 0 l 1
 232 350 l 1
 205 350 l 1
 143 0 l 1
 63 0 l 1
 190 718 l 1
 270 718 l 1
 218 427 l 1
 254 428 l 1
 556 718 l 1
 666 718 l 1
 317 382 l 1
 494 86 l 1
EndSplineSet
EndChar

StartChar: uni049B
Encoding: 533 1179 426
Width: 411
Flags: MW
HStem: -20 20G<55 125 55 55 318 342 318 318> 503 20G<147 217 217 217 402 493 493 493>
VStem: 55 438
LayerCount: 2
Fore
SplineSet
364 66 m 1
 423 66 l 1
 389 -125 l 1
 320 -125 l 1
 342 0 l 1
 318 0 l 1
 161 209 l 1
 125 0 l 1
 55 0 l 1
 147 523 l 1
 217 523 l 1
 178 302 l 1
 402 523 l 1
 493 523 l 1
 222 262 l 1
 364 66 l 1
EndSplineSet
EndChar

StartChar: uni049C
Encoding: 534 1180 427
Width: 563
Flags: MW
HStem: 0 21G<63 143 63 63 442 442 442 545> 698 20G<190 270 270 270 556 666 666 666>
LayerCount: 2
Fore
SplineSet
205 350 m 1
 143 0 l 1
 63 0 l 1
 190 718 l 1
 270 718 l 1
 218 427 l 1
 252 428 l 1
 288 633 l 1
 360 633 l 1
 338 509 l 1
 556 718 l 1
 666 718 l 1
 317 382 l 1
 545 0 l 1
 442 0 l 1
 293 248 l 1
 269 110 l 1
 197 110 l 1
 237 341 l 1
 232 350 l 1
 205 350 l 1
EndSplineSet
EndChar

StartChar: uni049D
Encoding: 535 1181 428
Width: 411
Flags: MW
HStem: 0 21G<55 125 55 55 318 411 318 318> 503 20G<147 217 217 217 402 493 493 493>
VStem: 55 438
LayerCount: 2
Fore
SplineSet
223 347 m 1
 249 493 l 1
 321 493 l 1
 310 432 l 1
 402 523 l 1
 493 523 l 1
 292 330 l 1
 269 197 l 1
 411 0 l 1
 318 0 l 1
 251 90 l 1
 242 40 l 1
 170 40 l 1
 192 168 l 1
 161 209 l 1
 125 0 l 1
 55 0 l 1
 147 523 l 1
 217 523 l 1
 178 302 l 1
 223 347 l 1
EndSplineSet
EndChar

StartChar: uni049E
Encoding: 536 1182 429
Width: 565
Flags: MW
HStem: 0 21G<63 143 63 63 442 442 442 545> 556 73<93 161 80 174 93 241 254 322> 698 20G<190 270 270 270 556 666 666 666>
LayerCount: 2
Fore
SplineSet
205 350 m 1
 143 0 l 1
 63 0 l 1
 161 556 l 1
 80 556 l 1
 93 629 l 1
 174 629 l 1
 190 718 l 1
 270 718 l 1
 254 629 l 1
 335 629 l 1
 322 556 l 1
 241 556 l 1
 218 427 l 1
 254 428 l 1
 556 718 l 1
 666 718 l 1
 317 382 l 1
 545 0 l 1
 442 0 l 1
 232 350 l 1
 205 350 l 1
EndSplineSet
EndChar

StartChar: uni049F
Encoding: 537 1183 430
Width: 411
Flags: MW
HStem: 0 21G<55 125 55 55 318 411 318 318> 410 63<83 127 72 138 83 197 208 266> 503 20G<147 217 217 217 402 493 493 493>
VStem: 55 438
LayerCount: 2
Fore
SplineSet
222 262 m 1
 411 0 l 1
 318 0 l 1
 161 209 l 1
 125 0 l 1
 55 0 l 1
 127 410 l 1
 72 410 l 1
 83 473 l 1
 138 473 l 1
 147 523 l 1
 217 523 l 1
 208 473 l 1
 277 473 l 1
 266 410 l 1
 197 410 l 1
 178 302 l 1
 402 523 l 1
 493 523 l 1
 222 262 l 1
EndSplineSet
EndChar

StartChar: uni04A0
Encoding: 538 1184 431
Width: 747
Flags: MW
HStem: 0 21G<246 326 246 246 625 625 625 728> 631 87<150 358 135 453>
LayerCount: 2
Fore
SplineSet
388 350 m 1
 326 0 l 1
 246 0 l 1
 358 631 l 1
 135 631 l 1
 150 718 l 1
 453 718 l 1
 401 427 l 1
 437 428 l 1
 739 718 l 1
 849 718 l 1
 500 382 l 1
 728 0 l 1
 625 0 l 1
 415 350 l 1
 388 350 l 1
EndSplineSet
EndChar

StartChar: uni04A1
Encoding: 539 1185 432
Width: 461
Flags: MW
HStem: 0 21G<116 186 116 116 379 472 379 379> 454 69<96 196 84 278>
VStem: 84 470<454 523>
LayerCount: 2
Fore
SplineSet
283 262 m 1
 472 0 l 1
 379 0 l 1
 222 209 l 1
 186 0 l 1
 116 0 l 1
 196 454 l 1
 84 454 l 1
 96 523 l 1
 278 523 l 1
 239 302 l 1
 463 523 l 1
 554 523 l 1
 283 262 l 1
EndSplineSet
EndChar

StartChar: uni04A2
Encoding: 540 1186 433
Width: 592
Flags: MW
HStem: -20 20G<63 143 63 63 450 526 450 450> 335 86<216 509 201 524> 698 20G<188 268 268 268 575 655 655 655>
LayerCount: 2
Fore
SplineSet
545 86 m 1
 621 86 l 1
 585 -120 l 1
 505 -120 l 1
 526 0 l 1
 450 0 l 1
 509 335 l 1
 201 335 l 1
 143 0 l 1
 63 0 l 1
 188 718 l 1
 268 718 l 1
 216 421 l 1
 524 421 l 1
 575 718 l 1
 655 718 l 1
 545 86 l 1
EndSplineSet
EndChar

StartChar: uni04A3
Encoding: 541 1187 434
Width: 471
Flags: MW
HStem: -20 20G<53 125 53 53 331 391 331 331> 247 70<181 375 169 387>
VStem: 53 442
LayerCount: 2
Fore
SplineSet
415 66 m 1
 472 66 l 1
 438 -125 l 1
 369 -125 l 1
 391 0 l 1
 331 0 l 1
 375 247 l 1
 169 247 l 1
 125 0 l 1
 53 0 l 1
 145 523 l 1
 217 524 l 1
 181 317 l 1
 387 317 l 1
 424 525 l 1
 495 523 l 1
 415 66 l 1
EndSplineSet
EndChar

StartChar: uni04A4
Encoding: 542 1188 435
Width: 860
Flags: MW
HStem: 0 21G<63 143 63 63 450 530 450 450> 335 86<216 509 201 524> 632 86<640 640 640 947>
LayerCount: 2
Fore
SplineSet
640 632 m 1
 530 0 l 1
 450 0 l 1
 509 335 l 1
 201 335 l 1
 143 0 l 1
 63 0 l 1
 188 718 l 1
 268 718 l 1
 216 421 l 1
 524 421 l 1
 575 718 l 1
 962 718 l 1
 947 632 l 1
 640 632 l 1
EndSplineSet
EndChar

StartChar: uni04A5
Encoding: 543 1189 436
Width: 606
Flags: MW
HStem: 0 21G<53 125 53 53 331 403 331 331> 247 70<181 375 169 387> 450 73<482 482 482 685>
LayerCount: 2
Fore
SplineSet
482 450 m 1
 403 0 l 1
 331 0 l 1
 375 247 l 1
 169 247 l 1
 125 0 l 1
 53 0 l 1
 145 523 l 1
 217 523 l 1
 181 317 l 1
 387 317 l 1
 424 523 l 1
 698 523 l 1
 685 450 l 1
 482 450 l 1
EndSplineSet
EndChar

StartChar: uni04A6
Encoding: 544 1190 437
Width: 932
Flags: MW
HStem: -131 85<663 682.5 663 691.5> 0 21G<63 143 63 63 450 528 450 450 868 868> 353 85<712.5 734.5> 631 87<254 561 254 254>
VStem: 839 81<303.5 311.5>
LayerCount: 2
Fore
SplineSet
601 401 m 1
 641 433 692 438 733 438 c 0
 779 438 920 412 920 307 c 0
 920 300 918 287 917 280 c 2
 868 0 l 2
 850 -106 720 -131 663 -131 c 1
 663 -46 l 1
 702 -46 781 -17 787 15 c 2
 837 280 l 2
 837 282 839 290 839 292 c 0
 839 331 754 353 715 353 c 0
 672 353 588 323 582 293 c 2
 528 0 l 1
 450 0 l 1
 561 631 l 1
 254 631 l 1
 143 0 l 1
 63 0 l 1
 190 718 l 1
 657 718 l 1
 601 401 l 1
EndSplineSet
EndChar

StartChar: uni04A7
Encoding: 545 1191 438
Width: 690
Flags: MW
HStem: -184 82<447 469.5> 0 21G<53 125 53 53 331 403 331 331> 258 82<523.5 549.5> 454 69<205 411 205 205>
VStem: 598 83<214 278>
LayerCount: 2
Fore
SplineSet
459 317 m 1
 483 330 502 340 545 340 c 0
 616 340 681 315 681 241 c 0
 681 231 680 221 678 209 c 2
 628 -53 l 1
 607 -152 510 -184 429 -184 c 1
 447 -102 l 1
 498 -102 541 -88 550 -45 c 2
 596 201 l 2
 597 207 598 212 598 216 c 0
 598 247 572 258 527 258 c 0
 469 258 445 238 440 208 c 2
 403 0 l 1
 331 0 l 1
 411 454 l 1
 205 454 l 1
 125 0 l 1
 53 0 l 1
 145 523 l 1
 495 523 l 1
 459 317 l 1
EndSplineSet
EndChar

StartChar: uni04A8
Encoding: 546 1192 439
Width: 592
Flags: W
HStem: -19 86<271 327.5> 360 84<505 528.5> 651 86<392.5 446>
VStem: 88 83<194.5 307.5 194.5 309.5> 388 86<236.5 273 236.5 280.5> 540 78<308.5 330> 562 78<502 592>
LayerCount: 2
Fore
SplineSet
486 176 m 1xfc
 513 222 540 284 540 322 c 0
 540 338 537 360 520 360 c 0
 490 360 474 296 474 250 c 0
 474 223 478 199 486 176 c 1xfc
529 107 m 1
 546 89 567 72 592 56 c 1
 532 -8 l 1
 509 9 488 26 470 44 c 1
 419 3 358 -19 297 -19 c 0
 166 -19 88 79 88 242 c 0
 88 377 130 518 198 607 c 0
 262 692 346 737 439 737 c 0
 562 737 640 656 640 528 c 0
 640 521 640 513 639 502 c 1
 562 502 l 1xfa
 560 559 551 586 526 612 c 0
 503 637 467 651 425 651 c 0
 356 651 293 613 247 543 c 1
 201 475 171 360 171 255 c 0
 171 134 223 67 319 67 c 0
 358 67 392 79 423 102 c 1
 401 138 388 180 388 230 c 0
 388 331 438 444 532 444 c 0
 583 444 618 396 618 344 c 0
 618 273 575 173 529 107 c 1
EndSplineSet
EndChar

StartChar: uni04A9
Encoding: 547 1193 440
Width: 410
Flags: W
HStem: -15 76<198.5 231> 249 57<334 348.5> 459 79<288 320>
VStem: 61 78<141.5 212.5 141.5 220.5> 237 69<152.5 183 152.5 183> 356 74<195 225.5> 382 72<347 436>
LayerCount: 2
Fore
SplineSet
371 67 m 1xfc
 382 61 395 56 408 50 c 1
 374 -12 l 1
 353 -3 333 7 316 17 c 1
 284 -4 248 -15 214 -15 c 0
 119 -15 61 55 61 172 c 0
 61 269 94 375 145 443 c 0
 192 505 253 538 323 538 c 0
 404 538 454 482 454 390 c 0
 454 379 453 364 452 347 c 1
 382 347 l 1xfa
 381 384 381 387 377 403 c 0
 366 440 340 459 300 459 c 0
 252 459 211 429 182 372 c 0
 156 321 139 245 139 180 c 0
 139 103 170 61 227 61 c 0
 239 61 250 63 260 67 c 1
 246 88 237 113 237 144 c 0
 237 222 293 306 350 306 c 0
 396 306 430 276 430 218 c 0
 430 165 407 110 371 67 c 1xfc
318 113 m 1
 333 131 356 172 356 218 c 0
 356 233 355 249 342 249 c 0
 326 249 306 204 306 162 c 0
 306 143 310 127 318 113 c 1
EndSplineSet
EndChar

StartChar: uni04AA
Encoding: 548 1194 441
Width: 592
Flags: MW
HStem: -225 47<237 267 237 281.5> 651 86<392.5 446>
VStem: 88 83<194.5 307.5 194.5 309.5> 307 60<-115.5 -80.5> 562 77<502 502>
LayerCount: 2
Fore
SplineSet
639 502 m 1
 562 502 l 1
 560 559 551 586 526 612 c 0
 503 637 467 651 425 651 c 0
 356 651 293 613 247 543 c 1
 201 475 171 360 171 255 c 0
 171 134 223 67 319 67 c 0
 375 67 421 91 462 140 c 0
 488 172 504 202 527 264 c 1
 604 264 l 1
 563 149 533 99 480 53 c 0
 436 14 385 -9 332 -17 c 1
 350 -31 367 -55 367 -100 c 0
 367 -176 314 -225 249 -225 c 0
 224 -225 201 -218 174 -203 c 1
 196 -163 l 1
 219 -175 229 -178 245 -178 c 0
 289 -178 307 -136 307 -95 c 0
 307 -66 294 -45 262 -16 c 1
 152 0 88 94 88 242 c 0
 88 377 130 518 198 607 c 0
 262 692 346 737 439 737 c 0
 562 737 640 656 640 528 c 0
 640 521 640 513 639 502 c 1
EndSplineSet
EndChar

StartChar: uni04AB
Encoding: 549 1195 442
Width: 410
Flags: MW
HStem: -225 47<157 187 157 201.5> 459 79<288 320>
VStem: 61 78<141.5 212.5 141.5 220.5> 227 60<-115.5 -79.5> 382 70<347 347>
LayerCount: 2
Fore
SplineSet
452 347 m 1
 382 347 l 1
 381 384 381 387 377 403 c 0
 366 440 340 459 300 459 c 0
 252 459 211 429 182 372 c 0
 156 321 139 245 139 180 c 0
 139 103 170 61 227 61 c 0
 282 61 324 102 354 185 c 1
 424 185 l 1
 388 67 328 1 246 -12 c 1
 266 -26 287 -50 287 -100 c 0
 287 -176 234 -225 169 -225 c 0
 144 -225 121 -218 94 -203 c 1
 116 -163 l 1
 139 -175 149 -178 165 -178 c 0
 209 -178 227 -136 227 -95 c 0
 227 -64 213 -42 175 -11 c 1
 103 6 61 72 61 172 c 0
 61 269 94 375 145 443 c 0
 192 505 253 538 323 538 c 0
 404 538 454 482 454 390 c 0
 454 379 453 364 452 347 c 1
EndSplineSet
EndChar

StartChar: uni04AC
Encoding: 550 1196 443
Width: 501
Flags: MW
HStem: -20 20G<211 287 211 211> 632 86<137 321 122 615 401 401 401 600>
VStem: 122 493<632 718>
LayerCount: 2
Fore
SplineSet
306 86 m 1
 382 86 l 1
 346 -120 l 1
 266 -120 l 1
 287 0 l 1
 211 0 l 1
 321 632 l 1
 122 632 l 1
 137 718 l 1
 615 718 l 1
 600 632 l 1
 401 632 l 1
 306 86 l 1
EndSplineSet
EndChar

StartChar: uni04AD
Encoding: 551 1197 444
Width: 334
Flags: MW
HStem: -20 20G<125 185 125 125> 450 73<97 204 84 409 276 276 276 396>
VStem: 84 325<450 523>
LayerCount: 2
Fore
SplineSet
209 66 m 1
 266 66 l 1
 232 -125 l 1
 163 -125 l 1
 185 0 l 1
 125 0 l 1
 204 450 l 1
 84 450 l 1
 97 523 l 1
 409 523 l 1
 396 450 l 1
 276 450 l 1
 209 66 l 1
EndSplineSet
EndChar

StartChar: uni04AE
Encoding: 552 1198 445
Width: 547
Flags: MW
HStem: 0 21G<234 314 234 234> 698 20G<137 230 230 230 568 661 661 661>
LayerCount: 2
Fore
SplineSet
364 289 m 1
 314 0 l 1
 234 0 l 1
 284 289 l 1
 137 718 l 1
 230 718 l 1
 338 373 l 1
 568 718 l 1
 661 718 l 1
 364 289 l 1
EndSplineSet
EndChar

StartChar: uni04AF
Encoding: 553 1199 446
Width: 547
Flags: MW
HStem: 503 20G<135 228 228 228 506 599 599 599>
VStem: 135 464<523 523>
LayerCount: 2
Fore
SplineSet
332 94 m 1
 282 -195 l 1
 202 -195 l 1
 252 94 l 1
 135 523 l 1
 228 523 l 1
 306 178 l 1
 506 523 l 1
 599 523 l 1
 332 94 l 1
EndSplineSet
EndChar

StartChar: uni04B0
Encoding: 554 1200 447
Width: 547
Flags: MW
HStem: 0 21G<234 314 234 234> 210 60<116 270 105 281 361 515> 698 20G<137 230 230 230 568 661 661 661>
LayerCount: 2
Fore
SplineSet
270 210 m 1
 105 210 l 1
 116 270 l 1
 281 270 l 1
 284 289 l 1
 137 718 l 1
 230 718 l 1
 338 373 l 1
 568 718 l 1
 661 718 l 1
 364 289 l 1
 361 270 l 1
 526 270 l 1
 515 210 l 1
 350 210 l 1
 314 0 l 1
 234 0 l 1
 270 210 l 1
EndSplineSet
EndChar

StartChar: uni04B1
Encoding: 555 1201 448
Width: 547
Flags: MW
HStem: 34 60<117 242 107 252 332 457> 503 20G<135 228 228 228 506 599 599 599>
VStem: 107 492<34 523>
LayerCount: 2
Fore
SplineSet
242 34 m 1
 107 34 l 1
 117 94 l 1
 252 94 l 1
 135 523 l 1
 228 523 l 1
 306 178 l 1
 506 523 l 1
 599 523 l 1
 332 94 l 1
 467 94 l 1
 457 34 l 1
 322 34 l 1
 282 -195 l 1
 202 -195 l 1
 242 34 l 1
EndSplineSet
EndChar

StartChar: uni04B2
Encoding: 556 1202 449
Width: 547
Flags: MW
HStem: -20 20G<16 112 16 16 433 451 433 433> 698 20G<154 254 254 254 552 647 647 647>
LayerCount: 2
Fore
SplineSet
497 86 m 1
 546 86 l 1
 510 -120 l 1
 430 -120 l 1
 451 0 l 1
 433 0 l 1
 326 295 l 1
 112 0 l 1
 16 0 l 1
 290 368 l 1
 154 718 l 1
 254 718 l 1
 355 443 l 1
 552 718 l 1
 647 718 l 1
 389 368 l 1
 497 86 l 1
EndSplineSet
EndChar

StartChar: uni04B3
Encoding: 557 1203 450
Width: 410
Flags: MW
HStem: -20 20G<9 100 9 9 310 333 310 310> 503 20G<107 200 200 200 399 487 487 487>
VStem: 9 478
LayerCount: 2
Fore
SplineSet
376 66 m 1
 414 66 l 1
 380 -125 l 1
 311 -125 l 1
 333 0 l 1
 310 0 l 1
 238 197 l 1
 100 0 l 1
 9 0 l 1
 207 269 l 1
 107 523 l 1
 200 523 l 1
 267 339 l 1
 399 523 l 1
 487 523 l 1
 298 269 l 1
 376 66 l 1
EndSplineSet
EndChar

StartChar: uni04B4
Encoding: 558 1204 451
Width: 771
Flags: MW
HStem: 0 86<671 672> 632 86<137 301 122 595 381 381 381 580>
LayerCount: 2
Fore
SplineSet
672 0 m 1
 189 0 l 1
 301 632 l 1
 122 632 l 1
 137 718 l 1
 595 718 l 1
 580 632 l 1
 381 632 l 1
 284 87 l 1
 591 87 l 1
 703 718 l 1
 783 718 l 1
 671 86 l 1
 767 86 l 1
 731 -120 l 1
 651 -120 l 1
 672 0 l 1
EndSplineSet
EndChar

StartChar: uni04B5
Encoding: 559 1205 452
Width: 486
Flags: MW
HStem: 0 69<199 405 199 473> 450 73<97 194 84 399 266 266 266 386>
VStem: 84 473<450 523>
LayerCount: 2
Fore
SplineSet
473 0 m 1
 115 0 l 1
 194 450 l 1
 84 450 l 1
 97 523 l 1
 399 523 l 1
 386 450 l 1
 266 450 l 1
 199 69 l 1
 405 69 l 1
 485 523 l 1
 557 523 l 1
 477 66 l 1
 554 66 l 1
 520 -125 l 1
 451 -125 l 1
 473 0 l 1
EndSplineSet
EndChar

StartChar: uni04B7
Encoding: 561 1207 454
Width: 411
Flags: MW
HStem: -20 20G<246 246 246 325> 206 70<181 205>
VStem: 59 70<310.5 319 319 322 310.5 322.5>
LayerCount: 2
Fore
SplineSet
246 0 m 1
 287 228 l 1
 256 208 229 206 181 206 c 0
 118 206 59 251 59 319 c 0
 59 326 59 333 61 341 c 2
 93 523 l 1
 165 524 l 1
 129 322 l 1
 129 319 l 2
 129 302 155 276 207 276 c 0
 252 276 297 288 301 314 c 2
 339 525 l 1
 411 523 l 1
 330 66 l 1
 406 66 l 1
 372 -125 l 1
 303 -125 l 1
 325 0 l 1
 246 0 l 1
EndSplineSet
EndChar

StartChar: uni04B8
Encoding: 562 1208 455
Width: 480
Flags: MW
HStem: 0 21G<337 417 337 337> 503 20G<269 341 341 341> 698 20G<125 205 205 205 463 543 543 543>
VStem: 73 81<411.5 414.5>
LayerCount: 2
Fore
SplineSet
412 425 m 2
 463 718 l 1
 543 718 l 1
 417 0 l 1
 337 0 l 1
 393 317 l 1
 365 294 331 285 299 282 c 1
 274 140 l 1
 202 140 l 1
 227 283 l 1
 167 292 73 325 73 411 c 0
 73 418 75 431 76 438 c 2
 125 718 l 1
 205 718 l 1
 156 438 l 2
 156 436 154 428 154 426 c 0
 154 397 202 377 242 369 c 1
 269 523 l 1
 341 523 l 1
 314 370 l 1
 357 379 407 402 412 425 c 2
EndSplineSet
EndChar

StartChar: uni04B9
Encoding: 563 1209 456
Width: 386
Flags: MW
HStem: 0 21G<246 318 246 246>
VStem: 59 70<313 319 319 322 313 322.5>
LayerCount: 2
Fore
SplineSet
411 523 m 1
 318 0 l 1
 246 0 l 1
 287 228 l 1
 267 214 249 209 226 207 c 1
 205 100 l 1
 133 100 l 1
 155 209 l 1
 102 219 59 261 59 319 c 0
 59 326 59 333 61 341 c 2
 93 523 l 1
 165 524 l 1
 129 322 l 1
 129 319 l 2
 129 307 142 290 169 282 c 1
 189 383 l 1
 261 383 l 1
 240 278 l 1
 272 283 298 295 301 314 c 2
 339 525 l 1
 411 523 l 1
EndSplineSet
EndChar
